<svg width="31" height="29" viewBox="0 0 31 29" fill="none" xmlns="http://www.w3.org/2000/svg">
<path d="M3.97233 2.55492C4.83436 1.73493 6.21889 1.79108 7.06476 2.68032L26.0566 22.6458C26.9024 23.5351 26.8893 24.9207 26.0273 25.7406C25.1653 26.5606 23.7807 26.5045 22.9349 25.6153L3.94307 5.64978C3.09719 4.76053 3.1103 3.37491 3.97233 2.55492Z" fill="white"/>
<path d="M26.871 3.41211C27.6931 4.27279 27.6398 5.65812 26.7528 6.5055L6.82747 25.5394C5.94042 26.3868 4.55409 26.3767 3.73191 25.5161C2.90974 24.6554 2.96305 23.27 3.85011 22.4227L23.7754 3.38871C24.6625 2.54133 26.0488 2.55143 26.871 3.41211Z" fill="white"/>
</svg>
