<svg width="819" height="240" viewBox="0 0 819 240" fill="none" xmlns="http://www.w3.org/2000/svg">
<mask id="mask0_590_54" style="mask-type:alpha" maskUnits="userSpaceOnUse" x="0" y="0" width="819" height="240">
<rect width="819" height="240" fill="#D9D9D9"/>
</mask>
<g mask="url(#mask0_590_54)">
<path d="M640.803 232.255C642.62 232.237 644.437 232.332 646.252 232.54L646.576 232.577C648.235 232.766 649.893 232.925 651.552 233.054L651.877 233.08C653.413 233.199 654.948 233.195 656.484 233.069L656.646 233.055L656.809 233.042C658.539 232.9 660.27 232.789 662.001 232.71L662.163 232.704L662.325 232.696C664.163 232.613 666.001 232.664 667.837 232.847L668 232.863L668.162 232.879C669.735 233.037 671.308 233.096 672.879 233.059L673.203 233.051C675.064 233.007 676.923 233.119 678.778 233.386L679.103 233.433C680.435 233.625 681.766 233.572 683.113 233.271L683.276 233.235L683.438 233.199C685.567 232.722 687.712 232.73 689.839 233.222L690.001 233.26L690.163 233.297C691.448 233.594 692.715 233.613 693.991 233.357L694.153 233.324L694.315 233.291C696.222 232.908 698.138 232.739 700.058 232.787L700.382 232.794C702.192 232.84 704 232.991 705.807 233.247L705.969 233.269L706.131 233.292C707.535 233.491 708.936 233.482 710.342 233.264L710.666 233.213C712.501 232.929 714.339 232.779 716.179 232.763L716.341 232.762L716.503 232.76C718.336 232.745 720.168 232.858 721.997 233.098L722.322 233.141C723.688 233.32 725.052 233.273 726.429 232.995L726.591 232.962L726.753 232.929C728.686 232.538 730.63 232.391 732.577 232.492L732.739 232.5L732.901 232.508C734.555 232.593 736.208 232.645 737.861 232.662L738.023 232.663L738.186 232.665C739.934 232.682 741.682 232.748 743.43 232.861L743.754 232.882C745.301 232.982 746.849 232.967 748.396 232.837L748.559 232.825L748.721 232.811C750.549 232.658 752.378 232.629 754.207 232.725L754.369 232.733L754.531 232.742C756.353 232.837 758.173 233.05 759.989 233.38L760.313 233.439C761.549 233.663 762.784 233.603 764.051 233.242L764.213 233.196L764.375 233.149C766.49 232.546 768.637 232.424 770.784 232.799L770.946 232.829L771.108 232.857C772.672 233.131 774.233 233.296 775.791 233.355L775.953 233.361L776.115 233.368C777.694 233.427 779.273 233.394 780.853 233.27L781.177 233.245C782.977 233.103 784.777 233.058 786.578 233.11L786.74 233.115L786.902 233.119C788.516 233.165 790.129 233.146 791.742 233.061L792.066 233.043C793.776 232.953 795.486 232.876 797.195 232.812L797.521 232.8C799.212 232.737 800.905 232.672 802.597 232.606L802.759 232.6L802.921 232.593C804.832 232.518 806.739 232.651 808.641 232.99L808.803 233.018L808.965 233.047C810.501 233.321 812.034 233.465 813.562 233.484L813.887 233.488C815.401 233.506 816.918 233.388 818.44 233.131L818.765 233.077C818.843 233.063 818.922 233.052 819 233.039V239.056C817.275 239.323 815.546 239.45 813.815 239.429L813.491 239.425C811.632 239.403 809.775 239.226 807.924 238.897L807.762 238.868L807.6 238.839C806.113 238.575 804.632 238.473 803.154 238.531L802.992 238.537L802.83 238.543C801.134 238.61 799.437 238.675 797.741 238.738L797.417 238.749C795.738 238.812 794.059 238.888 792.381 238.977L792.219 238.985L792.057 238.994C790.282 239.087 788.506 239.109 786.731 239.058L786.569 239.053L786.407 239.049C784.82 239.004 783.232 239.043 781.644 239.168L781.319 239.194C779.511 239.336 777.7 239.374 775.891 239.305L775.729 239.298L775.566 239.292C773.736 239.223 771.908 239.029 770.084 238.709L769.76 238.653C768.518 238.436 767.278 238.5 766.004 238.863L765.842 238.91L765.68 238.956C763.559 239.56 761.404 239.675 759.252 239.285L758.928 239.226C757.356 238.941 755.787 238.757 754.221 238.675L753.896 238.658C752.337 238.576 750.777 238.601 749.217 238.732L749.055 238.746L748.893 238.758C747.052 238.912 745.211 238.93 743.37 238.811L743.208 238.8L743.046 238.79C741.405 238.684 739.765 238.623 738.125 238.606L737.963 238.604L737.801 238.603C736.066 238.585 734.331 238.531 732.596 238.442L732.434 238.434L732.271 238.425C730.83 238.351 729.385 238.459 727.93 238.753L727.768 238.786L727.605 238.819C725.594 239.225 723.57 239.297 721.548 239.032L721.386 239.01L721.224 238.99C719.665 238.785 718.108 238.688 716.553 238.702L716.391 238.704L716.229 238.705C714.68 238.718 713.13 238.845 711.576 239.085L711.414 239.11L711.252 239.135C709.27 239.442 707.282 239.456 705.298 239.175L705.136 239.152L704.974 239.129C703.392 238.905 701.812 238.774 700.233 238.735L700.071 238.73L699.909 238.726C698.441 238.689 696.968 238.819 695.486 239.117L695.324 239.149L695.161 239.181C693.05 239.605 690.928 239.573 688.824 239.086L688.662 239.049L688.5 239.011C687.239 238.719 685.995 238.715 684.735 238.997L684.573 239.034L684.411 239.07C682.371 239.526 680.313 239.61 678.257 239.314L678.095 239.29L677.933 239.268C676.4 239.048 674.871 238.956 673.344 238.992L673.02 238.999C671.203 239.042 669.386 238.973 667.571 238.791L667.409 238.776L667.247 238.759C665.695 238.604 664.144 238.561 662.594 238.631L662.432 238.639L662.27 238.646C660.612 238.721 658.954 238.827 657.297 238.963L656.973 238.991C655.121 239.143 653.267 239.148 651.415 239.003L651.091 238.978C649.361 238.843 647.632 238.677 645.902 238.48L645.578 238.443C644.005 238.263 642.432 238.181 640.861 238.197L640.699 238.199L640.537 238.2C639.115 238.214 637.681 238.42 636.229 238.829L635.905 238.92C633.893 239.486 631.856 239.703 629.808 239.557L629.646 239.545L629.482 239.535C627.788 239.414 626.093 239.292 624.398 239.17L624.074 239.147C622.408 239.027 620.741 238.929 619.074 238.856L618.749 238.842C617.014 238.766 615.279 238.653 613.544 238.504L613.382 238.49L613.22 238.476C611.84 238.358 610.455 238.455 609.055 238.776L608.892 238.813L608.729 238.85C606.713 239.312 604.68 239.429 602.645 239.195L602.32 239.158C600.635 238.964 598.95 238.777 597.265 238.598L597.103 238.581L596.939 238.564C595.337 238.394 593.736 238.299 592.135 238.28L591.81 238.276C590.294 238.257 588.776 238.374 587.253 238.628L587.091 238.656L586.929 238.682C584.985 239.007 583.034 239.08 581.083 238.9L580.921 238.884L580.759 238.87C579.087 238.715 577.416 238.58 575.744 238.463L575.582 238.452L575.419 238.441C574.039 238.345 572.652 238.464 571.248 238.807L571.086 238.846L570.924 238.886C568.969 239.364 566.999 239.568 565.021 239.492L564.859 239.485L564.697 239.479C562.951 239.412 561.205 239.298 559.46 239.139L559.297 239.123L559.135 239.109C557.63 238.971 556.126 238.979 554.621 239.131L554.459 239.148L554.297 239.164C552.404 239.355 550.509 239.354 548.616 239.163L548.454 239.147L548.292 239.13C546.567 238.955 544.841 238.752 543.116 238.522L542.792 238.479C541.327 238.283 539.865 238.26 538.403 238.41L538.079 238.443C536.244 238.63 534.408 238.685 532.571 238.609L532.247 238.595C530.768 238.533 529.287 238.632 527.799 238.891L527.475 238.948C525.399 239.31 523.317 239.264 521.251 238.815L521.089 238.779L520.926 238.744C519.691 238.475 518.469 238.5 517.222 238.824L516.897 238.908C514.855 239.438 512.788 239.586 510.717 239.339L510.555 239.32L510.393 239.301C508.715 239.101 507.037 238.916 505.359 238.745L505.035 238.711C503.502 238.555 501.97 238.524 500.438 238.62L500.276 238.629L500.114 238.64C498.506 238.74 496.896 238.909 495.285 239.149L494.96 239.198C492.941 239.498 490.918 239.462 488.905 239.093L488.581 239.035C487.042 238.753 485.508 238.597 483.977 238.568L483.652 238.562C481.992 238.53 480.332 238.525 478.672 238.55L478.509 238.553L478.347 238.555C476.595 238.581 474.844 238.557 473.093 238.482L472.769 238.468C471.101 238.397 469.434 238.348 467.767 238.322L467.604 238.319L467.442 238.317C465.913 238.293 464.381 238.395 462.846 238.624L462.521 238.673C460.65 238.953 458.775 239.061 456.898 238.998L456.736 238.992L456.574 238.987C455.061 238.935 453.545 239.02 452.026 239.245L451.864 239.269L451.702 239.292C449.689 239.59 447.672 239.558 445.664 239.2L445.502 239.171L445.34 239.142C443.813 238.869 442.29 238.731 440.771 238.727H440.608L440.446 238.726C438.948 238.722 437.445 238.865 435.937 239.157L435.774 239.189L435.612 239.22C433.7 239.59 431.779 239.741 429.854 239.668L429.53 239.657C427.622 239.585 425.721 239.309 423.832 238.832L423.508 238.75C422.172 238.413 420.858 238.338 419.547 238.514L419.222 238.557C417.513 238.786 415.804 239.002 414.095 239.205L413.771 239.244C411.74 239.484 409.712 239.378 407.698 238.934L407.536 238.899L407.373 238.863C406.02 238.564 404.682 238.512 403.344 238.7L403.02 238.745C401.265 238.991 399.51 239.182 397.755 239.319L397.431 239.344C395.567 239.489 393.702 239.474 391.839 239.298L391.677 239.284L391.515 239.268C389.972 239.123 388.43 239.096 386.889 239.188L386.563 239.207C384.787 239.314 383.011 239.346 381.234 239.304L380.909 239.296C379.274 239.258 377.64 239.268 376.005 239.328L375.843 239.333L375.681 239.34C373.842 239.407 372.004 239.34 370.168 239.139L369.844 239.104C368.413 238.948 366.983 238.982 365.547 239.208L365.222 239.259C363.365 239.552 361.505 239.689 359.643 239.667L359.318 239.664C357.393 239.641 355.475 239.396 353.568 238.933L353.406 238.893L353.244 238.854C351.75 238.491 350.267 238.293 348.791 238.257L348.466 238.249C346.98 238.213 345.492 238.333 343.996 238.609L343.834 238.639L343.672 238.668C341.796 239.015 339.914 239.183 338.028 239.169L337.704 239.167C336.083 239.156 334.461 239.204 332.839 239.312L332.515 239.333C330.589 239.461 328.666 239.365 326.748 239.045L326.585 239.018L326.423 238.992C324.958 238.748 323.5 238.679 322.043 238.785L321.719 238.808C319.799 238.947 317.88 238.868 315.966 238.571L315.642 238.52C314.28 238.308 312.922 238.328 311.555 238.581L311.23 238.641C309.431 238.974 307.628 239.206 305.824 239.337L305.5 239.361C303.661 239.495 301.821 239.494 299.981 239.358L299.819 239.345L299.657 239.333C297.914 239.204 296.17 239.03 294.427 238.813L294.265 238.792L294.103 238.773C292.58 238.583 291.06 238.527 289.541 238.606L289.217 238.623C287.603 238.707 285.987 238.855 284.371 239.07L284.047 239.113C282.021 239.381 279.994 239.309 277.98 238.898L277.656 238.831C276.26 238.547 274.876 238.483 273.493 238.635L273.168 238.67C271.284 238.878 269.399 238.904 267.514 238.747L267.188 238.719C265.788 238.602 264.383 238.691 262.967 238.99L262.643 239.058C260.538 239.502 258.42 239.495 256.317 239.04L255.993 238.969C254.596 238.666 253.213 238.586 251.833 238.723L251.671 238.74L251.509 238.755C249.763 238.928 248.017 239.055 246.271 239.136L246.108 239.144L245.945 239.151C244.067 239.238 242.191 239.151 240.317 238.89L239.992 238.845C238.459 238.632 236.93 238.547 235.401 238.589L235.239 238.593L235.077 238.598C233.492 238.642 231.905 238.773 230.317 238.992L229.993 239.037C228.196 239.284 226.397 239.436 224.597 239.491L224.271 239.5C222.582 239.552 220.893 239.608 219.203 239.667L219.041 239.672L218.879 239.678C217.062 239.742 215.245 239.694 213.43 239.533L213.104 239.503C211.435 239.355 209.766 239.228 208.097 239.122L207.935 239.112L207.771 239.101C206.131 238.997 204.49 238.936 202.85 238.92L202.688 238.919L202.525 238.917C200.769 238.9 199.012 238.828 197.256 238.7L196.931 238.676C195.452 238.568 193.972 238.622 192.488 238.835L192.326 238.859L192.164 238.881C190.354 239.142 188.541 239.295 186.728 239.337L186.403 239.345C184.556 239.389 182.71 239.29 180.866 239.049L180.542 239.006C178.986 238.803 177.433 238.712 175.881 238.731L175.719 238.734L175.557 238.736C173.789 238.758 172.022 238.714 170.255 238.605L169.931 238.585C168.395 238.491 166.859 238.52 165.322 238.671L164.998 238.703C163.18 238.882 161.361 238.947 159.542 238.897L159.38 238.893L159.218 238.888C157.508 238.841 155.797 238.781 154.087 238.706L153.924 238.698L153.762 238.691C152.217 238.623 150.672 238.672 149.126 238.837L148.802 238.873C147.07 239.058 145.338 239.21 143.606 239.329L143.281 239.35C141.386 239.48 139.491 239.417 137.6 239.162L137.274 239.119C135.641 238.898 134.008 238.729 132.376 238.611L132.051 238.587C130.502 238.476 128.955 238.479 127.406 238.595L127.243 238.608L127.081 238.62C125.312 238.753 123.542 238.819 121.771 238.816H121.609L121.447 238.815C119.911 238.813 118.373 238.933 116.831 239.175L116.669 239.201L116.507 239.227C114.396 239.559 112.285 239.442 110.201 238.89L109.877 238.804C108.568 238.457 107.284 238.388 106.002 238.582L105.677 238.631C103.676 238.935 101.669 238.925 99.6699 238.598L99.3447 238.545C97.9193 238.313 96.5001 238.278 95.0801 238.441L94.7559 238.478C92.8771 238.694 90.9961 238.733 89.1152 238.593L88.9531 238.581L88.791 238.569C87.15 238.447 85.5088 238.369 83.8682 238.336L83.5439 238.331C81.9514 238.298 80.3582 238.348 78.7646 238.479L78.6025 238.492L78.4395 238.505C76.5728 238.659 74.705 238.649 72.8389 238.475L72.6768 238.46L72.5146 238.445C70.9611 238.3 69.4087 238.267 67.8564 238.345L67.6943 238.354L67.5322 238.362C66.0135 238.438 64.4889 238.649 62.958 238.997L62.7959 239.033L62.6338 239.07C60.7318 239.502 58.8197 239.722 56.9014 239.727L56.7393 239.728H56.5771C54.7232 239.733 52.8706 239.589 51.0225 239.296L50.8604 239.27L50.6982 239.245C49.1225 238.995 47.5491 238.844 45.9775 238.79L45.8154 238.784L45.6533 238.779C43.9637 238.72 42.2737 238.665 40.584 238.615L40.2598 238.605C38.6779 238.557 37.0955 238.599 35.5127 238.731L35.1885 238.758C33.345 238.912 31.5003 238.925 29.6562 238.798L29.4941 238.788L29.332 238.776C27.6674 238.662 26.0024 238.573 24.3379 238.508L24.1758 238.502L24.0137 238.496C22.5192 238.438 21.0221 238.53 19.5205 238.773L19.1963 238.826C17.3189 239.13 15.4363 239.255 13.5518 239.2L13.2275 239.19C11.5784 239.142 9.92935 239.131 8.28027 239.158L8.11816 239.161L7.95605 239.163C6.06287 239.193 4.17264 239.034 2.28906 238.689L1.96484 238.63C1.31014 238.51 0.656027 238.452 0 238.458V232.517C1.01326 232.511 2.02645 232.6 3.03711 232.786L3.19922 232.816L3.36133 232.845C4.86595 233.121 6.3644 233.246 7.85938 233.222L8.02148 233.219L8.18359 233.217C9.92273 233.189 11.6623 233.2 13.4014 233.25L13.7256 233.26C15.2292 233.304 16.7355 233.205 18.2461 232.96L18.5713 232.908C20.4578 232.602 22.3494 232.485 24.2432 232.558L24.4053 232.565L24.5674 232.571C26.2911 232.637 28.0148 232.731 29.7383 232.849L30.0625 232.871C31.6066 232.977 33.1508 232.966 34.6953 232.837L35.0195 232.81C36.8248 232.66 38.6312 232.612 40.4375 232.666L40.7627 232.676C42.4612 232.727 44.1599 232.782 45.8584 232.84L46.0205 232.846L46.1826 232.851C47.9993 232.914 49.8146 233.09 51.627 233.376L51.9512 233.427C53.4911 233.671 55.0274 233.79 56.5615 233.787L56.7236 233.786H56.8857C58.3555 233.782 59.8322 233.613 61.3184 233.276L61.4805 233.239L61.6426 233.203C63.4998 232.781 65.364 232.521 67.2334 232.427L67.5586 232.412C69.3944 232.319 71.23 232.358 73.0645 232.529L73.2266 232.544L73.3887 232.559C74.9105 232.701 76.4317 232.709 77.9531 232.583L78.1152 232.571L78.2773 232.557C80.072 232.41 81.8675 232.354 83.6631 232.39L83.8252 232.393L83.9873 232.397C85.7348 232.432 87.4824 232.514 89.2295 232.644L89.5547 232.667C91.0618 232.779 92.5689 232.749 94.0781 232.576L94.4023 232.539C96.3705 232.313 98.34 232.361 100.303 232.681L100.627 232.734C102.015 232.961 103.397 232.968 104.784 232.757L105.108 232.708C107.215 232.388 109.32 232.51 111.398 233.061L111.723 233.147C113.027 233.493 114.305 233.558 115.582 233.357L115.907 233.306C117.754 233.015 119.604 232.871 121.456 232.873L121.618 232.874H121.78C123.398 232.877 125.016 232.817 126.635 232.695L126.797 232.683L126.959 232.67C128.798 232.532 130.639 232.529 132.479 232.662L132.803 232.685C134.559 232.812 136.315 232.993 138.069 233.23L138.231 233.251L138.394 233.274C139.89 233.476 141.383 233.525 142.876 233.423L143.038 233.412L143.2 233.401C144.856 233.287 146.513 233.142 148.169 232.964L148.331 232.947L148.493 232.93C150.335 232.733 152.179 232.674 154.022 232.755L154.347 232.769C156.025 232.843 157.703 232.903 159.381 232.949L159.543 232.954L159.705 232.957C161.274 233.001 162.844 232.946 164.414 232.79L164.576 232.774L164.738 232.758C166.59 232.575 168.443 232.541 170.296 232.655L170.458 232.665L170.62 232.675C172.241 232.775 173.862 232.815 175.482 232.794L175.807 232.79C177.643 232.768 179.478 232.876 181.311 233.115L181.473 233.136L181.635 233.157C183.18 233.358 184.723 233.441 186.264 233.405L186.588 233.397C188.162 233.36 189.738 233.229 191.316 233.001L191.641 232.955C193.545 232.68 195.454 232.611 197.363 232.75L197.688 232.774C199.319 232.893 200.952 232.96 202.583 232.976L202.745 232.978L202.907 232.979C204.655 232.996 206.402 233.06 208.149 233.171L208.312 233.182L208.474 233.192C210.192 233.301 211.911 233.433 213.63 233.585L213.792 233.6L213.955 233.614C215.527 233.753 217.099 233.796 218.67 233.741L218.994 233.729C220.693 233.669 222.392 233.614 224.091 233.562L224.253 233.557L224.415 233.551C226.003 233.503 227.592 233.37 229.183 233.151L229.508 233.106C231.308 232.858 233.109 232.709 234.912 232.659L235.074 232.655L235.237 232.65C237.097 232.598 238.955 232.701 240.811 232.959L240.974 232.983L241.136 233.005C242.65 233.216 244.162 233.286 245.672 233.216L245.996 233.201C247.638 233.125 249.28 233.006 250.923 232.843L251.085 232.827L251.247 232.811C253.255 232.612 255.261 232.731 257.252 233.163L257.576 233.233C258.861 233.512 260.132 233.515 261.416 233.245L261.74 233.176C263.712 232.76 265.695 232.633 267.683 232.798L268.008 232.826C269.511 232.951 271.013 232.931 272.518 232.765L272.68 232.748L272.842 232.729C274.847 232.508 276.852 232.603 278.844 233.009L279.168 233.076C280.542 233.356 281.903 233.404 283.266 233.223L283.59 233.18C285.362 232.945 287.135 232.782 288.909 232.69L289.234 232.672C291.103 232.576 292.972 232.644 294.838 232.876L295.162 232.917C296.807 233.123 298.452 233.286 300.097 233.408L300.259 233.42L300.421 233.432C301.97 233.547 303.519 233.548 305.067 233.435L305.393 233.412C306.976 233.296 308.562 233.092 310.15 232.798L310.475 232.738C312.496 232.364 314.527 232.334 316.554 232.649L316.716 232.674L316.878 232.699C318.352 232.928 319.822 232.989 321.29 232.882L321.614 232.859C323.546 232.719 325.476 232.81 327.399 233.13L327.562 233.158L327.724 233.184C329.194 233.429 330.658 233.502 332.121 233.405L332.445 233.383C334.212 233.266 335.979 233.214 337.746 233.226L338.07 233.228C339.573 233.239 341.08 233.105 342.592 232.826L342.754 232.796L342.916 232.766C344.808 232.416 346.708 232.264 348.61 232.31L348.936 232.318C350.848 232.364 352.753 232.62 354.647 233.081L354.81 233.12L354.972 233.16C356.453 233.52 357.924 233.705 359.387 233.722L359.711 233.726C361.236 233.744 362.764 233.633 364.296 233.391L364.458 233.365L364.62 233.339C366.572 233.031 368.531 232.983 370.488 233.197L370.65 233.215L370.812 233.233C372.364 233.402 373.915 233.458 375.465 233.402L375.789 233.39C377.542 233.326 379.296 233.316 381.05 233.357L381.374 233.365C382.985 233.403 384.597 233.373 386.209 233.277L386.533 233.257C388.38 233.147 390.227 233.179 392.072 233.353L392.234 233.368L392.396 233.383C393.921 233.527 395.446 233.539 396.97 233.42L397.132 233.408L397.294 233.396C398.927 233.269 400.56 233.09 402.194 232.861L402.519 232.816C404.568 232.528 406.619 232.612 408.654 233.061L408.816 233.096L408.979 233.132C410.353 233.436 411.713 233.504 413.071 233.343L413.396 233.304C415.074 233.105 416.754 232.893 418.433 232.668L418.595 232.647L418.757 232.624C420.834 232.346 422.909 232.471 424.961 232.989L425.285 233.071C426.784 233.449 428.272 233.664 429.752 233.719L430.077 233.731C431.541 233.786 433.008 233.672 434.483 233.386L434.808 233.324C436.687 232.96 438.573 232.779 440.463 232.785L440.625 232.786H440.788C442.657 232.791 444.523 232.96 446.384 233.292L446.708 233.351C448.088 233.597 449.46 233.617 450.835 233.415L450.997 233.391L451.159 233.367C453.028 233.091 454.902 232.985 456.776 233.048L456.938 233.054L457.101 233.059C458.612 233.11 460.125 233.023 461.643 232.796L461.805 232.773L461.968 232.748C463.821 232.471 465.677 232.346 467.535 232.375L467.86 232.381C469.581 232.408 471.303 232.458 473.023 232.532L473.186 232.539L473.348 232.546C474.984 232.617 476.621 232.639 478.258 232.615L478.421 232.612L478.583 232.61C480.311 232.584 482.039 232.588 483.767 232.622L484.091 232.627C485.948 232.663 487.802 232.851 489.651 233.19L489.813 233.219L489.976 233.249C491.35 233.501 492.716 233.524 494.086 233.321L494.41 233.272C496.187 233.008 497.967 232.82 499.746 232.709L500.07 232.69C501.927 232.575 503.784 232.611 505.639 232.8L505.963 232.833C507.674 233.008 509.384 233.197 511.095 233.401L511.419 233.44C512.736 233.597 514.059 233.506 515.404 233.157L515.729 233.073C517.869 232.517 520.035 232.47 522.188 232.938L522.513 233.008C523.834 233.296 525.142 233.323 526.454 233.094L526.778 233.038C528.679 232.706 530.586 232.579 532.495 232.659L532.819 232.672C534.371 232.737 535.923 232.69 537.477 232.532L537.801 232.498C539.727 232.302 541.655 232.333 543.578 232.589L543.74 232.611L543.902 232.633C545.565 232.855 547.229 233.051 548.892 233.219L549.054 233.235L549.216 233.251C550.711 233.403 552.205 233.403 553.7 233.252L554.024 233.219C555.907 233.029 557.792 233.02 559.676 233.192L559.838 233.206L560 233.222C561.642 233.372 563.285 233.478 564.927 233.541L565.089 233.548L565.251 233.554C566.662 233.609 568.08 233.464 569.514 233.114L569.676 233.075L569.838 233.035C571.822 232.55 573.824 232.373 575.832 232.513L575.994 232.525L576.156 232.536C577.873 232.655 579.59 232.795 581.307 232.954L581.631 232.983C583.068 233.116 584.506 233.063 585.95 232.822L586.112 232.795L586.274 232.768C588.14 232.457 590.01 232.312 591.883 232.334L592.207 232.338C593.994 232.36 595.781 232.465 597.566 232.655L597.891 232.69C599.594 232.87 601.297 233.058 603 233.254L603.162 233.274L603.324 233.292C604.677 233.448 606.032 233.372 607.403 233.058L607.566 233.021L607.729 232.984C609.716 232.529 611.72 232.384 613.728 232.556L613.89 232.57L614.052 232.584C615.705 232.726 617.359 232.833 619.012 232.906L619.174 232.914L619.336 232.92C621.058 232.996 622.779 233.096 624.501 233.22L624.825 233.244C626.519 233.366 628.212 233.487 629.905 233.608L630.229 233.631C631.569 233.727 632.921 233.588 634.297 233.201L634.459 233.155L634.621 233.11C636.558 232.565 638.512 232.279 640.479 232.259L640.803 232.255Z" fill="white"/>
</g>
</svg>
