<svg width="179" height="240" viewBox="0 0 179 240" fill="none" xmlns="http://www.w3.org/2000/svg">
<path d="M7.05076 0C7.01208 1.05543 6.99226 2.1107 6.99608 3.16602L6.99705 3.32812V3.49023C7.00375 5.33528 6.87048 7.17934 6.59764 9.01953L6.57322 9.18164L6.54979 9.34375C6.33247 10.8093 6.28805 12.2708 6.416 13.7314L6.43065 13.8936L6.44432 14.0557C6.61236 15.9736 6.56276 17.8925 6.29686 19.8066L6.25194 20.1309C6.06902 21.4475 6.13609 22.7655 6.46092 24.1035L6.53904 24.4277C7.05565 26.5554 7.08443 28.7044 6.62205 30.8398L6.58787 31.002L6.55272 31.1641C6.23859 32.6146 6.11508 34.0545 6.17772 35.4883L6.19139 35.8125C6.26975 37.6052 6.25862 39.3989 6.15819 41.1914L6.14061 41.5156C6.0488 43.154 6.00257 44.7926 6.00291 46.4307V46.7559C6.00326 48.2993 6.12079 49.8451 6.35545 51.3936L6.40428 51.7178C6.68177 53.5487 6.8292 55.383 6.84569 57.2188L6.84764 57.3809L6.84862 57.543C6.86564 59.4418 6.68737 61.3409 6.31737 63.2363L6.28612 63.3994L6.25389 63.5635C5.97018 65.0168 5.88161 66.4546 5.9824 67.8828L5.99315 68.0449L6.00487 68.207C6.12185 69.864 6.27088 71.5205 6.45115 73.1748L6.48631 73.499C6.6693 75.1782 6.86269 76.8547 7.06639 78.5273L7.10545 78.8496C7.31269 80.5513 7.50599 82.2552 7.68455 83.959L7.71776 84.2812C7.88702 85.8963 8.11579 87.506 8.4033 89.1084L8.43162 89.2686L8.46092 89.4287C8.72869 90.921 9.13358 92.3845 9.67674 93.8203L9.73436 93.9736L9.79295 94.1279C10.4827 95.9512 10.9489 97.8274 11.1885 99.751L11.208 99.9121L11.2285 100.074C11.4364 101.744 11.6598 103.416 11.8994 105.09L11.9463 105.414C12.1557 106.877 12.5297 108.291 13.0693 109.658L13.1299 109.811L13.1894 109.962C13.8668 111.679 14.4177 113.437 14.8428 115.235L14.8808 115.395L14.918 115.554C15.2371 116.904 15.7631 118.179 16.5029 119.39L16.5898 119.531L16.6758 119.673C17.7157 121.374 18.5083 123.178 19.0478 125.078L19.1377 125.391C19.5184 126.731 20.0945 127.989 20.874 129.17L20.9648 129.307L21.0556 129.444C22.1662 131.127 23.0034 132.94 23.5615 134.875L23.6064 135.032L23.6523 135.19C24.1051 136.76 24.619 138.307 25.1943 139.831L25.2519 139.984L25.3096 140.137C25.8159 141.478 26.496 142.724 27.3525 143.88L27.5478 144.144C28.7028 145.702 29.6658 147.374 30.4346 149.154L30.5 149.305L30.5644 149.456C31.1647 150.846 31.8938 152.156 32.751 153.39L32.9365 153.657C33.846 154.966 34.8261 156.224 35.876 157.432L35.9834 157.556L36.0908 157.679C37.3868 159.17 38.4657 160.815 39.3262 162.607L39.3984 162.757L39.4697 162.905C40.0766 164.169 40.8612 165.289 41.8291 166.275L42.0586 166.509C43.2906 167.765 44.4864 169.046 45.6455 170.351L45.7539 170.472L45.8613 170.594C47.005 171.881 48.1317 173.183 49.2402 174.5L49.4492 174.748C50.5579 176.065 51.6517 177.4 52.7295 178.752L52.831 178.879L52.9326 179.007C53.9124 180.236 54.9674 181.394 56.0976 182.48L56.2148 182.593L56.332 182.706C57.4683 183.798 58.6705 184.819 59.9394 185.769L60.2012 185.964C61.5847 186.999 62.9528 188.044 64.3037 189.102L64.4316 189.202L64.5586 189.302C65.8805 190.336 67.2087 191.36 68.543 192.371L68.8008 192.566C70.2635 193.675 71.6425 194.89 72.9365 196.209L73.0508 196.325L73.165 196.442C74.2368 197.535 75.3904 198.519 76.626 199.398L76.7588 199.492L76.8906 199.587C78.1742 200.5 79.51 201.337 80.8984 202.096L81.041 202.174L81.1836 202.251C82.7325 203.098 84.247 203.994 85.7256 204.938L85.8623 205.024L85.998 205.111C87.4779 206.056 88.9273 207.053 90.3457 208.104L90.4756 208.2L90.6064 208.297C91.8877 209.245 93.2136 210.124 94.583 210.934L94.7217 211.017L94.8613 211.099C96.3289 211.966 97.7937 212.843 99.2549 213.729L99.3935 213.812L99.5332 213.896C100.899 214.724 102.302 215.481 103.743 216.166L103.89 216.235L104.037 216.306C105.569 217.034 107.101 217.762 108.635 218.491L108.782 218.561L108.929 218.631C110.313 219.289 111.745 219.828 113.226 220.25L113.383 220.295L113.539 220.339C115.245 220.825 116.927 221.369 118.584 221.972L118.736 222.026L118.888 222.082C120.642 222.72 122.343 223.512 123.988 224.457L124.132 224.54L124.275 224.622C125.405 225.271 126.604 225.65 127.901 225.769L128.231 225.798C130.137 225.972 131.997 226.318 133.808 226.837L133.963 226.881L134.119 226.926C135.879 227.43 137.61 228.06 139.31 228.812L139.461 228.878L139.612 228.945C140.819 229.479 142.072 229.75 143.395 229.762L143.561 229.763L143.726 229.765C145.8 229.783 147.817 230.158 149.761 230.885L149.916 230.942L150.071 231.001C151.459 231.52 152.867 231.851 154.302 231.999L154.463 232.016L154.625 232.033C156.271 232.204 157.922 232.337 159.576 232.435L159.739 232.443L159.901 232.453C161.592 232.552 163.28 232.645 164.967 232.729L165.291 232.745C167.029 232.832 168.765 232.958 170.498 233.121L170.66 233.136L170.821 233.151C172.213 233.282 173.616 233.207 175.038 232.917L175.364 232.851C176.425 232.635 177.488 232.524 178.551 232.518V238.459C177.887 238.465 177.221 238.535 176.551 238.672L176.225 238.738C174.243 239.142 172.253 239.254 170.265 239.066L170.104 239.052L169.941 239.036C168.294 238.881 166.645 238.763 164.993 238.68L164.831 238.671L164.669 238.663C162.966 238.578 161.261 238.485 159.554 238.385L159.229 238.365C157.486 238.263 155.748 238.122 154.014 237.942L153.689 237.909C151.744 237.708 149.842 237.258 147.99 236.565L147.835 236.508L147.68 236.449C146.384 235.965 145.053 235.719 143.673 235.706L143.507 235.704L143.342 235.703C141.21 235.684 139.157 235.241 137.209 234.379L137.058 234.312L136.906 234.245C135.45 233.601 133.976 233.066 132.481 232.638L132.325 232.593L132.17 232.548C130.726 232.134 129.234 231.855 127.692 231.715L127.362 231.686C125.213 231.49 123.188 230.849 121.316 229.774L121.173 229.692L121.029 229.609C119.674 228.831 118.283 228.184 116.857 227.666L116.706 227.61L116.554 227.556C115.031 227.002 113.483 226.501 111.912 226.054L111.756 226.009L111.599 225.964C109.802 225.452 108.062 224.797 106.379 223.997L106.231 223.927L106.085 223.857C104.551 223.128 103.018 222.4 101.486 221.672L101.34 221.603L101.193 221.532C99.5709 220.761 97.9903 219.909 96.4531 218.978L96.3135 218.894L96.1748 218.809C94.7328 217.934 93.2871 217.07 91.8389 216.214L91.6992 216.132L91.5596 216.049C90.0133 215.135 88.5171 214.143 87.0713 213.072L86.8096 212.879C85.5008 211.91 84.1643 210.99 82.8008 210.12L82.5293 209.946C81.1645 209.075 79.7652 208.248 78.333 207.465L78.0478 207.309C76.4551 206.438 74.9211 205.477 73.4463 204.428L73.3135 204.334L73.1816 204.24C71.6591 203.157 70.2398 201.944 68.9248 200.604L68.6953 200.37C67.6025 199.256 66.4417 198.233 65.2119 197.301L64.9541 197.105C63.5957 196.076 62.2431 195.034 60.8974 193.981L60.7695 193.881L60.6416 193.781C59.3249 192.751 57.9918 191.731 56.6426 190.722L56.3808 190.526C54.917 189.431 53.5282 188.252 52.2148 186.989L51.9795 186.764C50.6601 185.495 49.4288 184.143 48.2861 182.71L48.1846 182.583L48.083 182.455C47.0383 181.145 45.9785 179.851 44.9043 178.575L44.7998 178.451L44.6953 178.326C43.6207 177.05 42.5288 175.787 41.4199 174.539L41.3115 174.418L41.2041 174.297C40.1106 173.066 38.9813 171.856 37.8174 170.67L37.5879 170.437C36.1599 168.981 34.9997 167.324 34.1133 165.478L34.042 165.328L33.9707 165.18C33.3377 163.862 32.5503 162.662 31.6064 161.576L31.3916 161.33C30.2016 159.961 29.0899 158.533 28.0576 157.048L27.8721 156.78C26.7877 155.22 25.8666 153.563 25.1103 151.812L25.0449 151.661L24.9805 151.511C24.3926 150.15 23.6574 148.874 22.7734 147.681L22.5781 147.417C21.3956 145.821 20.4515 144.091 19.751 142.235L19.6933 142.082L19.6357 141.93C19.0042 140.257 18.44 138.558 17.9433 136.837L17.8974 136.68L17.8525 136.521C17.4612 135.165 16.8773 133.9 16.0967 132.717L16.0058 132.58L15.916 132.442C14.8043 130.758 13.9704 128.945 13.4219 127.014L13.3769 126.857L13.333 126.7C12.9433 125.328 12.3695 124.02 11.6064 122.771L11.5195 122.63L11.4336 122.489C10.3704 120.75 9.60134 118.89 9.13573 116.92L9.09862 116.761L9.06053 116.602C8.70085 115.08 8.23471 113.594 7.66209 112.143L7.60252 111.991L7.54295 111.839C6.83269 110.039 6.33929 108.176 6.06444 106.256L6.041 106.094L6.01854 105.932C5.77386 104.222 5.5444 102.514 5.33201 100.809L5.31248 100.646L5.29197 100.485C5.11119 99.0338 4.75982 97.6159 4.23533 96.2295L4.17772 96.0762L4.11912 95.9229C3.44808 94.149 2.94509 92.3332 2.61229 90.4785L2.58397 90.3174L2.55467 90.1572C2.24169 88.4128 1.99295 86.6606 1.80858 84.9014L1.77537 84.5781C1.60028 82.9074 1.41024 81.2371 1.20701 79.5684L1.16795 79.2451C0.961226 77.5476 0.76477 75.8465 0.579084 74.1426L0.543928 73.8184C0.355508 72.0893 0.200409 70.3582 0.0781076 68.626L0.0546701 68.3018C-0.0837316 66.341 0.0412412 64.3794 0.422834 62.4248L0.454084 62.2617L0.486311 62.0986C0.781614 60.586 0.920553 59.0858 0.907209 57.5967L0.906233 57.4346L0.904279 57.2725C0.890342 55.7202 0.766214 54.1654 0.530256 52.6084L0.505842 52.4463L0.480451 52.2842C0.201688 50.4447 0.0619037 48.6014 0.061506 46.7568V46.4326C0.0611355 44.683 0.109974 42.9329 0.20799 41.1836L0.216779 41.0205L0.226545 40.8584C0.315921 39.263 0.325571 37.6675 0.255842 36.0723L0.249006 35.9102L0.241194 35.748C0.155808 33.794 0.325574 31.8446 0.7451 29.9072L0.780256 29.7451L0.815412 29.582C1.08652 28.3297 1.07151 27.0902 0.765608 25.8301L0.726545 25.668L0.686506 25.5049C0.188933 23.4551 0.0794653 21.3846 0.36717 19.3135L0.412092 18.9893C0.616843 17.5153 0.654175 16.0443 0.525373 14.5742L0.511701 14.4121L0.497053 14.25C0.328226 12.3227 0.38682 10.395 0.671858 8.47266L0.720686 8.14844C0.950155 6.60076 1.06122 5.05552 1.05565 3.5127V3.34961L1.05467 3.1875C1.05082 2.12493 1.06935 1.06247 1.10545 0H7.05076Z" fill="white"/>
</svg>
