<svg width="32" height="25" viewBox="0 0 32 25" fill="none" xmlns="http://www.w3.org/2000/svg">
<path d="M0 2.15517C0 0.964904 0.994923 0 2.22222 0H29.7778C31.0051 0 32 0.964904 32 2.15517C32 3.34544 31.0051 4.31034 29.7778 4.31034H2.22222C0.994922 4.31034 0 3.34544 0 2.15517Z" fill="white"/>
<path d="M0 12.5C0 11.3097 0.994923 10.3448 2.22222 10.3448H29.7778C31.0051 10.3448 32 11.3097 32 12.5C32 13.6903 31.0051 14.6552 29.7778 14.6552H2.22222C0.994922 14.6552 0 13.6903 0 12.5Z" fill="white"/>
<path d="M0 22.8448C0 21.6546 0.994923 20.6897 2.22222 20.6897H29.7778C31.0051 20.6897 32 21.6546 32 22.8448C32 24.0351 31.0051 25 29.7778 25H2.22222C0.994922 25 0 24.0351 0 22.8448Z" fill="white"/>
</svg>
