<svg width="177" height="240" viewBox="0 0 177 240" fill="none" xmlns="http://www.w3.org/2000/svg">
<path d="M176.26 0C176.244 1.22782 176.265 2.45575 176.323 3.68359L176.339 4.00781C176.433 5.98818 176.244 7.96259 175.777 9.9209L175.738 10.083L175.7 10.2451C175.392 11.5404 175.359 12.8157 175.597 14.0977L175.627 14.2598L175.656 14.4219C176.036 16.4691 176.04 18.5261 175.67 20.5742L175.611 20.8984C175.387 22.1375 175.447 23.3752 175.806 24.6445L175.897 24.9688C176.451 26.9265 176.721 28.9052 176.696 30.8955L176.692 31.2207C176.671 32.9714 176.598 34.7223 176.477 36.4727L176.466 36.6348L176.454 36.7969C176.342 38.408 176.298 40.0193 176.321 41.6299L176.325 41.9551C176.353 43.8699 176.169 45.7803 175.775 47.6816L175.741 47.8438L175.708 48.0059C175.409 49.4504 175.304 50.8849 175.387 52.3145L175.396 52.4766L175.405 52.6387C175.507 54.3842 175.562 56.1311 175.572 57.877L175.574 58.2012C175.584 59.8672 175.617 61.5352 175.674 63.2041L175.679 63.3662L175.685 63.5293C175.739 65.1446 175.861 66.766 176.049 68.3926L176.067 68.5557L176.087 68.7188C176.312 70.6677 176.295 72.6133 176.034 74.5479L175.991 74.8701C175.751 76.6506 175.427 78.4191 175.02 80.1738L174.983 80.333L174.946 80.4922C174.573 82.1021 174.247 83.7122 173.969 85.3203L173.914 85.6387C173.658 87.1199 173.538 88.6329 173.558 90.1797L173.562 90.5107C173.586 92.4647 173.386 94.3881 172.959 96.2754L172.923 96.4346L172.888 96.5928C172.502 98.3008 172.07 99.9979 171.594 101.683L171.549 101.839L171.505 101.996C171.053 103.594 170.631 105.201 170.239 106.814L170.163 107.131C169.741 108.868 169.242 110.583 168.664 112.273L168.559 112.58C167.996 114.226 167.398 115.86 166.764 117.48L166.705 117.632L166.646 117.783C166.046 119.313 165.489 120.858 164.974 122.416L164.923 122.57L164.872 122.724C164.319 124.394 163.713 126.045 163.053 127.674L162.992 127.824L162.931 127.975C162.301 129.528 161.684 131.089 161.079 132.658L161.021 132.81L160.962 132.962C160.272 134.75 159.394 136.448 158.328 138.051L158.237 138.187L158.146 138.323C157.259 139.659 156.451 141.028 155.724 142.431L155.648 142.574L155.574 142.718C154.794 144.223 154.007 145.727 153.216 147.229L153.141 147.372L153.064 147.515C152.262 149.037 151.437 150.547 150.59 152.045L150.511 152.186L150.431 152.327C149.66 153.689 148.97 155.112 148.36 156.596L148.235 156.9C147.479 158.743 146.491 160.449 145.274 162.008L145.073 162.266C143.977 163.671 142.825 165.031 141.619 166.346L141.398 166.586C140.228 167.862 139.043 169.121 137.843 170.361L137.616 170.596C136.662 171.582 135.872 172.716 135.249 174.011L135.104 174.312C134.176 176.241 132.907 177.916 131.306 179.31L131.183 179.417L131.059 179.524C129.805 180.616 128.586 181.732 127.401 182.872L127.167 183.097C126.062 184.16 125.043 185.312 124.11 186.556L124.013 186.688L123.914 186.818C122.785 188.323 121.538 189.718 120.175 190.999L120.056 191.11L119.938 191.222C118.532 192.542 116.984 193.693 115.299 194.672L115.156 194.755L115.013 194.838C113.825 195.528 112.802 196.397 111.931 197.454L111.826 197.582L111.721 197.709C110.45 199.252 108.996 200.588 107.36 201.709L107.226 201.801L107.092 201.894C105.606 202.912 104.07 203.853 102.483 204.718L102.34 204.796L102.197 204.874C100.936 205.562 99.7854 206.407 98.7422 207.416L98.5059 207.645C97.0949 209.009 95.5406 210.177 93.8467 211.142L93.7061 211.223L93.5645 211.303C92.2339 212.061 90.9671 212.93 89.7637 213.911L89.5088 214.119C87.9404 215.398 86.2094 216.409 84.3262 217.147L84.1729 217.207L84.0205 217.268C82.5101 217.859 81.0401 218.515 79.6113 219.236L79.3223 219.383C77.7777 220.162 76.2195 220.914 74.6484 221.637L74.501 221.704L74.3535 221.772C72.6942 222.536 70.987 223.187 69.2334 223.726L69.0781 223.773L68.9219 223.821C67.372 224.297 65.8531 224.835 64.3652 225.432L64.2148 225.491L64.0654 225.552C62.6971 226.101 61.3711 226.8 60.0869 227.657L59.8096 227.843C57.991 229.056 55.987 229.822 53.8291 230.12L53.502 230.165C52.0866 230.361 50.7449 230.758 49.4678 231.356L49.1709 231.495C47.4201 232.316 45.6022 232.932 43.7207 233.338L43.4023 233.406C41.6381 233.787 39.856 234.075 38.0566 234.268L37.8945 234.284L37.7314 234.302C36.2666 234.459 34.8391 234.783 33.4443 235.276L33.1357 235.386C31.4182 235.993 29.6737 236.5 27.9033 236.908L27.7441 236.944L27.5859 236.981C25.8232 237.388 24.0461 237.7 22.2559 237.916L21.9326 237.955C19.9844 238.191 18.0186 238.166 16.043 237.889L15.8779 237.865L15.7129 237.843C14.2084 237.631 12.7374 237.597 11.2959 237.735L11.1348 237.751L10.9736 237.766C9.29469 237.926 7.6151 238.089 5.93555 238.254L5.61426 238.285C4.00241 238.443 2.38205 238.66 0.753906 238.935L0.429688 238.989C0.286613 239.013 0.14313 239.034 0 239.057V233.038C1.68303 232.759 3.36164 232.536 5.03516 232.372L5.35742 232.341C7.04101 232.176 8.72425 232.013 10.4072 231.852L10.7295 231.82C12.65 231.636 14.5884 231.685 16.5391 231.959L16.7041 231.981L16.8701 232.005C18.3495 232.213 19.7972 232.228 21.2197 232.056L21.543 232.017C23.1234 231.826 24.6927 231.551 26.251 231.191L26.4102 231.155L26.5693 231.118C28.1202 230.761 29.6487 230.316 31.1553 229.783L31.4639 229.674C33.2932 229.027 35.1739 228.601 37.0996 228.395L37.4238 228.359C39.0151 228.189 40.5901 227.935 42.1484 227.599L42.3066 227.564L42.4658 227.53C43.9068 227.219 45.3007 226.749 46.6494 226.116L46.7979 226.046L46.9453 225.977C48.7678 225.122 50.686 224.556 52.6885 224.279L53.0156 224.234C54.2758 224.06 55.4308 223.621 56.5107 222.9L56.6494 222.808L56.7891 222.716C58.4033 221.639 60.0917 220.744 61.8535 220.037L62.0039 219.977L62.1533 219.917C63.7959 219.258 65.4706 218.667 67.1768 218.143L67.333 218.094L67.4883 218.046C68.9907 217.584 70.451 217.028 71.8691 216.375L72.0166 216.307L72.1641 216.239C73.6705 215.546 75.1645 214.825 76.6455 214.078L76.9346 213.932C78.5313 213.126 80.171 212.394 81.8525 211.735L82.0059 211.675L82.1582 211.615C83.4669 211.102 84.6627 210.404 85.7539 209.515L85.8809 209.41L86.0088 209.307C87.4648 208.119 89.0032 207.063 90.623 206.141L90.7646 206.06L90.9053 205.979C92.1619 205.264 93.3177 204.397 94.375 203.374L94.6113 203.146C96.0365 201.767 97.6192 200.602 99.3535 199.656L99.4971 199.578L99.6396 199.5C101.049 198.732 102.414 197.896 103.732 196.992L103.867 196.9L104.001 196.809C105.17 196.007 106.213 195.051 107.135 193.933L107.239 193.805L107.345 193.678C108.665 192.074 110.232 190.744 112.029 189.7L112.314 189.534C113.615 188.779 114.798 187.898 115.868 186.893L115.986 186.781L116.105 186.67C117.217 185.625 118.236 184.486 119.161 183.252L119.358 182.99C120.48 181.495 121.71 180.103 123.047 178.816L123.164 178.703L123.281 178.591C124.538 177.381 125.831 176.198 127.158 175.043L127.281 174.936L127.405 174.828C128.385 173.975 129.165 172.953 129.751 171.735L129.823 171.584L129.896 171.434C130.787 169.582 131.937 167.92 133.346 166.464L133.572 166.229C134.735 165.027 135.886 163.808 137.021 162.57L137.131 162.449L137.241 162.329C138.341 161.13 139.39 159.891 140.39 158.61L140.49 158.481L140.59 158.353C141.469 157.226 142.186 155.992 142.739 154.644L142.802 154.491L142.864 154.338C143.566 152.63 144.364 150.984 145.259 149.401L145.419 149.12C146.237 147.673 147.034 146.214 147.809 144.744L147.884 144.601L147.96 144.458C148.745 142.968 149.525 141.476 150.3 139.982L150.375 139.839L150.449 139.695C151.277 138.1 152.193 136.546 153.198 135.034L153.289 134.897L153.38 134.762C154.207 133.518 154.885 132.206 155.418 130.824L155.477 130.673L155.535 130.521C156.152 128.92 156.782 127.327 157.424 125.742L157.485 125.593L157.546 125.442C158.157 123.934 158.72 122.405 159.231 120.858L159.333 120.55C159.882 118.891 160.476 117.246 161.113 115.617L161.172 115.466L161.231 115.314C161.834 113.775 162.402 112.223 162.937 110.659L163.042 110.353C163.561 108.833 164.01 107.292 164.389 105.729L164.428 105.571L164.466 105.413C164.875 103.727 165.315 102.049 165.787 100.38L165.832 100.223L165.876 100.066C166.324 98.4828 166.729 96.8877 167.092 95.2822L167.128 95.124L167.164 94.9648C167.487 93.5389 167.64 92.0804 167.621 90.585L167.619 90.4189L167.616 90.2539C167.593 88.3511 167.739 86.4742 168.059 84.627L168.086 84.4678L168.114 84.3086C168.411 82.588 168.759 80.8679 169.158 79.1494L169.232 78.8311C169.598 77.2574 169.888 75.6723 170.103 74.0771L170.146 73.7539C170.34 72.3129 170.354 70.8638 170.185 69.4014L170.165 69.2383L170.146 69.0742C169.94 67.2898 169.806 65.5082 169.746 63.7305L169.741 63.5674L169.735 63.4053C169.677 61.6809 169.643 59.9572 169.633 58.2354L169.631 57.9111C169.621 56.2689 169.569 54.6259 169.474 52.9834L169.464 52.8213L169.455 52.6592C169.341 50.7008 169.488 48.7461 169.89 46.8027L169.923 46.6406L169.957 46.4785C170.265 44.992 170.406 43.5131 170.385 42.04L170.382 41.8779L170.38 41.7158C170.354 39.9385 170.403 38.1605 170.527 36.3838L170.538 36.2217L170.55 36.0596C170.664 34.4221 170.731 32.7845 170.751 31.1475L170.755 30.8232C170.772 29.4256 170.584 28.0151 170.18 26.585L170.088 26.2607C169.489 24.1421 169.376 21.9907 169.765 19.8418L169.823 19.5176C170.065 18.1778 170.063 16.8455 169.814 15.5049L169.784 15.3428L169.754 15.1797C169.364 13.0738 169.422 10.9607 169.92 8.86816L169.959 8.70605L169.997 8.54395C170.338 7.11419 170.47 5.69871 170.403 4.29102L170.396 4.12891L170.389 3.9668C170.326 2.64459 170.302 1.32231 170.317 0H176.26Z" fill="white"/>
</svg>
