<svg width="246" height="1088" viewBox="0 0 246 1088" fill="none" xmlns="http://www.w3.org/2000/svg">
<g filter="url(#filter0_gn_607_577)">
<path fill-rule="evenodd" clip-rule="evenodd" d="M83.2772 137.136C79.7155 138.836 70.5638 141.238 62.4506 137.241C52.3091 132.246 44.4027 127.981 35.2504 112.738C26.0981 97.4949 3.5949 60.4986 2.06195 51.5998C0.528991 42.7011 -0.399829 35.5806 7.00804 29.6054C14.4159 23.6302 24.9878 25.5064 37.4175 41.6235C49.8471 57.7407 74.7063 89.9749 75.6049 91.1579C76.5035 92.3409 85.9503 106.989 88.397 120.039C90.3544 130.48 85.7994 135.787 83.2772 137.136ZM30.8251 32.4536C29.0732 29.2462 25.4153 21.7932 24.7991 17.6399C24.0288 12.4484 26.2187 4.27302 33.3472 1.86183C40.4757 -0.54936 50.7531 1.92206 60.4718 11.5215C68.2467 19.2011 91.8327 44.8609 102.654 56.7308C106.49 60.2245 114.652 69.822 116.609 80.2623C119.056 93.3128 118.64 99.401 114.049 103.432C109.458 107.463 95.6161 106.198 88.6009 101.631C82.9887 97.9785 65.3099 75.4753 57.172 64.6803L30.8251 32.4536ZM5.12024 38.6699C2.76421 43.432 5.92827 51.2834 7.28753 55.2844C8.94885 60.1745 16.245 67.3221 18.5165 69.3294C21.3558 71.8385 24.331 71.8235 27.9028 72.1023C30.7603 72.3253 32.6778 74.9479 33.2794 76.2314C27.7594 73.1421 23.0322 79.6974 23.6363 81.4757C24.2404 83.2539 25.7507 87.6995 30.8026 86.4864C34.8441 85.5159 36.3327 81.8072 36.5718 80.0742C36.8236 80.8151 37.2696 82.7129 37.0401 84.3766C36.7531 86.4562 34.684 89.1387 34.3971 91.2183C34.1101 93.2979 34.4273 97.1558 39.0412 97.5777C43.6551 97.9997 45.7166 93.8329 46.1546 92.1978C46.5926 90.5627 42.545 84.4971 41.9409 82.7189C41.4576 81.2963 42.8219 80.4383 43.5644 80.1872C46.2452 80.7673 45.8223 85.3712 50.8893 87.1268C55.9563 88.8824 58.4557 83.0805 57.8516 81.3023C57.2475 79.5241 53.2226 77.9116 49.5074 78.6726C46.5351 79.2815 45.0873 77.3591 44.7349 76.3218C48.4502 75.5607 54.2345 72.1173 53.4718 68.4101C52.7091 64.7029 49.7263 63.2336 45.7165 64.5899C42.5087 65.6749 41.1329 70.1055 40.8459 72.1851C39.396 67.9173 37.3471 66.76 36.5038 66.7148C38.7542 70.4144 40.2644 74.86 38.4823 75.4628C36.7002 76.0656 35.9451 73.8428 32.6602 71.4844C30.0323 69.5976 25.509 69.4424 23.5759 69.6007C24.2767 66.9846 33.7551 62.5229 38.4068 60.619C41.6614 57.0399 37.4477 47.561 32.8036 41.2016C28.1595 34.8421 17.8669 29.402 13.7061 30.3137C9.54533 31.2254 8.06528 32.7173 5.12024 38.6699ZM28.7863 11.8305C26.7806 15.2845 28.3835 20.3927 29.4357 22.515C32.1492 29.5275 40.0983 42.2037 47.8385 43.0551C56.0085 43.9538 60.9905 45.2151 62.4353 46.5438C60.3536 46.7522 55.7463 47.6168 53.9702 49.4071C51.7501 51.6449 52.3769 57.8763 56.8398 57.8537C60.4101 57.8356 65.1538 54.5458 67.0794 52.9032C66.0499 55.234 64.1737 60.726 64.9047 64.0473C65.8184 68.1991 72.1993 65.0495 73.8228 62.5177C75.1217 60.4923 72.3402 53.7672 70.7871 50.6578C77.7223 57.0353 80.9362 57.1378 81.6762 56.3918C87.0166 53.3959 86.4588 50.9742 85.5123 50.1379C81.6762 44.6946 75.9648 44.9413 73.5887 45.745C76.0127 44.5947 80.6779 41.4637 79.9469 38.1423C79.0332 33.9906 75.1593 32.8227 71.7461 34.4728C68.3329 36.123 67.7817 44.7354 67.7666 41.7666C67.7545 39.3916 64.2728 37.3311 62.5334 36.5977C63.4824 37.9288 65.5027 41.2437 65.992 43.8538C66.6037 47.1164 65.252 44.5997 59.1429 42.701C54.2556 41.1819 51.151 41.1086 50.2096 41.2618C56.3534 32.4429 61.7657 31.9009 63.7039 32.7323C64.0865 29.9594 64.0724 23.2895 60.9552 18.7927C57.0586 13.1717 48.2462 6.23958 41.8426 4.93606C35.439 3.63253 31.2933 7.51302 28.7863 11.8305Z" fill="white"/>
<path d="M40.3174 85.2506C41.4148 86.5316 43.417 89.5552 43.1874 91.2189C42.9005 93.2985 40.9749 94.9411 39.3362 94.5041C37.6976 94.0671 37.0935 92.2888 37.5314 90.6538C37.8818 89.3457 39.4314 86.5416 40.3174 85.2506Z" fill="white"/>
<path d="M35.0768 78.5973C33.4381 78.1603 29.8346 77.4957 28.5297 78.3336C26.8986 79.381 26.0151 81.1668 26.9137 82.3497C27.8124 83.5327 31.1333 84.8876 35.0768 78.5973Z" fill="white"/>
<path d="M43.8286 73.6544C43.8689 71.8234 44.3648 67.9218 46.0261 66.9634C48.1027 65.7653 50.3379 66.4962 50.942 68.2744C51.5461 70.0527 47.6949 73.3379 43.8286 73.6544Z" fill="white"/>
<path d="M48.4804 81.4982C49.1801 82.5833 51.3972 84.9724 52.8229 84.4902C54.605 83.8874 54.892 81.8077 51.6147 80.9337C48.9929 80.2345 48.3293 81.0537 48.4804 81.4982Z" fill="white"/>
<path d="M56.077 54.1465C55.6768 53.4558 55.3505 51.7157 57.2474 50.2811C59.1443 48.8464 62.6945 48.7691 64.2325 48.9097C64.089 49.9495 63.3278 52.3878 61.4309 53.8225C59.0598 55.6158 56.9756 55.3295 56.077 54.1465Z" fill="white"/>
<path d="M69.1866 55.1643C68.9953 56.5507 67.3219 59.8637 67.4191 61.2142C67.5933 63.6335 69.5109 62.9849 70.6964 62.0882C71.882 61.1916 72.479 59.0071 69.1866 55.1643Z" fill="white"/>
<path d="M73.1582 48.8645C74.9026 50.5875 78.9562 53.9415 81.2155 53.5738C84.0397 53.1141 83.1336 50.4468 79.7052 49.1282C76.9626 48.0733 74.1978 48.5128 73.1582 48.8645Z" fill="white"/>
<path d="M70.4548 43.8312C70.4447 41.852 70.8399 37.654 72.5012 36.6956C74.5778 35.4975 76.964 36.673 77.1226 38.6019C77.2812 40.5309 75.969 42.5169 70.4548 43.8312Z" fill="white"/>
<path d="M172.362 225.748L190.684 225.94L190.821 225.941L190.934 226.02C193.117 227.541 196.695 229.844 200.323 231.803C202.138 232.782 203.959 233.673 205.621 234.336C207.186 234.961 208.581 235.372 209.685 235.481L209.902 235.499L209.939 235.501L209.974 235.509C211.913 235.961 215.01 239.065 214.401 247.31C213.798 255.474 210.421 311.469 208.808 338.45L208.801 338.575L208.729 338.678C207.679 340.177 204.637 343.492 200.791 344.786C198.424 345.582 192.42 346.896 186.154 347.532C183.018 347.85 179.801 348 176.929 347.827C174.07 347.655 171.501 347.16 169.697 346.152L169.465 346.022L171.923 225.743L172.362 225.748Z" fill="white"/>
<path d="M164.637 232.364L164.759 232.495L163.498 342.146L157.632 346.754L155.14 232.479L155.137 232.323L159.374 226.768L164.637 232.364Z" fill="white"/>
<path d="M94.4477 240.482L94.4884 240.642L122.134 348.484L122.164 348.602L120.929 352.815L117.426 349.773L85.4524 244.926L85.5342 244.766L89.2757 237.492L89.5077 237.04L94.4477 240.482Z" fill="white"/>
<path d="M77.4082 245.869L77.4723 245.941L111.321 351.034L111.377 351.209L109.134 355.569L106.189 352.437L106.157 352.352L68.5815 248.937L68.694 248.755L73.2817 241.304L77.4082 245.869Z" fill="white"/>
<path d="M111.75 236.37L111.784 236.548L132.542 346.189L132.473 346.324L130.365 350.422L126.492 347.617L126.455 347.45L103.442 239.871L103.41 239.72L103.479 239.582L106.792 232.914L111.75 236.37Z" fill="white"/>
<path d="M130.73 234.012L130.871 234.126L130.891 234.307L143.324 343.496L143.338 343.608L143.295 343.713L141.672 347.701L136.858 345.173L120.502 236.689L120.479 236.539L124.656 229.105L130.73 234.012Z" fill="white"/>
<path d="M148.796 232.615L153.146 342.556L153.153 342.718L151.105 345.342L147.794 344.122L147.526 344.024L147.504 343.74L139.055 233.934L142.449 227.104L148.796 232.615Z" fill="white"/>
<path d="M101.999 359.6L101.604 359.763C98.9665 360.848 94.773 362.531 90.7627 364.058C86.7645 365.579 82.9131 366.959 80.9775 367.42C77.4625 368.258 75.5499 367.187 74.8535 366.163C72.4285 366.889 68.8245 367.917 65.4746 368.767C63.7194 369.212 62.0285 369.609 60.6123 369.889C59.2125 370.165 58.0333 370.335 57.3262 370.304C55.962 370.244 54.3147 369.769 52.8359 369.218C51.3486 368.663 49.9897 368.017 49.1875 367.588L49.042 367.51L48.9834 367.356L14.249 277.616L14.1846 277.45L16.5752 271.718L16.6182 271.614L16.7051 271.544L36.6006 255.404L36.6504 255.363L59.9814 245.612L101.999 359.6ZM70.2305 346.229C69.2938 345.449 68.0265 344.976 66.5508 345.328C65.101 345.674 64.0826 346.682 63.4883 347.809C62.8993 348.926 62.6954 350.217 62.9316 351.205C63.4982 353.571 65.9627 355.498 68.8223 354.816C70.2816 354.468 71.1971 353.474 71.6826 352.356C72.1626 351.251 72.2375 349.998 72.0088 349.042C71.7805 348.089 71.1559 347.001 70.2305 346.229ZM58.8633 340.733C57.9266 339.952 56.6585 339.479 55.1826 339.831C53.7329 340.177 52.7144 341.186 52.1201 342.312C51.5312 343.43 51.3271 344.721 51.5635 345.709C52.1301 348.075 54.5947 350.001 57.4541 349.319C58.9135 348.971 59.8299 347.977 60.3154 346.859C60.7953 345.754 60.8694 344.501 60.6406 343.545C60.4124 342.592 59.7885 341.505 58.8633 340.733ZM64.3721 329.39C63.4354 328.609 62.1672 328.137 60.6914 328.488C59.2416 328.834 58.2232 329.843 57.6289 330.97C57.04 332.087 56.8359 333.379 57.0723 334.366C57.6389 336.732 60.1035 338.658 62.9629 337.977C64.4222 337.629 65.3387 336.634 65.8242 335.517C66.3041 334.412 66.3782 333.158 66.1494 332.202C65.9211 331.249 65.2974 330.161 64.3721 329.39ZM52.1396 324.1C51.203 323.319 49.9347 322.846 48.459 323.197C47.0092 323.543 45.9908 324.552 45.3965 325.679C44.8075 326.796 44.6035 328.087 44.8398 329.075C45.4064 331.441 47.871 333.367 50.7305 332.686C52.1897 332.338 53.1063 331.344 53.5918 330.227C54.0718 329.122 54.1457 327.868 53.917 326.912C53.6888 325.959 53.0648 324.871 52.1396 324.1ZM57.6484 312.756C56.7118 311.975 55.4435 311.503 53.9678 311.854C52.518 312.2 51.4995 313.209 50.9053 314.336C50.3164 315.453 50.1125 316.744 50.3486 317.731C50.9151 320.097 53.3797 322.024 56.2393 321.343C57.6986 320.995 58.6151 320 59.1006 318.883C59.5804 317.778 59.6545 316.524 59.4258 315.568C59.1975 314.615 58.5738 313.527 57.6484 312.756ZM46.4873 308.122C45.5506 307.341 44.2826 306.869 42.8066 307.221C41.3568 307.566 40.3384 308.575 39.7441 309.702C39.1553 310.819 38.9512 312.11 39.1875 313.098C39.7539 315.464 42.2185 317.39 45.0781 316.709C46.5374 316.361 47.4529 315.367 47.9385 314.249C48.4184 313.144 48.4934 311.89 48.2646 310.935C48.0364 309.981 47.4127 308.894 46.4873 308.122ZM52.2021 297.642C51.2654 296.861 49.9974 296.388 48.5215 296.74C47.072 297.086 46.0543 298.094 45.46 299.221C44.8709 300.338 44.6669 301.63 44.9033 302.618C45.47 304.984 47.9337 306.91 50.793 306.229C52.2524 305.881 53.1678 304.886 53.6533 303.769C54.1333 302.663 54.2083 301.41 53.9795 300.454C53.7512 299.501 53.1275 298.413 52.2021 297.642ZM40.835 292.146C39.8983 291.365 38.6301 290.892 37.1543 291.243C35.7044 291.589 34.6851 292.598 34.0908 293.725C33.5018 294.842 33.2988 296.133 33.5352 297.121C34.1017 299.487 36.5662 301.413 39.4258 300.731C40.8848 300.383 41.8006 299.39 42.2861 298.272C42.7662 297.167 42.8411 295.913 42.6123 294.957C42.384 294.004 41.76 292.917 40.835 292.146ZM46.5498 281.665C45.6131 280.884 44.3451 280.412 42.8691 280.764C41.4194 281.109 40.4009 282.117 39.8066 283.244C39.2176 284.361 39.0136 285.653 39.25 286.641C39.8165 289.007 42.2811 290.933 45.1406 290.252C46.6001 289.904 47.5155 288.909 48.001 287.791C48.4809 286.686 48.556 285.432 48.3271 284.477C48.0988 283.523 47.475 282.437 46.5498 281.665ZM35.0596 277.565C34.1229 276.784 32.8548 276.311 31.3789 276.663C29.9291 277.009 28.9107 278.018 28.3164 279.145C27.7275 280.261 27.5236 281.552 27.7598 282.54C28.3262 284.906 30.7908 286.833 33.6504 286.151C35.1097 285.803 36.0252 284.809 36.5107 283.691C36.9907 282.586 37.0657 281.333 36.8369 280.377C36.6087 279.424 35.9848 278.337 35.0596 277.565Z" fill="white"/>
<path d="M179.85 151.074C186.579 145.421 192.791 149.532 193.826 149.532L202.108 105.849L243 109.96C240.93 121.609 236.375 147.168 234.718 156.213C232.648 167.52 227.989 171.117 221.26 171.631C214.531 172.145 208.837 163.922 214.531 156.213C219.086 150.046 226.781 151.245 230.06 152.616L234.718 124.35L204.179 121.78C203.316 126.748 201.176 139.562 199.52 151.074C197.449 165.464 190.72 168.033 183.474 168.033C176.227 168.033 173.121 156.727 179.85 151.074Z" fill="white"/>
<path fill-rule="evenodd" clip-rule="evenodd" d="M148.445 597.326C149.038 591.969 147.837 579.252 138.288 571.235C128.739 563.217 127.338 557.082 127.831 555.017L124.931 553.797C124.74 555.686 123.309 559.251 119.115 558.395C113.873 557.326 103.281 546.279 101.89 539.33C100.499 532.381 104.97 528.808 106.873 529.154C108.396 529.431 107.407 527.712 106.722 526.818C104.839 526.783 101.054 526.433 100.981 525.311C100.89 523.91 102.942 512.046 94.4662 504.616C85.9899 497.186 77.2574 493.058 65.3238 497.582L35.584 445.07L37.3966 444.015C38.0412 444.286 40.2616 444.506 42.11 444.18C45.3645 443.604 46.0035 441.229 43.6196 438.451C41.2357 435.673 40.7189 437.231 39.3745 438.256C38.2991 439.076 37.4866 440.568 37.2148 441.211C36.3186 441.894 34.5141 443.074 34.4656 442.327C34.4171 441.579 31.9772 437.795 30.7632 435.996C31.3372 435.177 32.6723 433.527 33.4216 433.479C34.3582 433.418 36.3829 435.634 37.2892 435.106C38.1955 434.578 41.7299 431.065 40.7024 429.724C39.6749 428.383 37.2121 426.665 35.3692 427.253C33.8949 427.723 33.3151 429.419 33.2095 430.208L29.6145 432.786L26.1546 430.194L26.1987 423.622C27.4273 423.23 28.0952 421.341 27.2732 420.268C26.2457 418.926 23.871 416.733 22.0584 417.789C21.8215 416.553 20.8794 414.111 19.0061 414.232C16.6646 414.383 13.4168 415.062 13.5683 417.398C13.6895 419.268 14.0926 420.649 14.279 421.107L14.3396 422.041C13.5389 421.78 11.9221 422.854 11.9706 423.602C12.0312 424.536 10.6218 427.564 13.7666 427.709C18.0116 427.904 16.8491 431.733 17.9069 433.542C18.7531 434.989 15.9033 436.487 14.3725 437.055C13.5516 436.482 11.7225 435.349 10.9732 435.397C10.0366 435.458 6.94026 438.473 7.00085 439.408C7.06145 440.342 10.1548 444.533 11.5695 444.593C12.9841 444.652 15.5515 440.732 15.5212 440.265C15.497 439.891 18.2402 438.682 19.6148 438.124L22.3405 443.897L19.163 445.661C18.4881 444.922 16.8573 443.464 15.7333 443.536C14.6094 443.609 12.6168 446.24 11.761 447.547C12.0282 449.25 12.9433 452.726 14.4661 453.003C16.3696 453.349 19.0886 451.766 20.2814 448.404L23.9369 446.76L50.6107 502.755C46.5126 507.243 38.3802 518.654 38.6357 528.398C38.9552 540.577 50.6188 546.394 51.7978 550.072C52.741 553.014 52.8666 556.885 52.8115 558.453L54.3073 559.764C55.3293 558.603 57.748 556.257 59.2465 556.16C61.1198 556.039 68.9156 560.228 71.078 571.82C73.2405 583.411 68.8907 588.854 64.6759 589.126L64.8274 591.462C66.1166 592.005 68.7375 593.744 68.9072 596.36C69.1193 599.631 69.9373 612.248 72.6122 617.237C75.287 622.226 88.2369 640.629 118.539 629.288C142.781 620.215 148.577 604.199 148.445 597.326ZM123.911 596.094C131.04 590.003 140.789 590.468 144.773 591.463C145.791 607.163 132.38 617.914 125.547 621.327C122.031 615.454 116.782 602.185 123.911 596.094ZM115.325 565.209C115.397 566.331 116.04 566.571 116.352 566.551C114.314 571.375 108.994 561.864 108.405 560.025C107.815 558.186 105.08 552.263 101.182 550.168C97.2839 548.074 93.689 550.652 94.7468 552.461C95.8046 554.269 97.1792 553.711 97.5869 552.746C97.9131 551.975 97.6622 551.49 97.496 551.345C99.339 550.756 103.263 555.343 105.127 560.237C107.394 566.191 111.881 570.124 115.628 569.882C119.374 569.64 119.132 565.902 118.572 564.53C118.013 563.159 115.234 563.807 115.325 565.209ZM78.9924 563.332C78.2189 563.006 78.6095 562.261 78.9015 561.93C74.1275 560.83 79.5378 571.743 81.0942 573.989C82.4288 575.914 85.0692 584.524 83.3778 587.449C81.6864 590.374 77.9096 590.148 76.8821 588.807C75.8546 587.466 76.67 585.536 78.5433 585.415C80.0418 585.318 79.8931 586.892 79.6314 587.691C79.6415 587.847 79.9305 587.953 81.006 587.133C82.3503 586.108 80.9592 579.159 78.8739 576.009C77.2177 573.507 73.3727 563.694 75.0945 561.237C76.8162 558.78 79.6563 559.066 81.1824 560.844C82.7085 562.623 79.9593 563.738 78.9924 563.332Z" fill="white"/>
<path fill-rule="evenodd" clip-rule="evenodd" d="M238.664 823.482C241.757 825.577 245.172 827.472 243.279 830.879C241.764 833.604 242.029 833.886 242.35 833.686L244.385 846.254L224.77 874.941C222.626 875.082 217.467 876.262 213.989 879.849C210.511 883.437 181.231 927.553 167.025 949.164C171.137 951.221 180.153 958.325 183.322 970.278C187.284 985.218 172.39 1000.71 170.337 1002.43C168.284 1004.15 158.381 1014.76 159.254 1024.04C160.127 1033.31 152.492 1062.59 140.578 1073.56C128.664 1084.52 106.304 1089.48 90.8707 1084.79C75.7503 1080.19 72.4287 1078.05 65.8923 1073.85L65.6358 1073.68C56.9721 1067.91 39.4261 1051.14 38.5511 1030.27C37.4576 1004.17 51.6712 986.873 68.9692 978.81C86.267 970.748 95.5601 966.316 99.6321 957.096C103.704 947.875 109.185 937.333 120.045 933.268C130.906 929.202 143.647 932.446 152.725 938.41L200.049 871.104C200.802 869.447 201.995 864.63 200.748 858.623C205.114 852.409 212.39 842.16 217.435 835.323C220.316 831.419 222.47 828.628 222.938 828.337C224.226 827.538 229.882 827.298 232.548 827.279C233.556 825.315 236.19 821.806 238.664 823.482ZM82.5941 1014.97L77.5608 1021.22L84.5497 1026.69L84.8672 1030.07L105.717 1043.45L108.292 1041.85L115.724 1046.6L119.512 1039.79L82.5941 1014.97ZM145.884 976.12C145.406 975.354 144.875 974.64 144.298 973.982C142.509 971.943 140.283 970.433 137.852 969.507C136.516 968.998 135.118 968.665 133.697 968.517C130.223 968.157 126.609 968.902 123.416 970.884C116.428 975.223 113.877 983.987 117.132 991.294C117.437 991.98 117.794 992.652 118.202 993.307C118.611 993.962 119.058 994.578 119.54 995.154C120.306 996.07 121.46 997.115 122.379 997.824C123.654 998.808 124.755 999.357 126.234 999.921C127.469 1000.39 128.964 1000.74 130.274 1000.9C133.846 1001.34 137.378 1000.59 140.67 998.543C147.99 993.999 150.649 984.625 146.661 977.13C146.484 976.798 146.087 976.445 145.884 976.12ZM224.614 838.898C224.069 837.452 222.807 837.194 222.244 837.246C219.669 838.845 210.862 851.451 206.78 857.555L205.554 873.486C212.134 862.56 225.157 840.346 224.614 838.898ZM236.744 848.321C235.862 846.192 233.772 845.705 232.284 846.182C231.093 846.565 216.78 866.665 209.772 876.668L221.318 870.838C226.754 864.042 237.448 850.026 236.744 848.321Z" fill="white"/>
<path d="M202.977 844.3C204.903 846.673 205.384 848.159 204.498 849.602C203.789 850.756 204.147 851.902 204.414 852.331C204.066 852.25 203.112 852.247 202.082 852.887C200.794 853.686 198.863 854.885 197.015 853.355C195.168 851.825 195.494 848.053 198.312 845.412C199.225 844.25 201.435 842.402 202.977 844.3Z" fill="white"/>
<path d="M209.26 835.045C211.187 837.418 211.668 838.904 210.781 840.347C210.072 841.501 210.43 842.647 210.698 843.076C210.119 842.721 208.902 843.299 208.365 843.632C207.078 844.431 205.146 845.63 203.299 844.1C201.451 842.57 201.777 838.798 204.595 836.156C205.508 834.995 207.719 833.146 209.26 835.045Z" fill="white"/>
<path d="M217.094 827.252C218.593 829.911 218.856 831.444 217.852 832.685C217.049 833.677 217.24 834.858 217.435 835.323C217.073 834.834 215.792 835.195 215.196 835.437C213.899 835.978 211.953 836.791 210.423 834.966C208.894 833.141 209.666 829.534 212.615 827.48C213.609 826.518 215.895 825.125 217.094 827.252Z" fill="white"/>
<path d="M132.381 791.659L128.796 793C122.523 773.329 127.9 765.281 134.173 758.575C140.446 751.869 152.991 753.657 159.264 753.657C164.282 753.657 168.823 749.484 170.465 747.398L169.569 745.163L171.81 739.798L179.427 743.821L176.738 748.292L173.602 749.186C170.465 754.551 163.745 756.786 152.991 756.786C142.238 756.786 138.205 758.128 132.381 767.516C127.721 775.027 130.439 786.741 132.381 791.659Z" fill="white"/>
<path d="M182.115 743.821L170.465 737.115L189.732 687.042C191.225 688.532 194.929 691.871 197.797 693.301C200.664 694.732 205.862 695.984 208.102 696.431L182.115 743.821Z" fill="white"/>
<path d="M208.998 694.195C205.414 694.195 195.001 690.06 190.628 684.807C187.492 669.159 197.349 662.006 204.07 661.112C210.791 660.217 221.096 664.688 221.544 674.971C221.992 685.254 213.479 694.195 208.998 694.195Z" fill="white"/>
<path d="M177.423 509.088C181.332 500.433 191.127 499.776 195.535 500.53L196.376 451.307L201.619 450C202.135 452.061 203.644 456.872 205.55 459.631C207.932 463.079 217.822 466.172 219.727 477.824C221.251 487.146 215.991 493.914 213.171 496.133C214.363 494.152 216.151 488.619 213.768 482.341C211.386 476.063 204.198 471.085 200.901 469.38C200.701 478.693 200.468 499.199 201.135 506.713C201.967 516.106 192.792 521.931 187.072 523.357C181.352 524.782 172.536 519.907 177.423 509.088Z" fill="white"/>
<path fill-rule="evenodd" clip-rule="evenodd" d="M55.3559 796.468C58.3114 795.433 65.1934 793.959 69.0768 796.34C73.931 799.316 78.481 805.176 77.7261 815.523C77.1222 823.801 69.6525 829.212 65.9931 830.883C67.2193 833.814 69.6949 841.16 69.7883 847.089C69.905 854.501 63.7811 862.49 56.9733 863.12C50.1654 863.75 45.1007 858.509 43.5978 854.651C42.0948 850.794 42.7034 845.028 48.2713 843.371C53.8393 841.713 56.0158 845.484 56.6873 847.73C57.5177 850.508 55.648 852.965 54.3769 853.654C61.7109 858.685 64.3255 849.878 64.6298 846.995C64.8732 844.689 63.0628 836.292 62.1272 832.382C55.7326 833.355 41.5984 833.14 36.218 824.503C29.4925 813.706 30.0369 801.095 33.5346 795.632C36.3328 791.263 42.1092 783.229 44.6477 779.759C42.6788 774.993 39.3611 765.975 40.2738 757.326C41.0854 749.636 46.3336 742.491 51.4395 742.019C56.5454 741.546 64.8507 750.054 64.0074 760.268C63.1999 770.049 56.3235 780.201 51.5722 786.541L55.3559 796.468ZM54.5484 806.249C48.489 810.007 49.7346 816.02 51.1148 818.557C47.2061 815.493 42.2311 806.703 51.5425 798.533L48.4314 789.686C44.6881 792.507 37.4542 800.865 38.4644 811.734C39.7271 825.32 55.4658 828.431 60.4664 826.826L54.5484 806.249ZM58.3618 804.183L64.3324 825.327C69.6899 821.405 71.8425 813.783 69.0997 808.899C66.9054 804.991 61.0268 804.127 58.3618 804.183ZM46.2627 760.197C46.1163 764.778 47.5391 771.879 48.1979 774.863C50.7364 771.393 56.1725 763.391 57.6091 759.147C59.4048 753.843 55.0652 750.248 52.2286 750.51C49.392 750.773 46.4091 755.616 46.2627 760.197Z" fill="white"/>
</g>
<defs>
<filter id="filter0_gn_607_577" x="0" y="0" width="245.385" height="1087.56" filterUnits="userSpaceOnUse" color-interpolation-filters="sRGB">
<feFlood flood-opacity="0" result="BackgroundImageFix"/>
<feBlend mode="normal" in="SourceGraphic" in2="BackgroundImageFix" result="shape"/>
<feTurbulence type="fractalNoise" baseFrequency="0.026666667312383652 0.026666667312383652" numOctaves="3" seed="3064" />
<feDisplacementMap in="shape" scale="2" xChannelSelector="R" yChannelSelector="G" result="displacedImage" width="100%" height="100%" />
<feMerge result="effect1_texture_607_577">
<feMergeNode in="displacedImage"/>
</feMerge>
<feTurbulence type="fractalNoise" baseFrequency="0.056818179786205292 0.056818179786205292" stitchTiles="stitch" numOctaves="3" result="noise" seed="8003" />
<feColorMatrix in="noise" type="luminanceToAlpha" result="alphaNoise" />
<feComponentTransfer in="alphaNoise" result="coloredNoise1">
<feFuncA type="discrete" tableValues="1 1 1 1 1 1 1 1 1 1 1 1 1 1 1 1 1 1 1 1 1 1 1 1 1 1 1 1 1 1 1 1 1 1 1 1 1 1 1 1 1 1 1 1 1 1 1 1 1 1 1 0 0 0 0 0 0 0 0 0 0 0 0 0 0 0 0 0 0 0 0 0 0 0 0 0 0 0 0 0 0 0 0 0 0 0 0 0 0 0 0 0 0 0 0 0 0 0 0 0 "/>
</feComponentTransfer>
<feComposite operator="in" in2="effect1_texture_607_577" in="coloredNoise1" result="noise1Clipped" />
<feFlood flood-color="rgba(0, 0, 0, 0.04)" result="color1Flood" />
<feComposite operator="in" in2="noise1Clipped" in="color1Flood" result="color1" />
<feMerge result="effect2_noise_607_577">
<feMergeNode in="effect1_texture_607_577" />
<feMergeNode in="color1" />
</feMerge>
</filter>
</defs>
</svg>
