<svg width="626" height="124" viewBox="0 0 626 124" fill="none" xmlns="http://www.w3.org/2000/svg">
<g filter="url(#filter0_d_292_1497)">
<path fill-rule="evenodd" clip-rule="evenodd" d="M23.4703 69.9933C22.3645 69.5326 20.54 68.1688 22.0881 66.3995C24.0232 64.1879 28.7228 62.5293 29.5521 61.4235C30.2156 60.5388 28.9071 28.8028 28.1699 13.0453C28.0778 12.4924 27.617 11.3314 26.5112 11.1102C25.129 10.8338 14.624 10.8338 13.5182 11.6631C12.4125 12.4924 9.0951 13.0453 8.26576 18.0214C7.43643 22.9974 4.39551 22.721 3.28973 21.6152C2.18394 20.5094 2.18394 8.62218 3.28973 6.13416C4.39551 3.64614 5.77775 2.26391 13.5182 2.26391C19.7106 2.26391 51.4836 2.63251 66.596 2.8168C67.7018 2.8168 69.9133 3.70143 69.9133 7.23995C69.9133 11.6631 70.1898 15.8098 70.4662 17.192C70.7427 18.5743 66.3195 20.7858 64.9373 18.5743C63.5551 16.3627 62.7257 11.6631 59.4084 10.8338C56.091 10.0044 45.586 9.72797 44.4803 13.0453C43.3745 16.3627 45.0331 55.8945 46.4154 59.7648C47.7976 63.635 53.3265 64.7408 56.3675 65.5702C59.4084 66.3995 58.579 69.4404 56.3675 69.4404C54.5982 69.4404 33.6988 69.809 23.4703 69.9933ZM13.2418 8.34573C8.81866 9.00921 7.34428 12.1238 7.15998 13.5982C10.2562 10.2809 12.8732 9.63582 13.7947 9.72797C14.237 8.62218 13.6104 8.34573 13.2418 8.34573ZM64.3844 8.62218C63.0575 7.5164 60.5142 7.97714 59.4084 8.34573C62.5046 8.56689 64.9373 11.0181 65.7666 12.216C65.8588 11.4788 65.7113 9.72797 64.3844 8.62218ZM30.9344 10.2809C29.8286 9.61739 29.5521 10.373 29.5521 10.8338C31.1002 11.7184 31.6716 14.3354 31.7637 15.5333C31.9849 19.7353 32.5931 47.8776 32.8695 61.4235C30.4368 63.8562 30.5658 64.833 30.9344 65.0173C34.4906 66.3442 35.1806 57.0925 35.0811 52.3007C34.7125 42.533 33.9753 22.1128 33.9753 18.5743C33.9753 14.1511 32.3166 11.1102 30.9344 10.2809Z" fill="url(#paint0_linear_292_1497)"/>
<path fill-rule="evenodd" clip-rule="evenodd" d="M74.4921 7.36934C74.0981 7.27738 73.452 6.7072 74.0193 5.16219C74.7285 3.23092 74.2557 2.95503 78.2746 2.95503H100.497C101.048 2.95503 102.057 3.39646 101.679 5.16219C101.3 6.92791 97.8961 10.864 96.2413 12.6113V29.4409C96.2413 30.0847 96.6195 31.3722 98.1325 31.3722H121.3C121.852 31.3722 122.955 30.9859 122.955 29.4409V18.681C122.955 17.1176 122.671 13.6597 121.537 12.3354C120.118 10.6801 112.553 8.19703 112.553 6.26577C112.553 4.3345 114.022 2.95503 122.153 2.95503H138.794C139.582 3.23092 141.205 4.16897 141.394 5.71398C141.631 7.64524 136.903 10.1283 135.957 12.8872C135.8 25.4864 135.721 52.0643 136.666 57.5822C136.903 58.6858 138.747 61.3344 144.231 63.1001C144.783 63.192 145.839 63.8726 145.65 65.859C145.413 68.3421 143.286 69.1698 136.194 69.1698H119.172C118.227 69.0778 116.477 68.3421 117.045 66.1349C117.612 63.9278 121.694 60.2492 123.664 58.6858V42.408C123.664 41.0285 123.144 38.1592 121.064 37.7178H98.6053C97.9749 37.9937 96.7141 39.042 96.7141 41.0285C96.7141 43.5115 96.2413 56.4786 98.6053 58.9617C100.969 61.4447 101.206 61.9965 105.461 63.9277C106.328 64.2956 107.778 65.5279 106.643 67.5144C105.225 69.9974 100.733 69.1698 97.8961 69.1698H80.6386C79.693 69.0778 77.8491 68.4524 78.0382 66.6867C78.2746 64.4795 81.8207 63.1001 83.4755 60.0652C83.8695 59.4215 84.6102 57.2511 84.4211 53.7196C84.232 50.1882 83.7119 26.1302 83.4755 14.5426C83.4755 13.3471 82.7663 10.5145 79.9294 8.74882C79.2201 8.47292 77.1396 7.81077 74.4921 7.36934ZM86.7851 13.439C86.596 9.68686 84.4999 8.74882 83.4755 8.74882C83.9483 9.66847 84.9885 12.0044 85.3667 13.9908C85.8395 16.4739 86.0759 25.8543 86.7851 38.5454C87.4944 51.2366 87.4943 58.134 85.6031 60.8929C84.0901 63.1001 84.4999 63.8358 84.8939 63.9277C86.3123 63.6519 88.44 62.8242 88.9128 56.4786C89.3856 50.133 87.0215 18.1292 86.7851 13.439ZM127.21 17.3016C126.974 10.1283 122.153 9.02471 122.009 9.02471C124.137 10.1283 125.083 14.5426 125.555 20.0605C126.028 25.5784 126.028 55.375 126.028 57.5822C126.028 59.7893 124.61 61.4447 123.664 62.2724C122.908 62.9345 123.822 63.5279 124.137 63.6199C126.974 62.5163 127.683 58.5618 127.683 56.7225C127.762 46.0546 127.399 23.0402 127.21 17.3016Z" fill="url(#paint1_linear_292_1497)"/>
<path fill-rule="evenodd" clip-rule="evenodd" d="M149.28 6.77368C148.589 5.66657 148.692 3.34461 154.642 2.91363C160.591 2.48264 189.837 3.16493 203.716 3.55996C204.906 3.47007 207.522 4.28596 208.466 8.2686C209.647 13.2469 210.228 20.4356 205.471 19.0443C200.715 17.653 201.912 13.7851 198.05 11.5661C197.159 10.8272 191.57 9.23164 178.718 10.9764C178.024 11.2516 176.925 15.5067 178.086 30.3265C180.267 30.6993 185.58 31.2254 189.389 30.348C190.975 30.1668 194.388 29.0306 195.346 25.9362C196.543 22.0682 199.815 21.798 200.7 25.3935L200.665 44.1918C200.762 45.1135 200.243 46.9002 197.388 46.6736C193.82 46.3904 195.909 42.2477 191.156 39.4741C186.402 36.7006 181.345 36.9674 179.262 37.7928C178.964 37.8844 178.369 38.2334 178.367 38.8969L178.336 55.4837C178.233 57.3264 178.801 61.0688 181.894 61.2958C185.76 61.5796 195.277 61.8742 199.146 60.4993C203.016 59.1245 209.869 52.7792 210.467 50.8452C211.066 48.9112 213.741 50.0221 213.736 52.2337C213.732 54.4453 213.718 61.6329 211.037 63.8393C208.356 66.0458 203.89 68.5253 198.238 69.0675C193.716 69.5012 174.148 68.2844 164.928 67.6218C164.034 68.6338 158.154 70.3238 153.397 68.9878C147.504 67.3325 151.549 64.3381 153.071 63.2114L156.062 62.4405C157.891 62.422 160.857 60.5021 161.979 54.6232L162.05 17.0265C162.052 16.0129 161.343 13.5419 158.491 11.7673C154.926 9.54889 149.43 8.43264 149.28 6.77368ZM162.066 8.73315C161.114 8.73134 161.866 9.65426 162.361 10.1159C162.955 10.67 164.32 12.4418 165.028 15.0971C165.914 18.4161 166.452 48.5499 166.145 53.5253C165.838 58.5008 164.647 59.0514 162.56 61.8119C160.89 64.0203 162.258 64.2072 163.151 64.0246C167.2 62.0419 168.021 57.4913 167.926 55.4638C167.851 42.655 167.524 16.4841 166.815 14.2711C165.928 11.505 163.256 8.73542 162.066 8.73315ZM195.934 29.5312C194.944 31.0582 191.268 32.471 189.383 33.1125C191.461 35.5401 194.736 33.6756 195.928 32.5721C197.12 31.4685 196.829 28.1506 195.934 29.5312ZM197.464 6.86542C196.75 7.08521 196.57 7.69306 196.57 7.9695C196.403 8.52208 198.056 8.24878 199.542 8.8045C201.028 9.36023 201.619 11.5729 202.807 12.4045C203.995 13.2361 204.592 12.4079 204.002 9.91878C203.412 7.42963 198.357 6.59067 197.464 6.86542ZM201.524 61.6096C200.81 61.8294 200.63 62.253 200.63 62.4373C200.629 63.1007 201.62 63.2685 202.116 63.2695C206.874 63.555 208.963 59.6887 209.859 58.0317C210.754 56.3747 208.971 55.542 208.374 56.9231C207.776 58.3042 202.417 61.3349 201.524 61.6096Z" fill="url(#paint2_linear_292_1497)"/>
<path fill-rule="evenodd" clip-rule="evenodd" d="M265.725 8.39077C263.802 8.01353 260.277 6.74977 261.559 4.71267C263.162 2.16629 266.687 2.73216 272.455 2.73216C278.224 2.73216 298.093 2.44923 299.054 3.29802C300.016 4.14681 301.297 6.12733 297.772 8.39077C294.247 10.6542 291.042 12.0689 291.042 15.464C291.042 18.1802 290.615 44.1344 290.401 56.7719C290.401 57.2435 290.53 58.3563 291.042 59.0354C291.683 59.8842 291.363 61.8647 297.772 61.5817C304.182 61.2988 308.989 61.8647 314.757 58.1866C320.526 54.5085 320.846 50.8304 323.41 50.5474C325.974 50.2645 325.974 53.3768 325.974 56.7719C325.974 60.1671 324.692 63.2793 321.487 66.1086C318.282 68.938 314.757 69.5038 293.606 69.5038C272.455 69.5038 266.687 70.0697 265.084 68.0892C263.482 66.1086 267.007 65.2598 270.212 62.1476C273.417 59.0354 273.417 57.9036 273.417 55.0743C273.417 52.8109 273.844 26.2154 274.057 13.2006C273.63 11.6916 271.366 8.61712 265.725 8.39077ZM274.057 7.82491C273.288 8.05125 274.592 9.42818 275.339 10.0884C276.878 10.7674 277.262 13.7665 277.262 15.1811C277.262 28.7618 277.198 56.3758 276.942 58.1866C276.621 60.45 276.301 59.8842 274.057 62.1476C271.814 64.411 273.417 64.4111 276.301 63.2793C278.608 62.374 279.399 57.8093 279.505 55.6402C279.719 44.323 280.146 20.8963 280.146 17.7275C280.146 13.7665 279.505 12.6347 278.544 10.9371C277.583 9.23956 275.019 7.54198 274.057 7.82491Z" fill="url(#paint3_linear_292_1497)"/>
<path fill-rule="evenodd" clip-rule="evenodd" d="M329.522 68.279C329.522 68.279 328.724 65.9175 330.095 64.3431C331.809 62.3752 335.413 61.8129 337.788 57.5959C339.688 54.2222 350.258 28.0766 355.305 15.4256C356.473 11.3022 359.271 2.94315 361.117 2.49334C363.423 1.93106 366.27 6.71036 368.67 12.8953C370.591 17.8433 383.446 47.1939 389.634 61.2506C390.081 61.5318 391.565 62.4314 393.92 63.7808C396.863 65.4677 396.751 68.279 394.719 69.1224H369.021C368.42 69.2161 367.296 68.8975 367.606 66.8733C367.992 64.3431 372.605 63.2186 373.511 60.6883C374.417 58.1581 370.934 51.1297 367.916 48.0373H350.525C349.647 49.4429 347.552 53.7162 346.197 59.5638C345.895 60.4072 345.77 62.3189 347.687 63.2186C350.082 64.3431 354.45 63.4997 354.887 66.8733C355.017 67.7167 354.659 69.4598 352.179 69.6847C349.698 69.9096 337.301 69.7784 331.413 69.6847C330.906 69.6847 330.071 68.8413 329.522 68.279ZM333.729 64.3431C333.129 64.7929 334.21 65.2802 334.826 65.4676C335.431 65.4676 337.144 65.1303 339.15 63.7808C341.658 62.094 340.687 58.4393 339.909 58.4393C339.13 58.4393 338.699 60.1261 337.504 62.094C336.31 64.062 334.478 63.7808 333.729 64.3431ZM352.879 38.4787C351.971 40.9526 353.714 41.1963 354.829 41.0089H361.318C364.433 41.0089 365.716 40.7277 365.643 39.3221C365.569 37.9164 359.93 24.4219 358.906 24.703C357.883 24.9842 354.015 35.3862 352.879 38.4787ZM361.119 17.3935C360.359 18.743 361.518 21.7043 361.933 23.0162C362.449 25.2653 374.205 49.1618 375.91 51.9731C377.614 54.7845 378.066 58.4393 377.664 60.6883C377.263 62.9374 374.682 63.2186 376.528 63.7808C378.375 64.3431 379.555 62.094 379.941 59.5638C380.328 57.0336 379.187 55.0656 378.305 53.0977C377.563 51.4431 370.108 35.3862 367.826 31.4503C365.543 27.5144 362.069 15.7067 361.119 17.3935Z" fill="url(#paint4_linear_292_1497)"/>
<path fill-rule="evenodd" clip-rule="evenodd" d="M444.337 69.3937C441.849 69.3937 436.907 68.7859 437.043 66.3546C437.214 63.3156 442.733 63.0393 444.028 60.5528C445.324 58.0663 445.838 33.2013 445.471 22.7027C445.104 12.2041 445.609 10.8227 443.626 9.44135C441.642 8.05996 435.818 7.5074 436.57 5.29718C437.322 3.08695 440.353 2.81067 443.394 2.81067H474.909C480.432 2.62649 491.75 5.35243 492.846 17.7297C493.073 21.5976 490.966 30.3832 480.718 34.5827C483.034 40.2003 488.991 52.9828 494.293 59.1714C494.869 59.816 496.132 61.1606 496.582 61.3816C497.145 61.6579 500.71 60.8291 501.549 61.1053C502.388 61.3816 503.008 63.3156 501.684 64.9732C500.359 66.6309 495.775 69.9463 490.504 69.3937C485.232 68.8411 479.156 61.1053 477.343 56.6849C475.53 52.2645 468.966 38.4505 466.173 37.6217C463.379 36.7929 460.081 37.3454 459.634 40.3845C459.277 42.8157 459.923 53.9221 460.29 59.1714C460.037 59.816 460.534 61.3816 464.553 62.4867C469.577 63.8681 470.047 69.3937 465.347 69.3937H444.337ZM445.478 62.4867C444.869 64.0339 446.711 63.4998 447.709 63.0393C448.503 62.0263 449.669 60.576 450.041 58.5868C450.508 56.1003 450.326 13.3092 449.46 10.2702C448.83 8.05996 446.58 6.95484 445.75 6.95484C444.921 6.95484 447.438 7.78368 447.908 13.3092C448.377 18.8348 447.905 52.817 447.992 55.3035C448.079 57.79 446.24 60.5528 445.478 62.4867ZM459.946 9.71762L459.249 29.3334C460.281 29.8859 463.289 31.0463 467.057 31.2673C471.766 31.5436 479.095 27.6757 478.902 22.1501C478.709 16.6246 476.629 12.4804 472.682 10.2702C469.524 8.502 462.875 9.16507 459.946 9.71762ZM476.523 9.44135C476.721 8.77828 477.336 8.98088 477.619 9.16507C479.932 9.44135 484.437 14.4144 484.611 19.3874C484.939 28.7849 478.114 31.2673 477.275 30.991C476.604 30.77 476.97 30.1622 477.237 29.8859C478.676 28.8729 481.632 25.9075 481.943 22.1501C482.332 17.4534 480.024 14.6906 478.574 12.7567C477.124 10.8227 476.275 10.2702 476.523 9.44135ZM470.252 35.6878C469.146 35.6878 469.461 36.7929 469.757 37.3454C471.565 38.4505 475.229 46.2784 476.835 50.0542C481.693 62.4867 489.301 66.6309 490.96 66.6309C492.619 66.6309 494.515 65.5258 493.371 64.4207C492.227 63.3156 490.311 63.8681 486.62 61.1053C483.668 58.8951 477.74 46.9231 475.144 41.2133C473.974 39.3715 471.358 35.6878 470.252 35.6878Z" fill="url(#paint5_linear_292_1497)"/>
<path fill-rule="evenodd" clip-rule="evenodd" d="M513.357 15.1442C513.049 14.0385 509.846 10.9428 506.975 9.61602C503.387 7.95757 504.18 3.99795 507.888 3.16872C510.855 2.50534 534.476 2.8923 545.496 3.16871C551.357 3.62939 561.995 7.75937 566.018 17.7101C567.791 21.3034 570.916 31.5135 567.564 47.2076C563.657 65.5054 546.172 69.4363 540.978 69.3937L507.888 69.1224C507.393 69.2145 506.561 67.7724 507.268 66.0034C508.153 63.7921 513.054 61.8573 513.381 58.5403C513.707 55.2234 514.215 26.2005 513.633 20.3959C513.328 17.3555 513.255 14.9599 513.357 15.1442ZM514.01 8.51037C513.21 8.51037 514.107 10.3531 514.655 11.2745C517.639 15.697 516.93 54.6706 516.603 57.9875C516.387 60.1857 512.934 64.3449 514.185 64.3449C515.436 64.3449 519.159 63.7921 519.406 49.4189C519.653 35.0456 518.36 15.1442 517.494 12.9329C516.627 10.7216 515.011 8.51037 514.01 8.51037ZM527.912 11.2745C526.958 12.159 526.804 17.1712 526.86 19.8431C526.831 32.0051 526.824 57.3241 526.916 59.0932C527.032 61.3044 530.592 62.4101 537.345 62.4101C544.099 62.4101 556.929 51.8205 556.931 38.9673C556.933 25.716 554.672 15.9734 546.215 12.1037C537.758 8.23397 529.105 10.1688 527.912 11.2745ZM552.805 13.7621C552.239 14.4255 554.019 16.2498 554.98 17.079C564.063 28.1354 558.851 46.9692 557.524 50.2861C556.197 53.603 550.678 59.0932 550.972 59.9224C551.265 60.7516 561.396 53.8009 562.037 41.4519C562.725 28.2006 560.845 23.9893 559.406 20.3959C557.967 16.8026 553.512 12.9329 552.805 13.7621Z" fill="url(#paint6_linear_292_1497)"/>
<path fill-rule="evenodd" clip-rule="evenodd" d="M618.025 24.9695C616.867 25.2437 614.253 25.2986 613.057 23.3242C611.562 20.8562 609.135 15.6459 603.965 12.3553C598.794 9.06461 590.319 7.96772 585.793 12.3553C581.268 16.7428 587.736 23.3242 591.709 24.1468C595.683 24.9695 615.09 30.1797 619.507 37.0353C623.923 43.8909 624.612 56.7793 615.657 63.9091C613.288 65.6458 606.294 69.1742 597.265 69.3936C585.979 69.6678 585.204 63.3607 577.431 65.5544C576.361 65.7373 574.167 65.6641 573.952 63.9091C573.736 62.1541 572.823 51.4777 572.393 46.3589C572.237 45.9018 572.687 44.8781 575.732 44.4393C579.537 43.8909 579.547 48.8269 582.171 53.2144C584.795 57.602 589.206 61.9895 599.369 62.2638C609.531 62.538 612.994 56.7793 611.494 51.8433C609.995 46.9073 596.18 41.1486 587.401 37.5837C578.623 34.0188 572.919 28.8086 573.691 18.1139C574.463 7.41927 587.954 0.837931 594.277 1.38638C600.6 1.93482 606.035 4.95127 609.609 4.95127C611.397 4.95127 613.657 2.97686 615.298 2.75749C617.349 2.48326 618.714 6.32238 620.072 22.2273C620.081 23.112 619.685 24.8991 618.025 24.9695ZM613.575 17.8397C613.364 18.0591 608.002 12.0811 605.348 9.06461C606.351 8.33335 607.429 9.03279 610.38 11.2266C613.914 13.8541 613.839 17.5655 613.575 17.8397ZM578.708 58.9731C579.607 61.4411 578.319 63.0864 578.021 63.0864C575.936 63.0864 576.431 62.2638 576.027 58.9731C575.703 56.3406 575.915 53.2144 576.511 53.2144C577.405 53.2144 577.989 56.9987 578.708 58.9731ZM582.125 31.0024C578.122 28.507 577.897 24.8781 578.467 23.0499C579.186 25.0244 582.023 28.137 583.128 29.051C604.439 42.4879 611.089 40.8426 613.713 45.2302C615.812 48.7402 614.257 48.4612 613.44 48.2784C610.945 45.4265 607.605 43.6166 606.246 43.0682C597.418 39.5033 586.964 34.0188 582.125 31.0024Z" fill="url(#paint7_linear_292_1497)"/>
<path fill-rule="evenodd" clip-rule="evenodd" d="M405.156 69.442C403.506 69.6294 400.246 69.5544 400.404 67.7551C400.602 65.5059 400.05 65.5059 403.037 64.1002C406.024 62.6945 408.459 61.2888 408.302 56.7905C408.177 53.1918 408.195 27.364 408.22 14.8999C408.177 13.6816 407.42 10.9639 404.731 9.83929C401.37 8.43357 397.762 7.87128 397.949 5.34097C398.137 2.81067 405.59 2.81067 407.798 2.81067H426.568C427.488 2.81067 429.452 3.20427 429.949 4.77868C430.569 6.7467 428.657 7.30899 425.729 10.4016C424.923 11.0576 423.226 13.0443 422.879 15.7433L422.597 55.1036C422.462 56.5093 422.697 59.5457 424.716 60.4453C427.239 61.5699 432.237 62.4134 432.611 65.2248C432.985 68.0362 431.635 68.8797 428.894 69.442C426.701 69.8918 412.155 69.6294 405.156 69.442ZM407.187 64.3814C405.681 65.5059 407.045 65.5671 408.063 65.7545C412.227 64.8548 413.065 61.4436 413.102 59.8504C413.317 44.9498 413.805 15.181 412.844 12.9319C411.641 10.1204 410.173 7.59013 408.517 7.59013C406.861 7.59013 407.491 9.83929 409.492 11.8073C411.093 13.3817 411.204 16.0245 411.059 17.149C411.057 30.2691 411.013 56.9591 410.855 58.7585C410.658 61.0076 409.07 62.9756 407.187 64.3814Z" fill="url(#paint8_linear_292_1497)"/>
<path d="M97.8961 69.1698H80.6386C79.693 69.0778 77.8491 68.4524 78.0382 66.6867C78.2746 64.4795 81.8207 63.1001 83.4755 60.0652C83.8695 59.4215 84.6102 57.2511 84.4211 53.7196C84.232 50.1882 83.7119 26.1302 83.4755 14.5426C83.4755 13.3471 82.7663 10.5145 79.9294 8.74882C79.2201 8.47292 77.1396 7.81077 74.4921 7.36934C74.0981 7.27738 73.452 6.7072 74.0193 5.16219C74.7285 3.23092 74.2557 2.95503 78.2746 2.95503M78.2746 2.95503C81.4897 2.95503 94.4289 2.95503 100.497 2.95503M78.2746 2.95503H100.497M100.497 2.95503C101.048 2.95503 102.057 3.39646 101.679 5.16219C101.3 6.92791 97.8961 10.864 96.2413 12.6113V29.4409C96.2413 30.0847 96.6195 31.3722 98.1325 31.3722M98.1325 31.3722C99.6455 31.3722 114.208 31.3722 121.3 31.3722M98.1325 31.3722H121.3M121.3 31.3722C121.852 31.3722 122.955 30.9859 122.955 29.4409M122.955 29.4409C122.955 27.8959 122.955 21.6239 122.955 18.681M122.955 29.4409V18.681M122.955 18.681C122.955 17.1176 122.671 13.6597 121.537 12.3354C120.118 10.6801 112.553 8.19703 112.553 6.26577C112.553 4.3345 114.022 2.95503 122.153 2.95503M122.153 2.95503C128.657 2.95503 135.957 2.95503 138.794 2.95503M136.194 69.1698C143.286 69.1698 145.413 68.3421 145.65 65.859C145.839 63.8726 144.783 63.192 144.231 63.1001C138.747 61.3344 136.903 58.6858 136.666 57.5822C135.721 52.0643 135.8 25.4864 135.957 12.8872C136.903 10.1283 141.631 7.64524 141.394 5.71398C141.205 4.16897 139.582 3.23092 138.794 2.95503H122.153M136.194 69.1698C130.52 69.1698 122.482 69.1698 119.172 69.1698M97.8961 69.1698C100.733 69.1698 105.225 69.9974 106.643 67.5144C107.778 65.5279 106.328 64.2956 105.461 63.9277C101.206 61.9965 100.969 61.4447 98.6053 58.9617C96.2413 56.4786 96.7141 43.5115 96.7141 41.0285C96.7141 39.0421 97.9749 37.9937 98.6053 37.7178H121.064C123.144 38.1592 123.664 41.0285 123.664 42.408V58.6858C121.694 60.2492 117.612 63.9278 117.045 66.1349C116.477 68.3421 118.227 69.0778 119.172 69.1698H136.194M97.8961 69.1698C95.6266 69.1698 85.4455 69.1698 80.6386 69.1698M178.367 38.8969C178.369 38.2334 178.964 37.8844 179.262 37.7928C181.345 36.9674 186.402 36.7006 191.156 39.4741C195.909 42.2477 193.82 46.3904 197.388 46.6736C200.243 46.9002 200.762 45.1135 200.665 44.1918L200.7 25.3935C199.815 21.798 196.543 22.0682 195.346 25.9362C194.388 29.0306 190.975 30.1668 189.389 30.348C185.58 31.2254 180.267 30.6993 178.086 30.3265C176.925 15.5067 178.024 11.2516 178.718 10.9764C191.57 9.23164 197.159 10.8272 198.05 11.5661C201.912 13.7851 200.715 17.653 205.471 19.0443C210.228 20.4356 209.647 13.2469 208.466 8.2686C207.522 4.28596 204.906 3.47007 203.716 3.55996C189.837 3.16493 160.591 2.48264 154.642 2.91363C148.692 3.34461 148.589 5.66657 149.28 6.77368C149.43 8.43264 154.926 9.54889 158.491 11.7673C161.343 13.5419 162.052 16.0129 162.05 17.0265M178.367 38.8969C178.366 39.5604 178.346 50.2312 178.336 55.4837M161.979 54.6232C160.857 60.5021 157.891 62.422 156.062 62.4405C154.59 62.4554 153.084 63.2014 153.071 63.2114C151.549 64.3381 147.504 67.3325 153.397 68.9878C158.154 70.3238 164.034 68.6337 164.928 67.6218C174.148 68.2844 193.716 69.5012 198.238 69.0675C203.89 68.5253 208.356 66.0458 211.037 63.8393C213.718 61.6329 213.732 54.4453 213.736 52.2337C213.741 50.0221 211.066 48.9112 210.467 50.8452C209.869 52.7792 203.016 59.1245 199.146 60.4993C195.277 61.8742 185.76 61.5796 181.894 61.2958C178.801 61.0688 178.233 57.3264 178.336 55.4837L178.367 38.8969M156.062 62.4405L153.071 63.2114M161.979 54.6232C162.765 50.5011 162.03 27.8079 162.05 17.0265M161.979 54.6232L162.05 17.0265M361.318 41.0089C358.826 41.0089 355.954 41.0089 354.829 41.0089C353.714 41.1963 351.971 40.9526 352.879 38.4787C354.015 35.3862 357.883 24.9842 358.906 24.703C359.93 24.4219 365.569 37.9164 365.643 39.3221C365.716 40.7277 364.433 41.0089 361.318 41.0089ZM354.829 41.0089H361.318M444.337 69.3937C441.849 69.3937 436.907 68.7859 437.043 66.3546C437.214 63.3156 442.733 63.0393 444.028 60.5528C445.324 58.0663 445.838 33.2013 445.471 22.7027C445.104 12.2041 445.609 10.8227 443.626 9.44135C441.642 8.05996 435.818 7.5074 436.57 5.29718C437.322 3.08695 440.353 2.81067 443.394 2.81067M444.337 69.3937C449.774 69.3937 461.587 69.3937 465.347 69.3937M444.337 69.3937H465.347M465.347 69.3937C470.047 69.3937 469.577 63.8681 464.553 62.4867C460.533 61.3816 460.037 59.816 460.29 59.1714C459.923 53.9221 459.277 42.8157 459.634 40.3845C460.081 37.3454 463.379 36.7929 466.173 37.6217C468.966 38.4505 475.53 52.2644 477.343 56.6849C479.156 61.1053 485.232 68.8411 490.504 69.3937C495.775 69.9462 500.359 66.6309 501.684 64.9732C503.008 63.3156 502.388 61.3816 501.549 61.1053C500.71 60.8291 497.145 61.6579 496.582 61.3816C496.132 61.1606 494.869 59.816 494.293 59.1714C488.991 52.9828 483.034 40.2003 480.718 34.5827C490.966 30.3832 493.073 21.5976 492.846 17.7297C491.75 5.35243 480.432 2.62649 474.909 2.81067C465.418 2.81067 445.827 2.81067 443.394 2.81067M443.394 2.81067H474.909M540.978 69.3937C536.831 69.3597 517.476 69.1224 507.888 69.1224C507.393 69.2145 506.561 67.7724 507.268 66.0034C508.153 63.7921 513.054 61.8572 513.381 58.5403C513.707 55.2234 514.215 26.2005 513.633 20.3959C513.328 17.3555 513.255 14.9599 513.357 15.1442C513.049 14.0385 509.846 10.9428 506.975 9.61602C503.387 7.95757 504.18 3.99795 507.888 3.16872C510.855 2.50534 534.476 2.8923 545.496 3.16871C551.357 3.62939 561.995 7.75937 566.018 17.7101C567.791 21.3034 570.916 31.5135 567.564 47.2076C563.657 65.5054 546.172 69.4363 540.978 69.3937ZM507.888 69.1224L540.978 69.3937M407.798 2.81067C405.59 2.81067 398.137 2.81067 397.949 5.34097C397.762 7.87128 401.37 8.43357 404.731 9.83929C407.42 10.9639 408.177 13.6816 408.22 14.8999C408.195 27.364 408.177 53.1918 408.302 56.7905C408.459 61.2888 406.024 62.6945 403.037 64.1002C400.05 65.5059 400.602 65.5059 400.404 67.7551C400.246 69.5544 403.506 69.6294 405.156 69.442C412.155 69.6294 426.701 69.8918 428.894 69.442C431.635 68.8797 432.985 68.0362 432.611 65.2248C432.237 62.4134 427.239 61.5699 424.716 60.4453C422.697 59.5457 422.462 56.5093 422.597 55.1036L422.879 15.7433C423.226 13.0443 424.923 11.0576 425.729 10.4016C428.657 7.30899 430.569 6.7467 429.949 4.77868C429.452 3.20427 427.488 2.81067 426.568 2.81067M407.798 2.81067C409.565 2.81067 421.047 2.81067 426.568 2.81067M407.798 2.81067H426.568M23.4703 69.9933C22.3645 69.5326 20.54 68.1688 22.0881 66.3995C24.0232 64.1879 28.7228 62.5293 29.5521 61.4235C30.2156 60.5388 28.9071 28.8028 28.1699 13.0453C28.0778 12.4924 27.617 11.3314 26.5112 11.1102C25.129 10.8338 14.624 10.8338 13.5182 11.6631C12.4125 12.4924 9.0951 13.0453 8.26576 18.0214C7.43643 22.9974 4.39551 22.721 3.28973 21.6152C2.18394 20.5094 2.18394 8.62218 3.28973 6.13416C4.39551 3.64614 5.77775 2.26391 13.5182 2.26391C19.7106 2.26391 51.4836 2.63251 66.596 2.8168C67.7018 2.8168 69.9133 3.70143 69.9133 7.23995C69.9133 11.6631 70.1898 15.8098 70.4662 17.192C70.7427 18.5743 66.3195 20.7858 64.9373 18.5743C63.5551 16.3627 62.7257 11.6631 59.4084 10.8338C56.091 10.0044 45.586 9.72797 44.4803 13.0453C43.3745 16.3627 45.0331 55.8945 46.4154 59.7648C47.7976 63.635 53.3265 64.7408 56.3675 65.5702C59.4084 66.3995 58.579 69.4404 56.3675 69.4404C54.5982 69.4404 33.6988 69.809 23.4703 69.9933ZM7.15998 13.5982C7.34428 12.1238 8.81866 9.00921 13.2418 8.34573C13.6104 8.34573 14.237 8.62218 13.7947 9.72797C12.8732 9.63582 10.2562 10.2809 7.15998 13.5982ZM59.4084 8.34573C60.5142 7.97714 63.0575 7.5164 64.3844 8.62218C65.7113 9.72797 65.8588 11.4788 65.7666 12.216C64.9373 11.0181 62.5046 8.56689 59.4084 8.34573ZM29.5521 10.8338C29.5521 10.373 29.8286 9.61739 30.9344 10.2809C32.3166 11.1102 33.9753 14.1511 33.9753 18.5743C33.9753 22.1128 34.7125 42.533 35.0811 52.3007C35.1806 57.0925 34.4906 66.3442 30.9344 65.0173C30.5658 64.833 30.4368 63.8562 32.8695 61.4235C32.5931 47.8776 31.9849 19.7353 31.7637 15.5333C31.6716 14.3354 31.1002 11.7184 29.5521 10.8338ZM83.4755 8.74882C84.4999 8.74882 86.596 9.68686 86.7851 13.439C87.0215 18.1292 89.3856 50.133 88.9128 56.4786C88.44 62.8242 86.3123 63.6519 84.8939 63.9277C84.4999 63.8358 84.0901 63.1001 85.6031 60.8929C87.4943 58.134 87.4944 51.2366 86.7851 38.5454C86.0759 25.8543 85.8395 16.4739 85.3667 13.9908C84.9885 12.0044 83.9483 9.66847 83.4755 8.74882ZM122.009 9.02471C122.153 9.02471 126.974 10.1283 127.21 17.3016C127.399 23.0402 127.762 46.0546 127.683 56.7225C127.683 58.5618 126.974 62.5163 124.137 63.6199C123.822 63.5279 122.908 62.9345 123.664 62.2724C124.61 61.4447 126.028 59.7893 126.028 57.5822C126.028 55.375 126.028 25.5784 125.555 20.0605C125.083 14.5426 124.137 10.1283 122.009 9.02471ZM162.361 10.1159C161.866 9.65426 161.114 8.73134 162.066 8.73315C163.256 8.73542 165.928 11.505 166.815 14.2711C167.524 16.4841 167.851 42.655 167.926 55.4638C168.021 57.4913 167.2 62.0419 163.151 64.0246C162.258 64.2072 160.89 64.0203 162.56 61.8119C164.647 59.0514 165.838 58.5008 166.145 53.5253C166.452 48.5499 165.914 18.4161 165.028 15.0971C164.32 12.4418 162.955 10.67 162.361 10.1159ZM189.383 33.1125C191.268 32.471 194.944 31.0582 195.934 29.5312C196.829 28.1506 197.12 31.4685 195.928 32.5721C194.736 33.6756 191.461 35.5401 189.383 33.1125ZM196.57 7.9695C196.57 7.69306 196.75 7.08521 197.464 6.86542C198.357 6.59067 203.412 7.42963 204.002 9.91878C204.592 12.4079 203.995 13.2361 202.807 12.4045C201.619 11.5729 201.028 9.36023 199.542 8.8045C198.056 8.24878 196.403 8.52208 196.57 7.9695ZM200.63 62.4373C200.63 62.253 200.81 61.8294 201.524 61.6096C202.417 61.3349 207.776 58.3042 208.374 56.9231C208.971 55.542 210.754 56.3747 209.859 58.0317C208.963 59.6887 206.874 63.555 202.116 63.2695C201.62 63.2685 200.629 63.1007 200.63 62.4373ZM265.725 8.39077C263.802 8.01353 260.277 6.74977 261.559 4.71267C263.162 2.16629 266.687 2.73216 272.455 2.73216C278.224 2.73216 298.093 2.44923 299.054 3.29802C300.016 4.14681 301.297 6.12733 297.772 8.39077C294.247 10.6542 291.042 12.0689 291.042 15.464C291.042 18.1802 290.615 44.1344 290.401 56.7719C290.401 57.2435 290.53 58.3563 291.042 59.0354C291.683 59.8842 291.363 61.8647 297.772 61.5817C304.182 61.2988 308.989 61.8647 314.757 58.1866C320.526 54.5085 320.846 50.8304 323.41 50.5474C325.974 50.2645 325.974 53.3768 325.974 56.7719C325.974 60.1671 324.692 63.2793 321.487 66.1086C318.282 68.9379 314.757 69.5038 293.606 69.5038C272.455 69.5038 266.687 70.0697 265.084 68.0892C263.482 66.1086 267.007 65.2598 270.212 62.1476C273.417 59.0354 273.417 57.9036 273.417 55.0743C273.417 52.8109 273.844 26.2154 274.057 13.2006C273.63 11.6916 271.366 8.61712 265.725 8.39077ZM275.339 10.0884C274.592 9.42818 273.288 8.05125 274.057 7.82491C275.019 7.54198 277.583 9.23956 278.544 10.9371C279.505 12.6347 280.146 13.7665 280.146 17.7275C280.146 20.8963 279.719 44.323 279.505 55.6402C279.399 57.8093 278.608 62.374 276.301 63.2793C273.417 64.4111 271.814 64.411 274.057 62.1476C276.301 59.8842 276.621 60.45 276.942 58.1866C277.198 56.3758 277.262 28.7618 277.262 15.1811C277.262 13.7665 276.878 10.7674 275.339 10.0884ZM329.522 68.279C329.522 68.279 328.724 65.9175 330.095 64.3431C331.808 62.3752 335.413 61.8129 337.788 57.5959C339.688 54.2222 350.258 28.0766 355.305 15.4256C356.473 11.3022 359.271 2.94315 361.117 2.49334C363.423 1.93106 366.27 6.71036 368.67 12.8953C370.591 17.8433 383.446 47.1939 389.634 61.2506C390.081 61.5318 391.565 62.4314 393.92 63.7808C396.863 65.4676 396.751 68.279 394.719 69.1224H369.021C368.42 69.2161 367.296 68.8975 367.606 66.8733C367.992 64.3431 372.605 63.2186 373.511 60.6883C374.417 58.1581 370.934 51.1297 367.916 48.0373H350.525C349.647 49.4429 347.552 53.7162 346.197 59.5638C345.895 60.4072 345.77 62.3189 347.687 63.2186C350.082 64.3431 354.45 63.4997 354.887 66.8733C355.017 67.7167 354.659 69.4598 352.179 69.6847C349.698 69.9096 337.301 69.7784 331.413 69.6847C330.906 69.6847 330.071 68.8413 329.522 68.279ZM334.826 65.4676C334.21 65.2802 333.129 64.7929 333.729 64.3431C334.478 63.7808 336.31 64.062 337.504 62.094C338.699 60.1261 339.13 58.4393 339.909 58.4393C340.687 58.4393 341.657 62.094 339.15 63.7808C337.144 65.1303 335.432 65.4676 334.826 65.4676ZM361.933 23.0162C361.518 21.7043 360.359 18.743 361.119 17.3935C362.069 15.7067 365.543 27.5144 367.826 31.4503C370.108 35.3862 377.563 51.4431 378.305 53.0977C379.187 55.0656 380.328 57.0336 379.941 59.5638C379.555 62.094 378.375 64.3431 376.528 63.7808C374.682 63.2186 377.263 62.9374 377.664 60.6883C378.066 58.4393 377.614 54.7845 375.91 51.9731C374.205 49.1618 362.449 25.2653 361.933 23.0162ZM447.709 63.0393C446.711 63.4998 444.869 64.0339 445.478 62.4867C446.24 60.5528 448.079 57.79 447.992 55.3035C447.905 52.817 448.377 18.8348 447.908 13.3092C447.438 7.78368 444.921 6.95484 445.75 6.95484C446.58 6.95484 448.83 8.05996 449.46 10.2702C450.326 13.3092 450.508 56.1003 450.041 58.5868C449.669 60.576 448.503 62.0263 447.709 63.0393ZM459.249 29.3334L459.946 9.71762C462.875 9.16507 469.524 8.502 472.682 10.2702C476.629 12.4804 478.709 16.6246 478.902 22.1501C479.095 27.6757 471.766 31.5436 467.057 31.2673C463.289 31.0463 460.281 29.8859 459.249 29.3334ZM477.619 9.16507C477.336 8.98088 476.721 8.77828 476.523 9.44135C476.275 10.2702 477.124 10.8227 478.574 12.7567C480.024 14.6906 482.332 17.4534 481.943 22.1501C481.632 25.9075 478.676 28.8729 477.237 29.8859C476.97 30.1622 476.604 30.77 477.275 30.991C478.114 31.2673 484.939 28.7849 484.611 19.3874C484.437 14.4144 479.932 9.44135 477.619 9.16507ZM469.757 37.3454C469.461 36.7929 469.146 35.6878 470.252 35.6878C471.358 35.6878 473.974 39.3715 475.144 41.2133C477.74 46.9231 483.668 58.8951 486.62 61.1053C490.311 63.8681 492.227 63.3156 493.371 64.4207C494.515 65.5258 492.619 66.6309 490.96 66.6309C489.301 66.6309 481.693 62.4867 476.835 50.0542C475.229 46.2784 471.565 38.4505 469.757 37.3454ZM514.655 11.2745C514.107 10.3531 513.21 8.51037 514.01 8.51037C515.011 8.51037 516.627 10.7216 517.494 12.9329C518.36 15.1442 519.653 35.0456 519.406 49.4189C519.159 63.7921 515.436 64.3449 514.185 64.3449C512.934 64.3449 516.387 60.1857 516.603 57.9875C516.93 54.6706 517.639 15.697 514.655 11.2745ZM526.86 19.8431C526.804 17.1712 526.958 12.159 527.912 11.2745C529.105 10.1688 537.758 8.23397 546.215 12.1037C554.672 15.9734 556.933 25.716 556.931 38.9673C556.929 51.8205 544.099 62.4101 537.345 62.4101C530.592 62.4101 527.032 61.3044 526.916 59.0932C526.824 57.3241 526.831 32.0051 526.86 19.8431ZM554.98 17.079C554.019 16.2498 552.239 14.4255 552.805 13.7621C553.512 12.9329 557.967 16.8026 559.406 20.3959C560.845 23.9893 562.725 28.2007 562.037 41.4519C561.396 53.8009 551.265 60.7516 550.972 59.9224C550.678 59.0932 556.197 53.603 557.524 50.2861C558.851 46.9692 564.063 28.1354 554.98 17.079ZM618.025 24.9695C616.867 25.2437 614.253 25.2986 613.057 23.3242C611.562 20.8562 609.135 15.6459 603.965 12.3553C598.794 9.06461 590.319 7.96772 585.793 12.3553C581.268 16.7428 587.736 23.3242 591.709 24.1468C595.683 24.9695 615.09 30.1797 619.507 37.0353C623.923 43.8909 624.612 56.7793 615.657 63.9091C613.288 65.6458 606.294 69.1742 597.265 69.3936C585.979 69.6678 585.204 63.3607 577.431 65.5544C576.361 65.7373 574.167 65.6641 573.952 63.9091C573.736 62.1541 572.822 51.4777 572.393 46.3589C572.237 45.9018 572.687 44.8781 575.732 44.4393C579.537 43.8909 579.547 48.8269 582.171 53.2144C584.795 57.602 589.207 61.9895 599.369 62.2638C609.531 62.538 612.994 56.7793 611.494 51.8433C609.995 46.9073 596.18 41.1486 587.401 37.5837C578.623 34.0188 572.919 28.8086 573.691 18.1139C574.463 7.41927 587.954 0.837931 594.277 1.38638C600.6 1.93482 606.035 4.95127 609.609 4.95127C611.397 4.95127 613.657 2.97686 615.298 2.75749C617.35 2.48326 618.715 6.32238 620.072 22.2273C620.081 23.112 619.685 24.8991 618.025 24.9695ZM605.348 9.06461C608.002 12.0811 613.364 18.0591 613.575 17.8397C613.839 17.5655 613.914 13.8541 610.38 11.2266C607.429 9.03279 606.351 8.33335 605.348 9.06461ZM578.021 63.0864C578.319 63.0864 579.607 61.4411 578.708 58.9731C577.989 56.9987 577.405 53.2144 576.511 53.2144C575.915 53.2144 575.703 56.3406 576.027 58.9731C576.431 62.2638 575.936 63.0864 578.021 63.0864ZM578.467 23.0499C577.897 24.8781 578.122 28.507 582.125 31.0024C586.964 34.0188 597.418 39.5033 606.246 43.0682C607.605 43.6166 610.945 45.4265 613.44 48.2784C614.257 48.4612 615.812 48.7402 613.713 45.2302C611.089 40.8426 604.439 42.4879 583.128 29.051C582.023 28.137 579.186 25.0244 578.467 23.0499ZM408.063 65.7545C407.045 65.5671 405.681 65.5059 407.187 64.3814C409.07 62.9756 410.658 61.0076 410.855 58.7585C411.013 56.9591 411.057 30.2691 411.059 17.149C411.204 16.0245 411.093 13.3817 409.492 11.8073C407.491 9.83929 406.861 7.59013 408.517 7.59013C410.173 7.59013 411.641 10.1204 412.844 12.9319C413.805 15.181 413.317 44.9498 413.102 59.8504C413.065 61.4436 412.227 64.8548 408.063 65.7545Z" stroke="black" stroke-width="0.829339"/>
</g>
<path d="M156.601 112.839C156.601 116.048 155.004 118.455 152.476 120.239C150.08 121.932 147.064 122.512 144.181 122.512C141.297 122.512 138.37 122.2 135.486 122.2C133.712 122.2 131.893 122.2 130.119 122.378C129.719 122.423 129.32 122.512 128.921 122.512C128.3 122.512 127.856 122.334 127.856 121.665C127.856 120.149 130.03 120.64 130.651 119.704C131.228 118.768 131.183 117.43 131.183 116.405V95.6769C131.183 94.2059 130.873 92.1553 129.098 91.8879C128.389 91.7987 126.348 91.7987 126.348 90.6843C126.348 89.6145 127.723 89.7928 128.433 89.7928C129.276 89.7928 130.119 89.9711 130.961 90.0157C132.292 90.1048 133.623 90.1048 134.954 90.1048C138.015 90.1048 141.075 89.7928 144.136 89.7928C148.75 89.7928 154.073 92.3336 154.073 97.5937C154.073 101.561 151.855 103.299 148.395 104.458C152.698 105.305 156.601 108.025 156.601 112.839ZM150.435 98.5298C150.435 96.8804 149.859 95.3648 148.883 94.0721C147.996 92.9131 146.532 91.7541 145.068 91.5313C144.491 91.4421 143.959 91.3975 143.382 91.3084L144.269 91.7096C147.33 93.0914 149.193 96.3455 149.193 99.6888C149.193 101.294 148.262 102.631 147.153 103.701C149.326 102.675 150.435 100.937 150.435 98.5298ZM148.35 99.4213C148.35 95.0082 144.935 91.8433 140.632 91.8433C137.748 91.8433 136.95 93.0469 136.95 95.8106V99.6442C136.95 100.759 137.039 102.765 138.103 103.433C139.035 104.013 141.209 104.057 142.273 104.057C145.423 104.057 148.35 103.121 148.35 99.4213ZM152.476 113.062C152.476 110.12 150.657 106.643 147.552 106.152L146.132 105.929L147.774 106.821C150.347 108.203 151.234 110.744 151.234 113.552C151.234 115.87 150.524 117.921 148.705 119.436L147.463 120.461C150.923 119.258 152.476 116.672 152.476 113.062ZM150.391 113.151C150.391 108.604 147.508 106.866 143.427 106.286C142.007 106.108 140.499 105.796 139.035 105.796C137.083 105.796 136.95 106.687 136.95 108.337V114.622C136.95 115.558 136.95 116.539 137.172 117.475C137.748 120.105 140.676 120.461 142.894 120.461C147.463 120.461 150.391 117.831 150.391 113.151ZM133.268 97.8611C133.268 96.8359 133.224 95.8106 133.179 94.7853C133.135 93.8492 133.002 92.6902 132.337 91.977C131.76 91.3975 130.296 91.353 129.542 91.353C131.405 92.2891 131.849 92.9577 131.937 95.0528C131.982 95.9889 132.026 96.925 132.026 97.8611V116.628C132.026 118.812 132.07 119.704 130.296 121.041C132.736 120.551 133.268 119.525 133.268 117.163V97.8611Z" fill="#351D17"/>
<path d="M180.387 120.149C180.387 121.531 177.149 122.869 175.951 122.869C174 122.869 173.245 121.487 172.447 119.971C170.229 121.754 168.455 122.869 165.483 122.869C162.023 122.869 159.849 121.487 159.849 117.787C159.849 112.304 164.773 111.858 168.943 111.011L172.137 110.343L172.092 108.381C172.048 106.197 170.761 103.567 168.277 103.567C166.104 103.567 166.015 104.726 165.882 106.554C165.216 106.732 161.668 107.846 161.18 107.846C160.647 107.846 160.559 107.178 160.559 106.776C160.559 105.484 161.135 104.458 162.067 103.612C163.886 102.007 166.991 101.739 169.298 101.739C173.6 101.739 177.105 103.389 177.194 108.203C177.194 108.961 177.238 109.674 177.238 110.432C177.238 113.195 177.149 115.959 177.238 118.723C177.282 119.436 177.681 119.927 178.391 119.927C178.924 119.927 179.323 119.57 179.855 119.57C180.254 119.57 180.387 119.793 180.387 120.149ZM175.774 122.066C174.621 120.863 174.221 119.213 174.221 117.564V110.209C174.221 108.247 173.911 104.726 171.693 103.924C171.294 103.79 170.894 103.656 170.495 103.522L171.56 104.637C173.024 106.152 172.935 108.247 172.935 110.253V117.519C172.935 119.837 173.512 121.219 175.774 122.066ZM164.728 102.987C162.599 103.834 161.712 104.414 161.357 106.776L162.644 106.464C163.176 104.548 163.398 104.458 164.728 102.987ZM172.137 116.138V112.126C169.431 112.839 165.172 113.686 165.172 117.297C165.172 119.124 166.237 119.927 167.967 119.927C170.318 119.927 172.137 118.634 172.137 116.138ZM165.039 122.155C163.087 120.907 161.889 120.105 161.889 117.564C161.889 115.469 162.865 114.265 164.241 112.883C161.801 113.953 160.647 115.023 160.647 117.787C160.647 120.64 162.289 121.977 165.039 122.155Z" fill="#351D17"/>
<path d="M199.93 104.146C199.93 104.681 198.422 107.222 198.156 107.668C198.067 107.846 197.668 108.292 197.446 108.292C196.692 108.292 195.051 106.063 193.454 106.063C192.256 106.063 190.836 107.311 190.792 108.515C190.792 108.827 190.748 109.139 190.748 109.451V115.736C190.748 117.118 190.703 119.882 192.256 120.372L193.809 120.863C194.163 120.952 194.518 121.264 194.518 121.665C194.518 122.378 193.631 122.512 193.099 122.512C192.655 122.512 192.167 122.423 191.724 122.378C190.615 122.289 189.461 122.2 188.308 122.2C186.844 122.2 185.38 122.512 183.916 122.512C183.562 122.512 183.207 122.378 183.029 122.066C183.029 121.977 182.985 121.799 182.985 121.71C182.985 121.442 183.074 120.996 183.384 120.863L184.804 120.283C185.425 120.016 185.602 119.302 185.602 118.678C185.602 117.653 185.646 116.628 185.646 115.603V107.891C185.646 104.681 182.408 106.197 182.408 104.904C182.408 104.815 182.453 104.726 182.497 104.637C182.852 104.325 183.029 104.236 183.473 104.146C186.445 103.433 186.578 103.433 189.195 102.007C189.373 101.918 189.772 101.739 189.949 101.739C190.038 101.739 190.215 101.784 190.304 101.784C190.792 102.096 190.659 103.255 190.659 103.701V105.484C191.724 104.325 193.72 101.739 195.583 101.739C196.603 101.739 199.93 103.032 199.93 104.146ZM197.668 105.84C196.692 105.083 195.627 104.28 194.297 104.28C193.01 104.28 192.522 104.904 191.768 105.84C192.345 105.573 192.877 105.35 193.542 105.35C194.829 105.35 195.893 106.375 196.869 107.088L197.668 105.84ZM187.687 107.802C187.687 106.554 187.376 104.815 185.78 104.815C185.292 104.815 184.804 104.949 184.316 105.083C186.134 105.573 186.356 106.108 186.401 107.935C186.401 108.56 186.445 109.184 186.445 109.808V118.411C186.445 119.704 186.001 120.372 184.937 121.086C186.223 120.996 187.332 120.595 187.554 119.213C187.731 118.188 187.687 117.074 187.687 116.093V107.802Z" fill="#351D17"/>
<path d="M228.202 121.62C228.202 122.334 227.714 122.512 227.093 122.512C226.428 122.512 225.762 122.423 225.097 122.334C224.165 122.2 223.278 122.2 222.347 122.2C221.504 122.2 220.705 122.2 219.863 122.289C219.064 122.378 218.266 122.512 217.467 122.512C216.935 122.512 216.669 122.245 216.669 121.71C216.669 120.952 217.822 120.64 218.354 120.417C219.108 120.06 219.286 118.857 219.286 118.099C219.286 117.297 219.33 116.494 219.33 115.692V111.947C219.33 108.916 218.975 104.592 215.027 104.592C213.608 104.592 211.612 105.617 211.035 106.999C210.769 107.668 210.724 108.693 210.724 109.406V118.054C210.724 120.194 212.233 120.417 213.918 120.863C214.318 120.952 214.495 121.175 214.495 121.576C214.495 122.378 214.007 122.512 213.297 122.512C212.588 122.512 211.878 122.423 211.168 122.334C210.237 122.2 209.305 122.2 208.373 122.2C207.619 122.2 206.821 122.2 206.067 122.289C205.357 122.378 204.603 122.512 203.893 122.512C203.272 122.512 202.962 122.244 202.962 121.62C202.962 120.952 204.026 120.729 204.514 120.551C205.401 120.239 205.534 118.901 205.534 118.099C205.534 117.297 205.579 116.494 205.579 115.692V109.808C205.579 109.184 205.534 108.515 205.534 107.891C205.534 106.999 205.268 105.974 204.248 105.751C203.716 105.617 202.474 105.662 202.385 104.904C202.429 104.815 202.429 104.726 202.474 104.637C202.607 104.369 203.228 104.191 203.494 104.146C206.022 103.567 206.91 103.255 209.216 102.007C209.394 101.918 209.793 101.739 209.97 101.739C210.059 101.739 210.192 101.784 210.281 101.784L210.503 101.918C210.769 102.363 210.724 104.102 210.724 104.637L211.656 103.834C213.12 102.586 215.604 101.739 217.511 101.739C223.544 101.739 224.432 107.133 224.432 111.992C224.432 113.998 224.432 116.048 224.476 118.054C224.565 121.531 228.202 120.06 228.202 121.62ZM221.371 118.054V111.903C221.371 111.1 221.326 110.343 221.282 109.54C221.193 106.91 220.084 103.924 216.979 103.924C216.624 103.924 216.314 103.968 215.959 103.968L216.802 104.325C219.996 105.662 220.129 108.872 220.129 111.903V118.099C220.129 119.347 219.996 119.927 219.02 120.729C220.705 120.461 221.371 119.927 221.371 118.054ZM207.664 118.054V107.802C207.664 106.554 207.353 104.815 205.756 104.815C205.268 104.815 204.78 104.949 204.337 105.083C205.978 105.528 206.422 106.108 206.422 107.846V118.099C206.422 119.704 206.111 120.283 204.825 121.13H205.446C207.176 121.13 207.664 119.525 207.664 118.054Z" fill="#351D17"/>
<path d="M277.786 105.751C277.786 109.808 276.589 113.285 274.016 116.45C270.999 120.194 266.386 122.512 261.595 122.512C258.623 122.512 255.651 122.2 252.679 122.2C250.816 122.2 248.908 122.2 247.045 122.334C246.557 122.378 246.069 122.512 245.581 122.512C244.96 122.512 244.65 122.244 244.65 121.62C244.65 120.595 246.158 120.372 246.912 120.105C248.066 119.659 247.977 117.341 247.977 116.405V95.6769C247.977 90.1048 243.142 92.7348 243.142 90.7289C243.142 89.6145 244.517 89.7928 245.227 89.7928C246.025 89.7928 246.912 89.9265 247.711 89.9711C249.086 90.0602 250.505 90.1048 251.88 90.1048C254.853 90.1048 257.869 89.7928 260.841 89.7928C262.837 89.7928 264.789 90.1494 266.652 90.7289C273.572 92.8686 277.786 98.4406 277.786 105.751ZM273.661 107.401C273.661 101.65 271.088 94.9637 265.765 92.2445C264.079 91.353 262.083 91.1301 260.176 91.0409C261.817 91.353 263.68 91.7987 265.1 92.7348C269.89 95.8552 272.419 101.784 272.419 107.401C272.419 111.769 270.733 116.316 267.14 118.99C266.031 119.837 264.479 120.372 263.148 120.773C264.967 120.684 266.83 120.372 268.338 119.302C270.6 117.653 272.286 114.666 273.084 111.992C273.528 110.521 273.661 108.961 273.661 107.401ZM271.576 107.222C271.576 101.294 268.116 94.295 262.172 92.4228C260.797 91.977 259.333 91.8433 257.869 91.8433C255.074 91.8433 253.744 92.7348 253.744 95.6769V114.533C253.744 115.291 253.832 116.093 253.877 116.851C254.098 120.461 256.716 120.461 259.643 120.461C267.451 120.461 271.576 114.577 271.576 107.222ZM250.062 116.94V97.8611C250.062 96.8359 250.017 95.8106 250.017 94.7853C250.017 93.8047 249.84 92.5565 249.041 91.8433C248.42 91.3084 246.823 91.2192 246.025 91.2192C248.11 92.0662 248.642 92.7794 248.731 95.0528C248.775 95.9889 248.82 96.925 248.82 97.8611V116.628C248.82 118.634 248.775 119.793 247.09 121.041C249.618 120.506 250.062 119.347 250.062 116.94Z" fill="#351D17"/>
<path d="M301.943 120.149C301.943 121.531 298.705 122.869 297.507 122.869C295.555 122.869 294.801 121.487 294.003 119.971C291.785 121.754 290.01 122.869 287.038 122.869C283.578 122.869 281.405 121.487 281.405 117.787C281.405 112.304 286.328 111.858 290.498 111.011L293.692 110.343L293.648 108.381C293.603 106.197 292.317 103.567 289.833 103.567C287.659 103.567 287.57 104.726 287.437 106.554C286.772 106.732 283.223 107.846 282.735 107.846C282.203 107.846 282.114 107.178 282.114 106.776C282.114 105.484 282.691 104.458 283.622 103.612C285.441 102.007 288.546 101.739 290.853 101.739C295.156 101.739 298.66 103.389 298.749 108.203C298.749 108.961 298.793 109.674 298.793 110.432C298.793 113.195 298.705 115.959 298.793 118.723C298.838 119.436 299.237 119.927 299.947 119.927C300.479 119.927 300.878 119.57 301.411 119.57C301.81 119.57 301.943 119.793 301.943 120.149ZM297.33 122.066C296.176 120.863 295.777 119.213 295.777 117.564V110.209C295.777 108.247 295.466 104.726 293.249 103.924C292.849 103.79 292.45 103.656 292.051 103.522L293.115 104.637C294.579 106.152 294.491 108.247 294.491 110.253V117.519C294.491 119.837 295.067 121.219 297.33 122.066ZM286.284 102.987C284.155 103.834 283.268 104.414 282.913 106.776L284.199 106.464C284.731 104.548 284.953 104.458 286.284 102.987ZM293.692 116.138V112.126C290.986 112.839 286.728 113.686 286.728 117.297C286.728 119.124 287.792 119.927 289.522 119.927C291.873 119.927 293.692 118.634 293.692 116.138ZM286.595 122.155C284.643 120.907 283.445 120.105 283.445 117.564C283.445 115.469 284.421 114.265 285.796 112.883C283.356 113.953 282.203 115.023 282.203 117.787C282.203 120.64 283.844 121.977 286.595 122.155Z" fill="#351D17"/>
<path d="M330.047 121.62C330.047 122.334 329.559 122.512 328.938 122.512C328.273 122.512 327.607 122.423 326.942 122.334C326.01 122.2 325.123 122.2 324.192 122.2C323.349 122.2 322.55 122.2 321.708 122.289C320.909 122.378 320.111 122.512 319.312 122.512C318.78 122.512 318.514 122.245 318.514 121.71C318.514 120.952 319.667 120.64 320.199 120.417C320.953 120.06 321.131 118.857 321.131 118.099C321.131 117.297 321.175 116.494 321.175 115.692V111.947C321.175 108.916 320.82 104.592 316.872 104.592C315.453 104.592 313.457 105.617 312.88 106.999C312.614 107.668 312.57 108.693 312.57 109.406V118.054C312.57 120.194 314.078 120.417 315.763 120.863C316.163 120.952 316.34 121.175 316.34 121.576C316.34 122.378 315.852 122.512 315.142 122.512C314.433 122.512 313.723 122.423 313.013 122.334C312.082 122.2 311.15 122.2 310.218 122.2C309.464 122.2 308.666 122.2 307.912 122.289C307.202 122.378 306.448 122.512 305.738 122.512C305.117 122.512 304.807 122.244 304.807 121.62C304.807 120.952 305.871 120.729 306.359 120.551C307.246 120.239 307.379 118.901 307.379 118.099C307.379 117.297 307.424 116.494 307.424 115.692V109.808C307.424 109.184 307.379 108.515 307.379 107.891C307.379 106.999 307.113 105.974 306.093 105.751C305.561 105.617 304.319 105.662 304.23 104.904C304.274 104.815 304.274 104.726 304.319 104.637C304.452 104.369 305.073 104.191 305.339 104.146C307.867 103.567 308.755 103.255 311.061 102.007C311.239 101.918 311.638 101.739 311.815 101.739C311.904 101.739 312.037 101.784 312.126 101.784L312.348 101.918C312.614 102.363 312.57 104.102 312.57 104.637L313.501 103.834C314.965 102.586 317.449 101.739 319.357 101.739C325.389 101.739 326.277 107.133 326.277 111.992C326.277 113.998 326.277 116.048 326.321 118.054C326.41 121.531 330.047 120.06 330.047 121.62ZM323.216 118.054V111.903C323.216 111.1 323.171 110.343 323.127 109.54C323.038 106.91 321.929 103.924 318.824 103.924C318.469 103.924 318.159 103.968 317.804 103.968L318.647 104.325C321.841 105.662 321.974 108.872 321.974 111.903V118.099C321.974 119.347 321.841 119.927 320.865 120.729C322.55 120.461 323.216 119.927 323.216 118.054ZM309.509 118.054V107.802C309.509 106.554 309.198 104.815 307.601 104.815C307.113 104.815 306.625 104.949 306.182 105.083C307.823 105.528 308.267 106.108 308.267 107.846V118.099C308.267 119.704 307.956 120.283 306.67 121.13H307.291C309.021 121.13 309.509 119.525 309.509 118.054Z" fill="#351D17"/>
<path d="M352.222 117.609C352.222 118.188 351.778 118.589 351.423 118.99C351.068 119.392 350.669 119.748 350.226 120.06C347.919 121.888 345.302 122.869 342.33 122.869C336.385 122.869 332.615 118.768 332.615 112.883C332.615 106.42 337.761 101.695 344.104 101.739H344.193C346.721 101.739 349.205 102.453 350.492 104.86C350.669 105.172 351.068 105.84 351.068 106.197C351.068 106.464 350.98 106.643 350.758 106.821C350.27 107.222 347.963 108.872 347.431 108.872C347.209 108.872 347.032 108.782 346.899 108.604C346.677 108.292 346.499 107.802 346.411 107.445C345.923 105.84 344.326 103.567 342.463 103.567C339.18 103.567 337.938 107.623 337.938 110.298C337.938 114.488 340.2 119.436 344.991 119.436C346.411 119.436 347.786 119.124 348.984 118.322C349.605 117.921 350.847 116.895 351.601 116.895C352.044 116.895 352.222 117.163 352.222 117.609ZM348.673 106.955C348.096 106.019 347.564 105.216 346.81 104.458C346.145 103.834 344.902 102.943 343.971 102.943H342.684C345.523 103.567 346.189 105.261 347.298 107.713L348.673 106.955ZM340.866 122.022L339.668 121.264C336.518 119.302 334.7 116.405 334.7 112.616C334.7 109.852 335.543 107.311 337.406 105.261L338.692 103.834C338.204 104.146 337.716 104.458 337.228 104.77C336.252 105.395 335.276 106.821 334.744 107.846C333.901 109.451 333.458 111.234 333.458 113.062C333.458 116.851 335.454 120.64 339.313 121.62L340.866 122.022Z" fill="#351D17"/>
<path d="M374.002 117.564C374.002 118.099 372.583 119.436 372.228 119.793C370.143 121.754 367.348 122.869 364.509 122.869C358.565 122.869 354.972 118.768 354.972 112.928C354.972 111.368 355.194 109.763 355.771 108.292C357.279 104.503 361.138 101.739 365.219 101.739C368.59 101.739 371.252 103.389 372.805 106.42C373.204 107.222 373.781 108.47 373.781 109.362C373.781 110.164 373.293 110.476 372.538 110.476C368.28 110.521 363.977 110.521 359.719 110.521C360.206 114.845 361.848 119.436 366.905 119.436C369.3 119.436 370.587 118.5 372.405 117.118C372.672 116.94 372.938 116.806 373.248 116.806C373.559 116.806 373.825 117.029 373.958 117.297C373.958 117.386 374.002 117.475 374.002 117.564ZM370.498 108.738C370.454 108.292 370.454 107.846 370.409 107.401C370.276 105.929 368.457 103.656 366.993 103.344C366.683 103.299 366.328 103.21 366.018 103.166C367.437 104.013 368.945 105.528 369.123 107.267C369.167 107.757 369.212 108.247 369.256 108.738H370.498ZM368.457 107.802C368.457 105.662 366.284 103.567 364.199 103.567C361.271 103.567 359.94 106.152 359.719 108.738H367.038C367.615 108.738 368.457 108.515 368.457 107.802ZM363.267 122.066C359.231 119.347 357.057 117.297 357.057 112.126C357.057 108.693 358.122 107.088 359.94 104.325C357.234 106.732 355.771 109.228 355.771 112.928C355.771 116.806 357.9 120.417 361.67 121.576L363.267 122.066Z" fill="#351D17"/>
<path d="M420.289 112.839C420.289 116.048 418.693 118.455 416.164 120.239C413.769 121.932 410.752 122.512 407.869 122.512C404.985 122.512 402.058 122.2 399.174 122.2C397.4 122.2 395.581 122.2 393.807 122.378C393.408 122.423 393.008 122.512 392.609 122.512C391.988 122.512 391.544 122.334 391.544 121.665C391.544 120.149 393.718 120.64 394.339 119.704C394.916 118.768 394.871 117.43 394.871 116.405V95.6769C394.871 94.2059 394.561 92.1553 392.787 91.8879C392.077 91.7987 390.036 91.7987 390.036 90.6843C390.036 89.6145 391.411 89.7928 392.121 89.7928C392.964 89.7928 393.807 89.9711 394.65 90.0157C395.98 90.1048 397.311 90.1048 398.642 90.1048C401.703 90.1048 404.764 89.7928 407.824 89.7928C412.438 89.7928 417.761 92.3336 417.761 97.5937C417.761 101.561 415.543 103.299 412.083 104.458C416.386 105.305 420.289 108.025 420.289 112.839ZM414.123 98.5298C414.123 96.8804 413.547 95.3648 412.571 94.0721C411.684 92.9131 410.22 91.7541 408.756 91.5313C408.179 91.4421 407.647 91.3975 407.07 91.3084L407.957 91.7096C411.018 93.0914 412.881 96.3455 412.881 99.6888C412.881 101.294 411.95 102.631 410.841 103.701C413.014 102.675 414.123 100.937 414.123 98.5298ZM412.039 99.4213C412.039 95.0082 408.623 91.8433 404.32 91.8433C401.437 91.8433 400.638 93.0469 400.638 95.8106V99.6442C400.638 100.759 400.727 102.765 401.792 103.433C402.723 104.013 404.897 104.057 405.961 104.057C409.111 104.057 412.039 103.121 412.039 99.4213ZM416.164 113.062C416.164 110.12 414.345 106.643 411.24 106.152L409.821 105.929L411.462 106.821C414.035 108.203 414.922 110.744 414.922 113.552C414.922 115.87 414.212 117.921 412.393 119.436L411.151 120.461C414.611 119.258 416.164 116.672 416.164 113.062ZM414.079 113.151C414.079 108.604 411.196 106.866 407.115 106.286C405.695 106.108 404.187 105.796 402.723 105.796C400.771 105.796 400.638 106.687 400.638 108.337V114.622C400.638 115.558 400.638 116.539 400.86 117.475C401.437 120.105 404.364 120.461 406.582 120.461C411.151 120.461 414.079 117.831 414.079 113.151ZM396.956 97.8611C396.956 96.8359 396.912 95.8106 396.868 94.7853C396.823 93.8492 396.69 92.6902 396.025 91.977C395.448 91.3975 393.984 91.353 393.23 91.353C395.093 92.2891 395.537 92.9577 395.626 95.0528C395.67 95.9889 395.714 96.925 395.714 97.8611V116.628C395.714 118.812 395.759 119.704 393.984 121.041C396.424 120.551 396.956 119.525 396.956 117.163V97.8611Z" fill="#351D17"/>
<path d="M444.076 120.149C444.076 121.531 440.837 122.869 439.64 122.869C437.688 122.869 436.934 121.487 436.135 119.971C433.917 121.754 432.143 122.869 429.171 122.869C425.711 122.869 423.537 121.487 423.537 117.787C423.537 112.304 428.461 111.858 432.631 111.011L435.825 110.343L435.78 108.381C435.736 106.197 434.45 103.567 431.965 103.567C429.792 103.567 429.703 104.726 429.57 106.554C428.905 106.732 425.356 107.846 424.868 107.846C424.336 107.846 424.247 107.178 424.247 106.776C424.247 105.484 424.823 104.458 425.755 103.612C427.574 102.007 430.679 101.739 432.986 101.739C437.289 101.739 440.793 103.389 440.882 108.203C440.882 108.961 440.926 109.674 440.926 110.432C440.926 113.195 440.837 115.959 440.926 118.723C440.97 119.436 441.37 119.927 442.079 119.927C442.612 119.927 443.011 119.57 443.543 119.57C443.942 119.57 444.076 119.793 444.076 120.149ZM439.462 122.066C438.309 120.863 437.91 119.213 437.91 117.564V110.209C437.91 108.247 437.599 104.726 435.381 103.924C434.982 103.79 434.583 103.656 434.183 103.522L435.248 104.637C436.712 106.152 436.623 108.247 436.623 110.253V117.519C436.623 119.837 437.2 121.219 439.462 122.066ZM428.417 102.987C426.287 103.834 425.4 104.414 425.045 106.776L426.332 106.464C426.864 104.548 427.086 104.458 428.417 102.987ZM435.825 116.138V112.126C433.119 112.839 428.86 113.686 428.86 117.297C428.86 119.124 429.925 119.927 431.655 119.927C434.006 119.927 435.825 118.634 435.825 116.138ZM428.727 122.155C426.775 120.907 425.578 120.105 425.578 117.564C425.578 115.469 426.554 114.265 427.929 112.883C425.489 113.953 424.336 115.023 424.336 117.787C424.336 120.64 425.977 121.977 428.727 122.155Z" fill="#351D17"/>
<path d="M472.18 121.62C472.18 122.334 471.692 122.512 471.071 122.512C470.405 122.512 469.74 122.423 469.075 122.334C468.143 122.2 467.256 122.2 466.324 122.2C465.481 122.2 464.683 122.2 463.84 122.289C463.042 122.378 462.243 122.512 461.445 122.512C460.912 122.512 460.646 122.245 460.646 121.71C460.646 120.952 461.8 120.64 462.332 120.417C463.086 120.06 463.263 118.857 463.263 118.099C463.263 117.297 463.308 116.494 463.308 115.692V111.947C463.308 108.916 462.953 104.592 459.005 104.592C457.585 104.592 455.589 105.617 455.013 106.999C454.746 107.668 454.702 108.693 454.702 109.406V118.054C454.702 120.194 456.21 120.417 457.896 120.863C458.295 120.952 458.473 121.175 458.473 121.576C458.473 122.378 457.985 122.512 457.275 122.512C456.565 122.512 455.855 122.423 455.146 122.334C454.214 122.2 453.283 122.2 452.351 122.2C451.597 122.2 450.798 122.2 450.044 122.289C449.335 122.378 448.58 122.512 447.871 122.512C447.25 122.512 446.939 122.244 446.939 121.62C446.939 120.952 448.004 120.729 448.492 120.551C449.379 120.239 449.512 118.901 449.512 118.099C449.512 117.297 449.556 116.494 449.556 115.692V109.808C449.556 109.184 449.512 108.515 449.512 107.891C449.512 106.999 449.246 105.974 448.226 105.751C447.693 105.617 446.451 105.662 446.362 104.904C446.407 104.815 446.407 104.726 446.451 104.637C446.584 104.369 447.205 104.191 447.471 104.146C450 103.567 450.887 103.255 453.194 102.007C453.371 101.918 453.771 101.739 453.948 101.739C454.037 101.739 454.17 101.784 454.258 101.784L454.48 101.918C454.746 102.363 454.702 104.102 454.702 104.637L455.634 103.834C457.097 102.586 459.582 101.739 461.489 101.739C467.522 101.739 468.409 107.133 468.409 111.992C468.409 113.998 468.409 116.048 468.454 118.054C468.542 121.531 472.18 120.06 472.18 121.62ZM465.348 118.054V111.903C465.348 111.1 465.304 110.343 465.26 109.54C465.171 106.91 464.062 103.924 460.957 103.924C460.602 103.924 460.291 103.968 459.937 103.968L460.779 104.325C463.973 105.662 464.106 108.872 464.106 111.903V118.099C464.106 119.347 463.973 119.927 462.997 120.729C464.683 120.461 465.348 119.927 465.348 118.054ZM451.641 118.054V107.802C451.641 106.554 451.331 104.815 449.734 104.815C449.246 104.815 448.758 104.949 448.314 105.083C449.956 105.528 450.399 106.108 450.399 107.846V118.099C450.399 119.704 450.089 120.283 448.802 121.13H449.423C451.153 121.13 451.641 119.525 451.641 118.054Z" fill="#351D17"/>
<path d="M498.524 121.442C498.524 121.754 498.258 122.111 497.903 122.155C496.75 122.334 495.552 122.244 494.399 122.244C493.689 122.244 492.89 122.334 492.225 122.557C491.781 122.69 491.382 122.869 490.894 122.869C490.362 122.869 490.185 122.378 490.185 121.888V119.837C487.745 121.353 485.837 122.869 482.865 122.869C481.091 122.869 479.405 122.289 477.986 121.264C475.368 119.347 474.437 116.36 474.437 113.195C474.437 110.209 475.191 107.311 477.276 105.083C479.449 102.809 482.2 101.739 485.305 101.739C487.346 101.739 488.277 102.185 490.185 102.898V96.0781C490.185 95.454 490.14 94.8299 490.14 94.2059C490.096 93.2252 489.874 92.3336 488.809 92.0662C488.366 91.977 486.991 91.8433 486.991 91.2192C486.991 90.6843 487.656 90.5506 488.055 90.4614C489.297 90.2385 490.584 90.0602 491.737 89.5699C492.536 89.2579 493.645 88.5892 494.532 88.5892C494.62 88.5892 494.798 88.6338 494.887 88.6338L495.108 88.8121C495.375 89.347 495.286 90.506 495.286 91.0855V117.787C495.286 121.71 498.524 120.016 498.524 121.442ZM492.269 121.219V96.0781C492.269 95.4094 492.225 94.7853 492.181 94.1167C492.136 92.9577 491.781 91.1301 490.318 91.1301C489.83 91.1301 489.342 91.2638 488.854 91.3975C490.584 91.665 490.85 92.5565 490.939 94.1613C490.983 94.7854 491.027 95.454 491.027 96.0781V121.576L492.269 121.219ZM490.185 115.201V109.941C490.185 107.668 490.051 105.751 487.967 104.414C487.035 103.79 486.015 103.567 484.906 103.567C481.224 103.567 479.183 107.133 479.183 110.476C479.183 114.577 481.801 119.659 486.414 119.659C489.652 119.659 490.185 118.054 490.185 115.201ZM484.728 122.155C479.494 121.71 476.477 117.787 476.477 112.661C476.477 108.693 478.429 105.84 481.135 103.166C477.187 105.573 475.235 108.292 475.235 113.062C475.235 117.742 477.764 122.289 482.91 122.289C483.531 122.289 484.107 122.244 484.728 122.155Z" fill="#351D17"/>
<path d="M156.601 112.839C156.601 116.048 155.004 118.455 152.476 120.239C150.08 121.932 147.064 122.512 144.181 122.512C141.297 122.512 138.37 122.2 135.486 122.2C133.712 122.2 131.893 122.2 130.119 122.378C129.719 122.423 129.32 122.512 128.921 122.512C128.3 122.512 127.856 122.334 127.856 121.665C127.856 120.149 130.03 120.64 130.651 119.704C131.228 118.768 131.183 117.43 131.183 116.405V95.6769C131.183 94.2059 130.873 92.1553 129.098 91.8879C128.389 91.7987 126.348 91.7987 126.348 90.6843C126.348 89.6145 127.723 89.7928 128.433 89.7928C129.276 89.7928 130.119 89.9711 130.961 90.0157C132.292 90.1048 133.623 90.1048 134.954 90.1048C138.015 90.1048 141.075 89.7928 144.136 89.7928C148.75 89.7928 154.073 92.3336 154.073 97.5937C154.073 101.561 151.855 103.299 148.395 104.458C152.698 105.305 156.601 108.025 156.601 112.839ZM150.435 98.5298C150.435 96.8804 149.859 95.3648 148.883 94.0721C147.996 92.9131 146.532 91.7541 145.068 91.5313C144.491 91.4421 143.959 91.3975 143.382 91.3084L144.269 91.7096C147.33 93.0914 149.193 96.3455 149.193 99.6888C149.193 101.294 148.262 102.631 147.153 103.701C149.326 102.675 150.435 100.937 150.435 98.5298ZM148.35 99.4213C148.35 95.0082 144.935 91.8433 140.632 91.8433C137.748 91.8433 136.95 93.0469 136.95 95.8106V99.6442C136.95 100.759 137.039 102.765 138.103 103.433C139.035 104.013 141.209 104.057 142.273 104.057C145.423 104.057 148.35 103.121 148.35 99.4213ZM152.476 113.062C152.476 110.12 150.657 106.643 147.552 106.152L146.132 105.929L147.774 106.821C150.347 108.203 151.234 110.744 151.234 113.552C151.234 115.87 150.524 117.921 148.705 119.436L147.463 120.461C150.923 119.258 152.476 116.672 152.476 113.062ZM150.391 113.151C150.391 108.604 147.508 106.866 143.427 106.286C142.007 106.108 140.499 105.796 139.035 105.796C137.083 105.796 136.95 106.687 136.95 108.337V114.622C136.95 115.558 136.95 116.539 137.172 117.475C137.748 120.105 140.676 120.461 142.894 120.461C147.463 120.461 150.391 117.831 150.391 113.151ZM133.268 97.8611C133.268 96.8359 133.224 95.8106 133.179 94.7853C133.135 93.8492 133.002 92.6902 132.337 91.977C131.76 91.3975 130.296 91.353 129.542 91.353C131.405 92.2891 131.849 92.9577 131.937 95.0528C131.982 95.9889 132.026 96.925 132.026 97.8611V116.628C132.026 118.812 132.07 119.704 130.296 121.041C132.736 120.551 133.268 119.525 133.268 117.163V97.8611Z" stroke="#250F09" stroke-width="0.552893"/>
<path d="M180.387 120.149C180.387 121.531 177.149 122.869 175.951 122.869C174 122.869 173.245 121.487 172.447 119.971C170.229 121.754 168.455 122.869 165.483 122.869C162.023 122.869 159.849 121.487 159.849 117.787C159.849 112.304 164.773 111.858 168.943 111.011L172.137 110.343L172.092 108.381C172.048 106.197 170.761 103.567 168.277 103.567C166.104 103.567 166.015 104.726 165.882 106.554C165.216 106.732 161.668 107.846 161.18 107.846C160.647 107.846 160.559 107.178 160.559 106.776C160.559 105.484 161.135 104.458 162.067 103.612C163.886 102.007 166.991 101.739 169.298 101.739C173.6 101.739 177.105 103.389 177.194 108.203C177.194 108.961 177.238 109.674 177.238 110.432C177.238 113.195 177.149 115.959 177.238 118.723C177.282 119.436 177.681 119.927 178.391 119.927C178.924 119.927 179.323 119.57 179.855 119.57C180.254 119.57 180.387 119.793 180.387 120.149ZM175.774 122.066C174.621 120.863 174.221 119.213 174.221 117.564V110.209C174.221 108.247 173.911 104.726 171.693 103.924C171.294 103.79 170.894 103.656 170.495 103.522L171.56 104.637C173.024 106.152 172.935 108.247 172.935 110.253V117.519C172.935 119.837 173.512 121.219 175.774 122.066ZM164.728 102.987C162.599 103.834 161.712 104.414 161.357 106.776L162.644 106.464C163.176 104.548 163.398 104.458 164.728 102.987ZM172.137 116.138V112.126C169.431 112.839 165.172 113.686 165.172 117.297C165.172 119.124 166.237 119.927 167.967 119.927C170.318 119.927 172.137 118.634 172.137 116.138ZM165.039 122.155C163.087 120.907 161.889 120.105 161.889 117.564C161.889 115.469 162.865 114.265 164.241 112.883C161.801 113.953 160.647 115.023 160.647 117.787C160.647 120.64 162.289 121.977 165.039 122.155Z" stroke="#250F09" stroke-width="0.552893"/>
<path d="M199.93 104.146C199.93 104.681 198.422 107.222 198.156 107.668C198.067 107.846 197.668 108.292 197.446 108.292C196.692 108.292 195.051 106.063 193.454 106.063C192.256 106.063 190.836 107.311 190.792 108.515C190.792 108.827 190.748 109.139 190.748 109.451V115.736C190.748 117.118 190.703 119.882 192.256 120.372L193.809 120.863C194.163 120.952 194.518 121.264 194.518 121.665C194.518 122.378 193.631 122.512 193.099 122.512C192.655 122.512 192.167 122.423 191.724 122.378C190.615 122.289 189.461 122.2 188.308 122.2C186.844 122.2 185.38 122.512 183.916 122.512C183.562 122.512 183.207 122.378 183.029 122.066C183.029 121.977 182.985 121.799 182.985 121.71C182.985 121.442 183.074 120.996 183.384 120.863L184.804 120.283C185.425 120.016 185.602 119.302 185.602 118.678C185.602 117.653 185.646 116.628 185.646 115.603V107.891C185.646 104.681 182.408 106.197 182.408 104.904C182.408 104.815 182.453 104.726 182.497 104.637C182.852 104.325 183.029 104.236 183.473 104.146C186.445 103.433 186.578 103.433 189.195 102.007C189.373 101.918 189.772 101.739 189.949 101.739C190.038 101.739 190.215 101.784 190.304 101.784C190.792 102.096 190.659 103.255 190.659 103.701V105.484C191.724 104.325 193.72 101.739 195.583 101.739C196.603 101.739 199.93 103.032 199.93 104.146ZM197.668 105.84C196.692 105.083 195.627 104.28 194.297 104.28C193.01 104.28 192.522 104.904 191.768 105.84C192.345 105.573 192.877 105.35 193.542 105.35C194.829 105.35 195.893 106.375 196.869 107.088L197.668 105.84ZM187.687 107.802C187.687 106.554 187.376 104.815 185.78 104.815C185.292 104.815 184.804 104.949 184.316 105.083C186.134 105.573 186.356 106.108 186.401 107.935C186.401 108.56 186.445 109.184 186.445 109.808V118.411C186.445 119.704 186.001 120.372 184.937 121.086C186.223 120.996 187.332 120.595 187.554 119.213C187.731 118.188 187.687 117.074 187.687 116.093V107.802Z" stroke="#250F09" stroke-width="0.552893"/>
<path d="M228.202 121.62C228.202 122.334 227.714 122.512 227.093 122.512C226.428 122.512 225.762 122.423 225.097 122.334C224.165 122.2 223.278 122.2 222.347 122.2C221.504 122.2 220.705 122.2 219.863 122.289C219.064 122.378 218.266 122.512 217.467 122.512C216.935 122.512 216.669 122.245 216.669 121.71C216.669 120.952 217.822 120.64 218.354 120.417C219.108 120.06 219.286 118.857 219.286 118.099C219.286 117.297 219.33 116.494 219.33 115.692V111.947C219.33 108.916 218.975 104.592 215.027 104.592C213.608 104.592 211.612 105.617 211.035 106.999C210.769 107.668 210.724 108.693 210.724 109.406V118.054C210.724 120.194 212.233 120.417 213.918 120.863C214.318 120.952 214.495 121.175 214.495 121.576C214.495 122.378 214.007 122.512 213.297 122.512C212.588 122.512 211.878 122.423 211.168 122.334C210.237 122.2 209.305 122.2 208.373 122.2C207.619 122.2 206.821 122.2 206.067 122.289C205.357 122.378 204.603 122.512 203.893 122.512C203.272 122.512 202.962 122.244 202.962 121.62C202.962 120.952 204.026 120.729 204.514 120.551C205.401 120.239 205.534 118.901 205.534 118.099C205.534 117.297 205.579 116.494 205.579 115.692V109.808C205.579 109.184 205.534 108.515 205.534 107.891C205.534 106.999 205.268 105.974 204.248 105.751C203.716 105.617 202.474 105.662 202.385 104.904C202.429 104.815 202.429 104.726 202.474 104.637C202.607 104.369 203.228 104.191 203.494 104.146C206.022 103.567 206.91 103.255 209.216 102.007C209.394 101.918 209.793 101.739 209.97 101.739C210.059 101.739 210.192 101.784 210.281 101.784L210.503 101.918C210.769 102.363 210.724 104.102 210.724 104.637L211.656 103.834C213.12 102.586 215.604 101.739 217.511 101.739C223.544 101.739 224.432 107.133 224.432 111.992C224.432 113.998 224.432 116.048 224.476 118.054C224.565 121.531 228.202 120.06 228.202 121.62ZM221.371 118.054V111.903C221.371 111.1 221.326 110.343 221.282 109.54C221.193 106.91 220.084 103.924 216.979 103.924C216.624 103.924 216.314 103.968 215.959 103.968L216.802 104.325C219.996 105.662 220.129 108.872 220.129 111.903V118.099C220.129 119.347 219.996 119.927 219.02 120.729C220.705 120.461 221.371 119.927 221.371 118.054ZM207.664 118.054V107.802C207.664 106.554 207.353 104.815 205.756 104.815C205.268 104.815 204.78 104.949 204.337 105.083C205.978 105.528 206.422 106.108 206.422 107.846V118.099C206.422 119.704 206.111 120.283 204.825 121.13H205.446C207.176 121.13 207.664 119.525 207.664 118.054Z" stroke="#250F09" stroke-width="0.552893"/>
<path d="M277.786 105.751C277.786 109.808 276.589 113.285 274.016 116.45C270.999 120.194 266.386 122.512 261.595 122.512C258.623 122.512 255.651 122.2 252.679 122.2C250.816 122.2 248.908 122.2 247.045 122.334C246.557 122.378 246.069 122.512 245.581 122.512C244.96 122.512 244.65 122.244 244.65 121.62C244.65 120.595 246.158 120.372 246.912 120.105C248.066 119.659 247.977 117.341 247.977 116.405V95.6769C247.977 90.1048 243.142 92.7348 243.142 90.7289C243.142 89.6145 244.517 89.7928 245.227 89.7928C246.025 89.7928 246.912 89.9265 247.711 89.9711C249.086 90.0602 250.505 90.1048 251.88 90.1048C254.853 90.1048 257.869 89.7928 260.841 89.7928C262.837 89.7928 264.789 90.1494 266.652 90.7289C273.572 92.8686 277.786 98.4406 277.786 105.751ZM273.661 107.401C273.661 101.65 271.088 94.9637 265.765 92.2445C264.079 91.353 262.083 91.1301 260.176 91.0409C261.817 91.353 263.68 91.7987 265.1 92.7348C269.89 95.8552 272.419 101.784 272.419 107.401C272.419 111.769 270.733 116.316 267.14 118.99C266.031 119.837 264.479 120.372 263.148 120.773C264.967 120.684 266.83 120.372 268.338 119.302C270.6 117.653 272.286 114.666 273.084 111.992C273.528 110.521 273.661 108.961 273.661 107.401ZM271.576 107.222C271.576 101.294 268.116 94.295 262.172 92.4228C260.797 91.977 259.333 91.8433 257.869 91.8433C255.074 91.8433 253.744 92.7348 253.744 95.6769V114.533C253.744 115.291 253.832 116.093 253.877 116.851C254.098 120.461 256.716 120.461 259.643 120.461C267.451 120.461 271.576 114.577 271.576 107.222ZM250.062 116.94V97.8611C250.062 96.8359 250.017 95.8106 250.017 94.7853C250.017 93.8047 249.84 92.5565 249.041 91.8433C248.42 91.3084 246.823 91.2192 246.025 91.2192C248.11 92.0662 248.642 92.7794 248.731 95.0528C248.775 95.9889 248.82 96.925 248.82 97.8611V116.628C248.82 118.634 248.775 119.793 247.09 121.041C249.618 120.506 250.062 119.347 250.062 116.94Z" stroke="#250F09" stroke-width="0.552893"/>
<path d="M301.943 120.149C301.943 121.531 298.705 122.869 297.507 122.869C295.555 122.869 294.801 121.487 294.003 119.971C291.785 121.754 290.01 122.869 287.038 122.869C283.578 122.869 281.405 121.487 281.405 117.787C281.405 112.304 286.328 111.858 290.498 111.011L293.692 110.343L293.648 108.381C293.603 106.197 292.317 103.567 289.833 103.567C287.659 103.567 287.57 104.726 287.437 106.554C286.772 106.732 283.223 107.846 282.735 107.846C282.203 107.846 282.114 107.178 282.114 106.776C282.114 105.484 282.691 104.458 283.622 103.612C285.441 102.007 288.546 101.739 290.853 101.739C295.156 101.739 298.66 103.389 298.749 108.203C298.749 108.961 298.793 109.674 298.793 110.432C298.793 113.195 298.705 115.959 298.793 118.723C298.838 119.436 299.237 119.927 299.947 119.927C300.479 119.927 300.878 119.57 301.411 119.57C301.81 119.57 301.943 119.793 301.943 120.149ZM297.33 122.066C296.176 120.863 295.777 119.213 295.777 117.564V110.209C295.777 108.247 295.466 104.726 293.249 103.924C292.849 103.79 292.45 103.656 292.051 103.522L293.115 104.637C294.579 106.152 294.491 108.247 294.491 110.253V117.519C294.491 119.837 295.067 121.219 297.33 122.066ZM286.284 102.987C284.155 103.834 283.268 104.414 282.913 106.776L284.199 106.464C284.731 104.548 284.953 104.458 286.284 102.987ZM293.692 116.138V112.126C290.986 112.839 286.728 113.686 286.728 117.297C286.728 119.124 287.792 119.927 289.522 119.927C291.873 119.927 293.692 118.634 293.692 116.138ZM286.595 122.155C284.643 120.907 283.445 120.105 283.445 117.564C283.445 115.469 284.421 114.265 285.796 112.883C283.356 113.953 282.203 115.023 282.203 117.787C282.203 120.64 283.844 121.977 286.595 122.155Z" stroke="#250F09" stroke-width="0.552893"/>
<path d="M330.047 121.62C330.047 122.334 329.559 122.512 328.938 122.512C328.273 122.512 327.607 122.423 326.942 122.334C326.01 122.2 325.123 122.2 324.192 122.2C323.349 122.2 322.55 122.2 321.708 122.289C320.909 122.378 320.111 122.512 319.312 122.512C318.78 122.512 318.514 122.245 318.514 121.71C318.514 120.952 319.667 120.64 320.199 120.417C320.953 120.06 321.131 118.857 321.131 118.099C321.131 117.297 321.175 116.494 321.175 115.692V111.947C321.175 108.916 320.82 104.592 316.872 104.592C315.453 104.592 313.457 105.617 312.88 106.999C312.614 107.668 312.57 108.693 312.57 109.406V118.054C312.57 120.194 314.078 120.417 315.763 120.863C316.163 120.952 316.34 121.175 316.34 121.576C316.34 122.378 315.852 122.512 315.142 122.512C314.433 122.512 313.723 122.423 313.013 122.334C312.082 122.2 311.15 122.2 310.218 122.2C309.464 122.2 308.666 122.2 307.912 122.289C307.202 122.378 306.448 122.512 305.738 122.512C305.117 122.512 304.807 122.244 304.807 121.62C304.807 120.952 305.871 120.729 306.359 120.551C307.246 120.239 307.379 118.901 307.379 118.099C307.379 117.297 307.424 116.494 307.424 115.692V109.808C307.424 109.184 307.379 108.515 307.379 107.891C307.379 106.999 307.113 105.974 306.093 105.751C305.561 105.617 304.319 105.662 304.23 104.904C304.274 104.815 304.274 104.726 304.319 104.637C304.452 104.369 305.073 104.191 305.339 104.146C307.867 103.567 308.755 103.255 311.061 102.007C311.239 101.918 311.638 101.739 311.815 101.739C311.904 101.739 312.037 101.784 312.126 101.784L312.348 101.918C312.614 102.363 312.57 104.102 312.57 104.637L313.501 103.834C314.965 102.586 317.449 101.739 319.357 101.739C325.389 101.739 326.277 107.133 326.277 111.992C326.277 113.998 326.277 116.048 326.321 118.054C326.41 121.531 330.047 120.06 330.047 121.62ZM323.216 118.054V111.903C323.216 111.1 323.171 110.343 323.127 109.54C323.038 106.91 321.929 103.924 318.824 103.924C318.469 103.924 318.159 103.968 317.804 103.968L318.647 104.325C321.841 105.662 321.974 108.872 321.974 111.903V118.099C321.974 119.347 321.841 119.927 320.865 120.729C322.55 120.461 323.216 119.927 323.216 118.054ZM309.509 118.054V107.802C309.509 106.554 309.198 104.815 307.601 104.815C307.113 104.815 306.625 104.949 306.182 105.083C307.823 105.528 308.267 106.108 308.267 107.846V118.099C308.267 119.704 307.956 120.283 306.67 121.13H307.291C309.021 121.13 309.509 119.525 309.509 118.054Z" stroke="#250F09" stroke-width="0.552893"/>
<path d="M352.222 117.609C352.222 118.188 351.778 118.589 351.423 118.99C351.068 119.392 350.669 119.748 350.226 120.06C347.919 121.888 345.302 122.869 342.33 122.869C336.385 122.869 332.615 118.768 332.615 112.883C332.615 106.42 337.761 101.695 344.104 101.739H344.193C346.721 101.739 349.205 102.453 350.492 104.86C350.669 105.172 351.068 105.84 351.068 106.197C351.068 106.464 350.98 106.643 350.758 106.821C350.27 107.222 347.963 108.872 347.431 108.872C347.209 108.872 347.032 108.782 346.899 108.604C346.677 108.292 346.499 107.802 346.411 107.445C345.923 105.84 344.326 103.567 342.463 103.567C339.18 103.567 337.938 107.623 337.938 110.298C337.938 114.488 340.2 119.436 344.991 119.436C346.411 119.436 347.786 119.124 348.984 118.322C349.605 117.921 350.847 116.895 351.601 116.895C352.044 116.895 352.222 117.163 352.222 117.609ZM348.673 106.955C348.096 106.019 347.564 105.216 346.81 104.458C346.145 103.834 344.902 102.943 343.971 102.943H342.684C345.523 103.567 346.189 105.261 347.298 107.713L348.673 106.955ZM340.866 122.022L339.668 121.264C336.518 119.302 334.7 116.405 334.7 112.616C334.7 109.852 335.543 107.311 337.406 105.261L338.692 103.834C338.204 104.146 337.716 104.458 337.228 104.77C336.252 105.395 335.276 106.821 334.744 107.846C333.901 109.451 333.458 111.234 333.458 113.062C333.458 116.851 335.454 120.64 339.313 121.62L340.866 122.022Z" stroke="#250F09" stroke-width="0.552893"/>
<path d="M374.002 117.564C374.002 118.099 372.583 119.436 372.228 119.793C370.143 121.754 367.348 122.869 364.509 122.869C358.565 122.869 354.972 118.768 354.972 112.928C354.972 111.368 355.194 109.763 355.771 108.292C357.279 104.503 361.138 101.739 365.219 101.739C368.59 101.739 371.252 103.389 372.805 106.42C373.204 107.222 373.781 108.47 373.781 109.362C373.781 110.164 373.293 110.476 372.538 110.476C368.28 110.521 363.977 110.521 359.719 110.521C360.206 114.845 361.848 119.436 366.905 119.436C369.3 119.436 370.587 118.5 372.405 117.118C372.672 116.94 372.938 116.806 373.248 116.806C373.559 116.806 373.825 117.029 373.958 117.297C373.958 117.386 374.002 117.475 374.002 117.564ZM370.498 108.738C370.454 108.292 370.454 107.846 370.409 107.401C370.276 105.929 368.457 103.656 366.993 103.344C366.683 103.299 366.328 103.21 366.018 103.166C367.437 104.013 368.945 105.528 369.123 107.267C369.167 107.757 369.212 108.247 369.256 108.738H370.498ZM368.457 107.802C368.457 105.662 366.284 103.567 364.199 103.567C361.271 103.567 359.94 106.152 359.719 108.738H367.038C367.615 108.738 368.457 108.515 368.457 107.802ZM363.267 122.066C359.231 119.347 357.057 117.297 357.057 112.126C357.057 108.693 358.122 107.088 359.94 104.325C357.234 106.732 355.771 109.228 355.771 112.928C355.771 116.806 357.9 120.417 361.67 121.576L363.267 122.066Z" stroke="#250F09" stroke-width="0.552893"/>
<path d="M420.289 112.839C420.289 116.048 418.693 118.455 416.164 120.239C413.769 121.932 410.752 122.512 407.869 122.512C404.985 122.512 402.058 122.2 399.174 122.2C397.4 122.2 395.581 122.2 393.807 122.378C393.408 122.423 393.008 122.512 392.609 122.512C391.988 122.512 391.544 122.334 391.544 121.665C391.544 120.149 393.718 120.64 394.339 119.704C394.916 118.768 394.871 117.43 394.871 116.405V95.6769C394.871 94.2059 394.561 92.1553 392.787 91.8879C392.077 91.7987 390.036 91.7987 390.036 90.6843C390.036 89.6145 391.411 89.7928 392.121 89.7928C392.964 89.7928 393.807 89.9711 394.65 90.0157C395.98 90.1048 397.311 90.1048 398.642 90.1048C401.703 90.1048 404.764 89.7928 407.824 89.7928C412.438 89.7928 417.761 92.3336 417.761 97.5937C417.761 101.561 415.543 103.299 412.083 104.458C416.386 105.305 420.289 108.025 420.289 112.839ZM414.123 98.5298C414.123 96.8804 413.547 95.3648 412.571 94.0721C411.684 92.9131 410.22 91.7541 408.756 91.5313C408.179 91.4421 407.647 91.3975 407.07 91.3084L407.957 91.7096C411.018 93.0914 412.881 96.3455 412.881 99.6888C412.881 101.294 411.95 102.631 410.841 103.701C413.014 102.675 414.123 100.937 414.123 98.5298ZM412.039 99.4213C412.039 95.0082 408.623 91.8433 404.32 91.8433C401.437 91.8433 400.638 93.0469 400.638 95.8106V99.6442C400.638 100.759 400.727 102.765 401.792 103.433C402.723 104.013 404.897 104.057 405.961 104.057C409.111 104.057 412.039 103.121 412.039 99.4213ZM416.164 113.062C416.164 110.12 414.345 106.643 411.24 106.152L409.821 105.929L411.462 106.821C414.035 108.203 414.922 110.744 414.922 113.552C414.922 115.87 414.212 117.921 412.393 119.436L411.151 120.461C414.611 119.258 416.164 116.672 416.164 113.062ZM414.079 113.151C414.079 108.604 411.196 106.866 407.115 106.286C405.695 106.108 404.187 105.796 402.723 105.796C400.771 105.796 400.638 106.687 400.638 108.337V114.622C400.638 115.558 400.638 116.539 400.86 117.475C401.437 120.105 404.364 120.461 406.582 120.461C411.151 120.461 414.079 117.831 414.079 113.151ZM396.956 97.8611C396.956 96.8359 396.912 95.8106 396.868 94.7853C396.823 93.8492 396.69 92.6902 396.025 91.977C395.448 91.3975 393.984 91.353 393.23 91.353C395.093 92.2891 395.537 92.9577 395.626 95.0528C395.67 95.9889 395.714 96.925 395.714 97.8611V116.628C395.714 118.812 395.759 119.704 393.984 121.041C396.424 120.551 396.956 119.525 396.956 117.163V97.8611Z" stroke="#250F09" stroke-width="0.552893"/>
<path d="M444.076 120.149C444.076 121.531 440.837 122.869 439.64 122.869C437.688 122.869 436.934 121.487 436.135 119.971C433.917 121.754 432.143 122.869 429.171 122.869C425.711 122.869 423.537 121.487 423.537 117.787C423.537 112.304 428.461 111.858 432.631 111.011L435.825 110.343L435.78 108.381C435.736 106.197 434.45 103.567 431.965 103.567C429.792 103.567 429.703 104.726 429.57 106.554C428.905 106.732 425.356 107.846 424.868 107.846C424.336 107.846 424.247 107.178 424.247 106.776C424.247 105.484 424.823 104.458 425.755 103.612C427.574 102.007 430.679 101.739 432.986 101.739C437.289 101.739 440.793 103.389 440.882 108.203C440.882 108.961 440.926 109.674 440.926 110.432C440.926 113.195 440.837 115.959 440.926 118.723C440.97 119.436 441.37 119.927 442.079 119.927C442.612 119.927 443.011 119.57 443.543 119.57C443.942 119.57 444.076 119.793 444.076 120.149ZM439.462 122.066C438.309 120.863 437.91 119.213 437.91 117.564V110.209C437.91 108.247 437.599 104.726 435.381 103.924C434.982 103.79 434.583 103.656 434.183 103.522L435.248 104.637C436.712 106.152 436.623 108.247 436.623 110.253V117.519C436.623 119.837 437.2 121.219 439.462 122.066ZM428.417 102.987C426.287 103.834 425.4 104.414 425.045 106.776L426.332 106.464C426.864 104.548 427.086 104.458 428.417 102.987ZM435.825 116.138V112.126C433.119 112.839 428.86 113.686 428.86 117.297C428.86 119.124 429.925 119.927 431.655 119.927C434.006 119.927 435.825 118.634 435.825 116.138ZM428.727 122.155C426.775 120.907 425.578 120.105 425.578 117.564C425.578 115.469 426.554 114.265 427.929 112.883C425.489 113.953 424.336 115.023 424.336 117.787C424.336 120.64 425.977 121.977 428.727 122.155Z" stroke="#250F09" stroke-width="0.552893"/>
<path d="M472.18 121.62C472.18 122.334 471.692 122.512 471.071 122.512C470.405 122.512 469.74 122.423 469.075 122.334C468.143 122.2 467.256 122.2 466.324 122.2C465.481 122.2 464.683 122.2 463.84 122.289C463.042 122.378 462.243 122.512 461.445 122.512C460.912 122.512 460.646 122.245 460.646 121.71C460.646 120.952 461.8 120.64 462.332 120.417C463.086 120.06 463.263 118.857 463.263 118.099C463.263 117.297 463.308 116.494 463.308 115.692V111.947C463.308 108.916 462.953 104.592 459.005 104.592C457.585 104.592 455.589 105.617 455.013 106.999C454.746 107.668 454.702 108.693 454.702 109.406V118.054C454.702 120.194 456.21 120.417 457.896 120.863C458.295 120.952 458.473 121.175 458.473 121.576C458.473 122.378 457.985 122.512 457.275 122.512C456.565 122.512 455.855 122.423 455.146 122.334C454.214 122.2 453.283 122.2 452.351 122.2C451.597 122.2 450.798 122.2 450.044 122.289C449.335 122.378 448.58 122.512 447.871 122.512C447.25 122.512 446.939 122.244 446.939 121.62C446.939 120.952 448.004 120.729 448.492 120.551C449.379 120.239 449.512 118.901 449.512 118.099C449.512 117.297 449.556 116.494 449.556 115.692V109.808C449.556 109.184 449.512 108.515 449.512 107.891C449.512 106.999 449.246 105.974 448.226 105.751C447.693 105.617 446.451 105.662 446.362 104.904C446.407 104.815 446.407 104.726 446.451 104.637C446.584 104.369 447.205 104.191 447.471 104.146C450 103.567 450.887 103.255 453.194 102.007C453.371 101.918 453.771 101.739 453.948 101.739C454.037 101.739 454.17 101.784 454.258 101.784L454.48 101.918C454.746 102.363 454.702 104.102 454.702 104.637L455.634 103.834C457.097 102.586 459.582 101.739 461.489 101.739C467.522 101.739 468.409 107.133 468.409 111.992C468.409 113.998 468.409 116.048 468.454 118.054C468.542 121.531 472.18 120.06 472.18 121.62ZM465.348 118.054V111.903C465.348 111.1 465.304 110.343 465.26 109.54C465.171 106.91 464.062 103.924 460.957 103.924C460.602 103.924 460.291 103.968 459.937 103.968L460.779 104.325C463.973 105.662 464.106 108.872 464.106 111.903V118.099C464.106 119.347 463.973 119.927 462.997 120.729C464.683 120.461 465.348 119.927 465.348 118.054ZM451.641 118.054V107.802C451.641 106.554 451.331 104.815 449.734 104.815C449.246 104.815 448.758 104.949 448.314 105.083C449.956 105.528 450.399 106.108 450.399 107.846V118.099C450.399 119.704 450.089 120.283 448.802 121.13H449.423C451.153 121.13 451.641 119.525 451.641 118.054Z" stroke="#250F09" stroke-width="0.552893"/>
<path d="M498.524 121.442C498.524 121.754 498.258 122.111 497.903 122.155C496.75 122.334 495.552 122.244 494.399 122.244C493.689 122.244 492.89 122.334 492.225 122.557C491.781 122.69 491.382 122.869 490.894 122.869C490.362 122.869 490.185 122.378 490.185 121.888V119.837C487.745 121.353 485.837 122.869 482.865 122.869C481.091 122.869 479.405 122.289 477.986 121.264C475.368 119.347 474.437 116.36 474.437 113.195C474.437 110.209 475.191 107.311 477.276 105.083C479.449 102.809 482.2 101.739 485.305 101.739C487.346 101.739 488.277 102.185 490.185 102.898V96.0781C490.185 95.454 490.14 94.8299 490.14 94.2059C490.096 93.2252 489.874 92.3336 488.809 92.0662C488.366 91.977 486.991 91.8433 486.991 91.2192C486.991 90.6843 487.656 90.5506 488.055 90.4614C489.297 90.2385 490.584 90.0602 491.737 89.5699C492.536 89.2579 493.645 88.5892 494.532 88.5892C494.62 88.5892 494.798 88.6338 494.887 88.6338L495.108 88.8121C495.375 89.347 495.286 90.506 495.286 91.0855V117.787C495.286 121.71 498.524 120.016 498.524 121.442ZM492.269 121.219V96.0781C492.269 95.4094 492.225 94.7853 492.181 94.1167C492.136 92.9577 491.781 91.1301 490.318 91.1301C489.83 91.1301 489.342 91.2638 488.854 91.3975C490.584 91.665 490.85 92.5565 490.939 94.1613C490.983 94.7854 491.027 95.454 491.027 96.0781V121.576L492.269 121.219ZM490.185 115.201V109.941C490.185 107.668 490.051 105.751 487.967 104.414C487.035 103.79 486.015 103.567 484.906 103.567C481.224 103.567 479.183 107.133 479.183 110.476C479.183 114.577 481.801 119.659 486.414 119.659C489.652 119.659 490.185 118.054 490.185 115.201ZM484.728 122.155C479.494 121.71 476.477 117.787 476.477 112.661C476.477 108.693 478.429 105.84 481.135 103.166C477.187 105.573 475.235 108.292 475.235 113.062C475.235 117.742 477.764 122.289 482.91 122.289C483.531 122.289 484.107 122.244 484.728 122.155Z" stroke="#250F09" stroke-width="0.552893"/>
<defs>
<filter id="filter0_d_292_1497" x="1.12057e-05" y="3.57628e-07" width="625.128" height="73.561" filterUnits="userSpaceOnUse" color-interpolation-filters="sRGB">
<feFlood flood-opacity="0" result="BackgroundImageFix"/>
<feColorMatrix in="SourceAlpha" type="matrix" values="0 0 0 0 0 0 0 0 0 0 0 0 0 0 0 0 0 0 127 0" result="hardAlpha"/>
<feOffset dy="1.10579"/>
<feGaussianBlur stdDeviation="1.02285"/>
<feComposite in2="hardAlpha" operator="out"/>
<feColorMatrix type="matrix" values="0 0 0 0 0 0 0 0 0 0 0 0 0 0 0 0 0 0 0.15 0"/>
<feBlend mode="normal" in2="BackgroundImageFix" result="effect1_dropShadow_292_1497"/>
<feBlend mode="normal" in="SourceGraphic" in2="effect1_dropShadow_292_1497" result="shape"/>
</filter>
<linearGradient id="paint0_linear_292_1497" x1="-7.49827" y1="-1.14944" x2="-7.67326" y2="71.5148" gradientUnits="userSpaceOnUse">
<stop offset="0.0432692" stop-color="#F39544"/>
<stop offset="0.0865385" stop-color="#DD6045"/>
<stop offset="0.129808" stop-color="#AD423D"/>
<stop offset="0.365385" stop-color="#BE322E"/>
<stop offset="1" stop-color="#A64243"/>
</linearGradient>
<linearGradient id="paint1_linear_292_1497" x1="-7.49827" y1="-1.14944" x2="-7.67326" y2="71.5148" gradientUnits="userSpaceOnUse">
<stop offset="0.0432692" stop-color="#F39544"/>
<stop offset="0.0865385" stop-color="#DD6045"/>
<stop offset="0.129808" stop-color="#AD423D"/>
<stop offset="0.365385" stop-color="#BE322E"/>
<stop offset="1" stop-color="#A64243"/>
</linearGradient>
<linearGradient id="paint2_linear_292_1497" x1="-7.49827" y1="-1.14944" x2="-7.67326" y2="71.5148" gradientUnits="userSpaceOnUse">
<stop offset="0.0432692" stop-color="#F39544"/>
<stop offset="0.0865385" stop-color="#DD6045"/>
<stop offset="0.129808" stop-color="#AD423D"/>
<stop offset="0.365385" stop-color="#BE322E"/>
<stop offset="1" stop-color="#A64243"/>
</linearGradient>
<linearGradient id="paint3_linear_292_1497" x1="-7.49827" y1="-1.14944" x2="-7.67326" y2="71.5148" gradientUnits="userSpaceOnUse">
<stop offset="0.0432692" stop-color="#F39544"/>
<stop offset="0.0865385" stop-color="#DD6045"/>
<stop offset="0.129808" stop-color="#AD423D"/>
<stop offset="0.365385" stop-color="#BE322E"/>
<stop offset="1" stop-color="#A64243"/>
</linearGradient>
<linearGradient id="paint4_linear_292_1497" x1="-7.49827" y1="-1.14944" x2="-7.67326" y2="71.5148" gradientUnits="userSpaceOnUse">
<stop offset="0.0432692" stop-color="#F39544"/>
<stop offset="0.0865385" stop-color="#DD6045"/>
<stop offset="0.129808" stop-color="#AD423D"/>
<stop offset="0.365385" stop-color="#BE322E"/>
<stop offset="1" stop-color="#A64243"/>
</linearGradient>
<linearGradient id="paint5_linear_292_1497" x1="-7.49827" y1="-1.14944" x2="-7.67326" y2="71.5148" gradientUnits="userSpaceOnUse">
<stop offset="0.0432692" stop-color="#F39544"/>
<stop offset="0.0865385" stop-color="#DD6045"/>
<stop offset="0.129808" stop-color="#AD423D"/>
<stop offset="0.365385" stop-color="#BE322E"/>
<stop offset="1" stop-color="#A64243"/>
</linearGradient>
<linearGradient id="paint6_linear_292_1497" x1="-7.49827" y1="-1.14944" x2="-7.67326" y2="71.5148" gradientUnits="userSpaceOnUse">
<stop offset="0.0432692" stop-color="#F39544"/>
<stop offset="0.0865385" stop-color="#DD6045"/>
<stop offset="0.129808" stop-color="#AD423D"/>
<stop offset="0.365385" stop-color="#BE322E"/>
<stop offset="1" stop-color="#A64243"/>
</linearGradient>
<linearGradient id="paint7_linear_292_1497" x1="-7.49827" y1="-1.14944" x2="-7.67326" y2="71.5148" gradientUnits="userSpaceOnUse">
<stop offset="0.0432692" stop-color="#F39544"/>
<stop offset="0.0865385" stop-color="#DD6045"/>
<stop offset="0.129808" stop-color="#AD423D"/>
<stop offset="0.365385" stop-color="#BE322E"/>
<stop offset="1" stop-color="#A64243"/>
</linearGradient>
<linearGradient id="paint8_linear_292_1497" x1="-7.49827" y1="-1.14944" x2="-7.67326" y2="71.5148" gradientUnits="userSpaceOnUse">
<stop offset="0.0432692" stop-color="#F39544"/>
<stop offset="0.0865385" stop-color="#DD6045"/>
<stop offset="0.129808" stop-color="#AD423D"/>
<stop offset="0.365385" stop-color="#BE322E"/>
<stop offset="1" stop-color="#A64243"/>
</linearGradient>
</defs>
</svg>
