<svg width="238" height="27" viewBox="0 0 238 27" fill="none" xmlns="http://www.w3.org/2000/svg">
<path fill-rule="evenodd" clip-rule="evenodd" d="M8.27163 26.4564C7.84944 26.2805 7.15283 25.7598 7.74389 25.0843C8.48273 24.2399 10.277 23.6066 10.5937 23.1844C10.847 22.8466 10.3474 10.7298 10.0659 4.71354C10.0308 4.50244 9.85485 4.05914 9.43266 3.97471C8.90492 3.86916 4.8941 3.86916 4.47191 4.1858C4.04972 4.50244 2.78315 4.71354 2.4665 6.6134C2.14986 8.51326 0.988834 8.40771 0.566643 7.98552C0.144452 7.56333 0.144452 3.02478 0.566643 2.07485C0.988834 1.12492 1.51657 0.597177 4.47191 0.597177C6.83618 0.597177 18.9671 0.737907 24.7371 0.808272C25.1593 0.808272 26.0037 1.14602 26.0037 2.49704C26.0037 4.1858 26.1092 5.76902 26.2148 6.29676C26.3203 6.82449 24.6315 7.66888 24.1038 6.82449C23.5761 5.98011 23.2594 4.1858 21.9928 3.86916C20.7263 3.55251 16.7155 3.44697 16.2933 4.71354C15.8711 5.98011 16.5044 21.0734 17.0321 22.5511C17.5598 24.0288 19.6708 24.451 20.8318 24.7676C21.9928 25.0843 21.6762 26.2453 20.8318 26.2453C20.1563 26.2453 12.1769 26.386 8.27163 26.4564ZM4.36636 2.91923C2.6776 3.17254 2.11468 4.36171 2.04431 4.92464C3.22645 3.65806 4.22563 3.41178 4.57746 3.44697C4.74634 3.02478 4.50709 2.91923 4.36636 2.91923ZM23.8927 3.02478C23.3861 2.60258 22.415 2.7785 21.9928 2.91923C23.175 3.00367 24.1038 3.93952 24.4204 4.3969C24.4556 4.11544 24.3993 3.44697 23.8927 3.02478ZM11.1214 3.65806C10.6992 3.40475 10.5937 3.69324 10.5937 3.86916C11.1847 4.20691 11.4029 5.2061 11.4381 5.66347C11.5225 7.2678 11.7547 18.0126 11.8603 23.1844C10.9314 24.1132 10.9807 24.4862 11.1214 24.5565C12.4792 25.0632 12.7426 21.5308 12.7046 19.7013C12.5639 15.972 12.2824 8.17551 12.2824 6.82449C12.2824 5.13573 11.6492 3.97471 11.1214 3.65806Z" fill="#C24848"/>
<path fill-rule="evenodd" clip-rule="evenodd" d="M27.7519 2.54644C27.6014 2.51133 27.3547 2.29363 27.5713 1.70374C27.8421 0.966383 27.6616 0.861046 29.196 0.861046H37.6804C37.891 0.861046 38.2761 1.02959 38.1317 1.70374C37.9873 2.3779 36.6875 3.88071 36.0557 4.54784V10.9734C36.0557 11.2192 36.2001 11.7108 36.7778 11.7108H45.6232C45.8338 11.7108 46.255 11.5633 46.255 10.9734V6.86526C46.255 6.26835 46.1467 4.94812 45.7135 4.44251C45.1719 3.81048 42.2836 2.86245 42.2836 2.12509C42.2836 1.38773 42.8446 0.861046 45.9488 0.861046H52.3024C52.6033 0.966383 53.2231 1.32453 53.2953 1.91442C53.3855 2.65178 51.5803 3.59981 51.2193 4.65318C51.1591 9.46358 51.129 19.6111 51.4901 21.7178C51.5803 22.1391 52.2844 23.1504 54.3784 23.8245C54.589 23.8596 54.9921 24.1195 54.9199 24.8779C54.8297 25.8259 54.0173 26.1419 51.3096 26.1419H44.8109C44.4498 26.1068 43.7819 25.8259 43.9986 24.9832C44.2152 24.1405 45.7736 22.736 46.5258 22.1391V15.9242C46.5258 15.3976 46.3272 14.3021 45.533 14.1335H36.9583C36.7176 14.2389 36.2362 14.6391 36.2362 15.3976C36.2362 16.3456 36.0557 21.2964 36.9583 22.2445C37.8609 23.1925 37.9512 23.4032 39.5758 24.1405C39.9068 24.281 40.4604 24.7515 40.0271 25.5099C39.4856 26.458 37.7706 26.1419 36.6875 26.1419H30.0986C29.7376 26.1068 29.0335 25.8681 29.1057 25.1939C29.196 24.3512 30.5499 23.8245 31.1817 22.6658C31.3321 22.42 31.615 21.5914 31.5428 20.2431C31.4705 18.8948 31.272 9.70936 31.1817 5.2852C31.1817 4.82874 30.9109 3.74728 29.8278 3.07313C29.557 2.96779 28.7627 2.71498 27.7519 2.54644ZM32.4453 4.86386C32.3731 3.43127 31.5728 3.07313 31.1817 3.07313C31.3622 3.42425 31.7594 4.3161 31.9038 5.07453C32.0843 6.02256 32.1746 9.60402 32.4453 14.4495C32.7161 19.295 32.7161 21.9285 31.994 22.9818C31.4164 23.8245 31.5728 24.1054 31.7233 24.1405C32.2648 24.0352 33.0772 23.7192 33.2577 21.2964C33.4382 18.8737 32.5356 6.65459 32.4453 4.86386ZM47.8797 6.33858C47.7894 3.59981 45.9488 3.17846 45.894 3.17846C46.7063 3.59981 47.0674 5.2852 47.2479 7.39195C47.4284 9.49869 47.4284 20.8751 47.4284 21.7178C47.4284 22.5605 46.8868 23.1925 46.5258 23.5085C46.237 23.7613 46.586 23.9879 46.7063 24.023C47.7894 23.6016 48.0602 22.0918 48.0602 21.3896C48.0903 17.3165 47.9519 8.52959 47.8797 6.33858Z" fill="#C24848"/>
<path fill-rule="evenodd" clip-rule="evenodd" d="M56.3062 2.31901C56.042 1.89632 56.0815 1.00979 58.353 0.845239C60.6245 0.680687 71.7907 0.941188 77.0899 1.09201C77.5442 1.05769 78.5429 1.3692 78.9034 2.88978C79.354 4.7905 79.5759 7.53517 77.76 7.00397C75.9441 6.47277 76.4011 4.99597 74.9264 4.14878C74.5863 3.86667 72.4525 3.25747 67.5455 3.92363C67.2803 4.02867 66.8609 5.65332 67.3043 11.3115C68.1368 11.4538 70.1654 11.6547 71.6196 11.3197C72.2253 11.2505 73.5283 10.8167 73.894 9.63531C74.351 8.15851 75.6004 8.05534 75.9384 9.4281L75.9248 16.6053C75.9619 16.9572 75.7638 17.6394 74.6738 17.5529C73.3113 17.4447 74.1092 15.863 72.2943 14.8041C70.4794 13.7452 68.5486 13.847 67.7531 14.1622C67.6395 14.1971 67.4121 14.3304 67.4117 14.5837L67.3996 20.9166C67.3604 21.6202 67.5772 23.049 68.7581 23.1357C70.2341 23.244 73.8678 23.3565 75.3451 22.8316C76.8224 22.3066 79.4389 19.884 79.6674 19.1456C79.8959 18.4072 80.9171 18.8313 80.9155 19.6757C80.9139 20.5201 80.9087 23.2644 79.8851 24.1068C78.8614 24.9492 77.1562 25.8959 74.9982 26.1029C73.2718 26.2685 65.8005 25.8039 62.2806 25.5509C61.9392 25.9373 59.694 26.5826 57.878 26.0725C55.628 25.4405 57.1723 24.2972 57.7534 23.8671L58.8953 23.5727C59.5938 23.5656 60.7263 22.8326 61.1544 20.588L61.1818 6.23357C61.1825 5.84656 60.9118 4.90315 59.8229 4.22557C58.4618 3.3786 56.3634 2.95241 56.3062 2.31901ZM61.1878 3.06714C60.8244 3.06645 61.1114 3.41883 61.3004 3.5951C61.5271 3.80663 62.0482 4.48312 62.3188 5.4969C62.657 6.76412 62.8623 18.2692 62.7451 20.1689C62.6279 22.0685 62.1733 22.2787 61.3763 23.3327C60.7388 24.1759 61.261 24.2472 61.6018 24.1775C63.1477 23.4205 63.4614 21.6831 63.425 20.909C63.3965 16.0186 63.2717 6.02645 63.0007 5.18155C62.6621 4.12543 61.642 3.06801 61.1878 3.06714ZM74.1185 11.0079C73.7405 11.5909 72.3372 12.1303 71.6176 12.3752C72.4107 13.3021 73.6612 12.5902 74.1162 12.1689C74.5713 11.7476 74.4602 10.4808 74.1185 11.0079ZM74.7027 2.35404C74.43 2.43796 74.3615 2.67003 74.3613 2.77558C74.2976 2.98656 74.9289 2.88221 75.4962 3.09439C76.0636 3.30656 76.2892 4.15137 76.7428 4.46888C77.1964 4.78639 77.4241 4.47018 77.1988 3.51982C76.9735 2.56946 75.0436 2.24914 74.7027 2.35404ZM76.2528 23.2555C75.9801 23.3394 75.9116 23.5011 75.9115 23.5715C75.911 23.8248 76.2894 23.8888 76.4787 23.8892C78.2954 23.9982 79.0932 22.5221 79.435 21.8894C79.7769 21.2568 79.0962 20.9388 78.8681 21.4662C78.6399 21.9935 76.5937 23.1506 76.2528 23.2555Z" fill="#C24848"/>
<path fill-rule="evenodd" clip-rule="evenodd" d="M100.765 2.93642C100.031 2.79239 98.685 2.30989 99.1744 1.53212C99.7862 0.559906 101.132 0.775953 103.334 0.775953C105.537 0.775953 113.123 0.66793 113.49 0.992C113.857 1.31607 114.347 2.07224 113.001 2.93642C111.655 3.80061 110.431 4.34073 110.431 5.63701C110.431 6.67403 110.268 16.5834 110.186 21.4084C110.186 21.5885 110.235 22.0134 110.431 22.2726C110.676 22.5967 110.553 23.3529 113.001 23.2448C115.448 23.1368 117.283 23.3529 119.485 21.9485C121.688 20.5442 121.81 19.1399 122.789 19.0319C123.768 18.9239 123.768 20.1122 123.768 21.4084C123.768 22.7047 123.279 23.893 122.055 24.9732C120.831 26.0534 119.485 26.2695 111.41 26.2695C103.334 26.2695 101.132 26.4855 100.52 25.7294C99.9085 24.9732 101.254 24.6491 102.478 23.4609C103.702 22.2726 103.702 21.8405 103.702 20.7603C103.702 19.8961 103.865 9.7419 103.946 4.77282C103.783 4.1967 102.918 3.02284 100.765 2.93642ZM103.946 2.72038C103.653 2.80679 104.15 3.33251 104.436 3.58456C105.023 3.84382 105.17 4.98887 105.17 5.52899C105.17 10.7141 105.145 21.2572 105.047 21.9485C104.925 22.8127 104.803 22.5967 103.946 23.4609C103.09 24.3251 103.702 24.3251 104.803 23.893C105.684 23.5473 105.986 21.8045 106.026 20.9763C106.108 16.6554 106.271 7.71106 106.271 6.5012C106.271 4.98887 106.026 4.55677 105.659 3.90863C105.292 3.26049 104.313 2.61235 103.946 2.72038Z" fill="#C24848"/>
<path fill-rule="evenodd" clip-rule="evenodd" d="M125.123 25.8019C125.123 25.8019 124.818 24.9002 125.341 24.2991C125.996 23.5478 127.372 23.3331 128.279 21.723C129.004 20.435 133.04 10.4525 134.967 5.62232C135.413 4.04803 136.481 0.856512 137.186 0.684771C138.066 0.470095 139.153 2.29484 140.07 4.65628C140.803 6.54542 145.711 17.7515 148.074 23.1184C148.244 23.2257 148.811 23.5692 149.71 24.0845C150.834 24.7285 150.791 25.8019 150.015 26.1239H140.204C139.974 26.1597 139.545 26.038 139.663 25.2652C139.811 24.2991 141.572 23.8698 141.918 22.9037C142.264 21.9377 140.934 19.2542 139.782 18.0735H133.142C132.806 18.6102 132.007 20.2417 131.489 22.4744C131.374 22.7964 131.326 23.5263 132.058 23.8698C132.972 24.2991 134.64 23.9771 134.807 25.2652C134.857 25.5872 134.72 26.2527 133.773 26.3385C132.826 26.4244 128.093 26.3743 125.845 26.3385C125.651 26.3385 125.332 26.0165 125.123 25.8019ZM126.729 24.2991C126.5 24.4709 126.913 24.6569 127.148 24.7285C127.379 24.7285 128.033 24.5997 128.799 24.0845C129.756 23.4404 129.386 22.045 129.088 22.045C128.791 22.045 128.627 22.6891 128.17 23.4404C127.714 24.1918 127.015 24.0845 126.729 24.2991ZM134.041 14.424C133.694 15.3686 134.359 15.4616 134.785 15.3901H137.263C138.452 15.3901 138.942 15.2827 138.914 14.746C138.885 14.2094 136.732 9.05714 136.342 9.16447C135.951 9.27181 134.474 13.2433 134.041 14.424ZM137.186 6.37368C136.896 6.88891 137.339 8.01953 137.497 8.52044C137.694 9.37915 142.183 18.5029 142.834 19.5763C143.484 20.6496 143.657 22.045 143.504 22.9037C143.35 23.7624 142.365 23.8698 143.07 24.0845C143.775 24.2991 144.225 23.4404 144.373 22.4744C144.521 21.5083 144.085 20.757 143.748 20.0056C143.465 19.3739 140.619 13.2433 139.747 11.7406C138.876 10.2379 137.549 5.72966 137.186 6.37368Z" fill="#C24848"/>
<path fill-rule="evenodd" clip-rule="evenodd" d="M168.959 26.2274C168.009 26.2274 166.123 25.9954 166.175 25.0671C166.24 23.9068 168.347 23.8013 168.841 22.852C169.336 21.9026 169.532 12.4091 169.392 8.40074C169.252 4.39237 169.445 3.86495 168.688 3.33753C167.93 2.81012 165.707 2.59915 165.994 1.75528C166.281 0.911414 167.438 0.80593 168.599 0.80593H180.632C182.74 0.735608 187.062 1.77638 187.48 6.50204C187.567 7.97881 186.762 11.3332 182.85 12.9365C183.734 15.0814 186.008 19.9617 188.033 22.3246C188.252 22.5707 188.735 23.084 188.907 23.1684C189.121 23.2739 190.482 22.9575 190.803 23.0629C191.123 23.1684 191.36 23.9068 190.854 24.5397C190.349 25.1726 188.599 26.4384 186.586 26.2274C184.573 26.0165 182.253 23.0629 181.561 21.3752C180.869 19.6875 178.363 14.4133 177.296 14.0968C176.23 13.7804 174.97 13.9914 174.8 15.1517C174.663 16.0799 174.91 20.3204 175.05 22.3246C174.953 22.5707 175.143 23.1684 176.678 23.5904C178.596 24.1178 178.775 26.2274 176.981 26.2274H168.959ZM169.395 23.5904C169.162 24.1811 169.866 23.9771 170.247 23.8013C170.55 23.4146 170.995 22.8608 171.137 22.1014C171.315 21.152 171.246 4.8143 170.915 3.65398C170.675 2.81012 169.816 2.38818 169.499 2.38818C169.182 2.38818 170.143 2.70463 170.323 4.8143C170.502 6.92397 170.322 19.8984 170.355 20.8478C170.388 21.7971 169.686 22.852 169.395 23.5904ZM174.919 3.44302L174.653 10.9323C175.047 11.1433 176.195 11.5863 177.634 11.6707C179.432 11.7762 182.23 10.2994 182.156 8.18977C182.083 6.0801 181.288 4.49785 179.781 3.65398C178.576 2.97889 176.037 3.23205 174.919 3.44302ZM181.248 3.33753C181.324 3.08437 181.558 3.16173 181.666 3.23205C182.55 3.33753 184.27 5.23624 184.336 7.13494C184.461 10.7229 181.856 11.6707 181.535 11.5652C181.279 11.4809 181.419 11.2488 181.52 11.1433C182.07 10.7565 183.198 9.62435 183.317 8.18977C183.466 6.39655 182.584 5.34172 182.031 4.60334C181.477 3.86495 181.153 3.65398 181.248 3.33753ZM178.854 13.3585C178.431 13.3585 178.552 13.7804 178.665 13.9914C179.355 14.4133 180.754 17.402 181.367 18.8436C183.222 23.5904 186.127 25.1726 186.76 25.1726C187.393 25.1726 188.117 24.7507 187.681 24.3287C187.244 23.9068 186.512 24.1178 185.103 23.0629C183.976 22.2191 181.712 17.6481 180.722 15.4681C180.275 14.7649 179.276 13.3585 178.854 13.3585Z" fill="#C24848"/>
<path fill-rule="evenodd" clip-rule="evenodd" d="M195.311 5.51489C195.194 5.09275 193.971 3.91078 192.875 3.40422C191.505 2.77102 191.807 1.25924 193.223 0.942635C194.356 0.689355 203.375 0.837098 207.582 0.942631C209.82 1.11852 213.881 2.69535 215.417 6.49455C216.094 7.86649 217.287 11.7647 216.008 17.7568C214.516 24.7429 207.84 26.2437 205.857 26.2274L193.223 26.1239C193.034 26.159 192.716 25.6084 192.987 24.933C193.324 24.0888 195.196 23.35 195.32 22.0836C195.445 20.8172 195.639 9.73622 195.416 7.52002C195.3 6.35915 195.272 5.44453 195.311 5.51489ZM195.561 2.98209C195.255 2.98209 195.598 3.68564 195.807 4.03742C196.946 5.72595 196.675 20.6062 196.551 21.8726C196.468 22.7118 195.15 24.2998 195.627 24.2998C196.105 24.2998 197.526 24.0888 197.621 18.601C197.715 13.1133 197.221 5.51489 196.891 4.67062C196.56 3.82635 195.943 2.98209 195.561 2.98209ZM200.868 4.03742C200.504 4.37513 200.445 6.2888 200.467 7.30895C200.456 11.9524 200.453 21.6193 200.488 22.2947C200.532 23.139 201.892 23.5611 204.47 23.5611C207.049 23.5611 211.947 19.518 211.948 14.6106C211.949 9.55124 211.085 5.83149 207.856 4.35402C204.627 2.87655 201.324 3.61529 200.868 4.03742ZM210.373 4.98722C210.157 5.2405 210.836 5.93702 211.203 6.25362C214.671 10.475 212.681 17.6657 212.174 18.9321C211.668 20.1985 209.561 22.2947 209.673 22.6113C209.785 22.9279 213.653 20.2741 213.897 15.5592C214.16 10.4999 213.442 8.89195 212.893 7.52002C212.343 6.14809 210.642 4.67062 210.373 4.98722Z" fill="#C24848"/>
<path fill-rule="evenodd" clip-rule="evenodd" d="M235.274 9.26621C234.832 9.37091 233.833 9.39185 233.377 8.63802C232.806 7.69574 231.88 5.70646 229.905 4.45008C227.931 3.19369 224.695 2.7749 222.968 4.45008C221.24 6.12526 223.709 8.63802 225.226 8.95212C226.744 9.26622 234.153 11.2555 235.839 13.873C237.526 16.4904 237.789 21.4113 234.37 24.1334C233.465 24.7965 230.795 26.1436 227.348 26.2274C223.038 26.3321 222.743 23.924 219.775 24.7616C219.366 24.8314 218.529 24.8035 218.446 24.1334C218.364 23.4634 218.015 19.3871 217.851 17.4327C217.792 17.2582 217.964 16.8673 219.126 16.6998C220.579 16.4904 220.583 18.375 221.585 20.0502C222.586 21.7254 224.271 23.4005 228.151 23.5052C232.031 23.6099 233.353 21.4113 232.78 19.5267C232.208 17.6421 226.933 15.4434 223.582 14.0824C220.23 12.7213 218.052 10.732 218.347 6.64875C218.642 2.5655 223.792 0.0527344 226.207 0.262132C228.621 0.471529 230.696 1.62321 232.061 1.62321C232.743 1.62321 233.606 0.869383 234.232 0.785624C235.016 0.680926 235.537 2.14671 236.055 8.21923C236.059 8.55703 235.907 9.23934 235.274 9.26621ZM233.575 6.54405C233.494 6.62781 231.447 4.34538 230.434 3.19369C230.816 2.9145 231.228 3.18155 232.355 4.01914C233.704 5.02232 233.676 6.43935 233.575 6.54405ZM220.262 22.2488C220.605 23.1911 220.114 23.8193 220 23.8193C219.204 23.8193 219.393 23.5052 219.239 22.2488C219.115 21.2437 219.196 20.0502 219.424 20.0502C219.765 20.0502 219.988 21.495 220.262 22.2488ZM221.567 11.5696C220.039 10.6168 219.953 9.23131 220.171 8.53332C220.445 9.28715 221.528 10.4756 221.95 10.8245C230.087 15.9548 232.625 15.3266 233.627 17.0018C234.429 18.3419 233.835 18.2354 233.523 18.1656C232.57 17.0767 231.295 16.3857 230.777 16.1763C227.406 14.8152 223.414 12.7213 221.567 11.5696Z" fill="#C24848"/>
<path fill-rule="evenodd" clip-rule="evenodd" d="M154 26.2459C153.37 26.3174 152.125 26.2888 152.186 25.6018C152.261 24.7431 152.05 24.7431 153.191 24.2064C154.331 23.6697 155.261 23.133 155.201 21.4155C155.153 20.0415 155.16 10.1804 155.17 5.42162C155.154 4.95647 154.864 3.91884 153.838 3.48947C152.554 2.95276 151.177 2.73808 151.248 1.772C151.32 0.80593 154.166 0.80593 155.009 0.80593H162.175C162.526 0.80593 163.276 0.956209 163.466 1.55732C163.703 2.30871 162.973 2.52339 161.855 3.70415C161.547 3.95462 160.899 4.71316 160.767 5.74364L160.659 20.7715C160.607 21.3082 160.697 22.4675 161.468 22.8109C162.431 23.2403 164.339 23.5623 164.482 24.6358C164.625 25.7092 164.109 26.0312 163.063 26.2459C162.226 26.4176 156.672 26.3174 154 26.2459ZM154.775 24.3137C154.2 24.7431 154.721 24.7664 155.11 24.838C156.7 24.4945 157.02 23.1921 157.034 22.5838C157.116 16.8947 157.302 5.52896 156.935 4.67023C156.476 3.59681 155.915 2.63074 155.283 2.63074C154.651 2.63074 154.892 3.48947 155.655 4.24086C156.267 4.84197 156.309 5.85098 156.254 6.28035C156.253 11.2896 156.236 21.4799 156.176 22.1669C156.101 23.0256 155.494 23.777 154.775 24.3137Z" fill="#C24848"/>
<path d="M36.6875 26.1419H30.0986C29.7376 26.1068 29.0335 25.8681 29.1057 25.1939C29.196 24.3512 30.5499 23.8245 31.1817 22.6658C31.3321 22.42 31.615 21.5914 31.5428 20.2431C31.4705 18.8948 31.272 9.70936 31.1817 5.2852C31.1817 4.82874 30.9109 3.74728 29.8278 3.07313C29.557 2.96779 28.7627 2.71498 27.7519 2.54644C27.6014 2.51133 27.3547 2.29363 27.5713 1.70374C27.8421 0.966383 27.6616 0.861046 29.196 0.861046M29.196 0.861046C30.4235 0.861046 35.3637 0.861046 37.6804 0.861046M29.196 0.861046H37.6804M37.6804 0.861046C37.891 0.861046 38.2761 1.02959 38.1317 1.70374C37.9873 2.3779 36.6875 3.88071 36.0557 4.54784V10.9734C36.0557 11.2192 36.2001 11.7108 36.7778 11.7108M36.7778 11.7108C37.3555 11.7108 42.9154 11.7108 45.6232 11.7108M36.7778 11.7108H45.6232M45.6232 11.7108C45.8338 11.7108 46.255 11.5633 46.255 10.9734M46.255 10.9734C46.255 10.3835 46.255 7.98886 46.255 6.86526M46.255 10.9734V6.86526M46.255 6.86526C46.255 6.26835 46.1467 4.94812 45.7135 4.44251C45.1719 3.81048 42.2836 2.86245 42.2836 2.12509C42.2836 1.38773 42.8446 0.861046 45.9488 0.861046M45.9488 0.861046C48.4322 0.861046 51.2193 0.861046 52.3024 0.861046M51.3096 26.1419C54.0173 26.1419 54.8297 25.8259 54.9199 24.8779C54.9921 24.1195 54.589 23.8596 54.3784 23.8245C52.2844 23.1504 51.5803 22.1391 51.4901 21.7178C51.129 19.6111 51.1591 9.46358 51.2193 4.65318C51.5803 3.59981 53.3855 2.65178 53.2953 1.91442C53.2231 1.32453 52.6033 0.966383 52.3024 0.861046H45.9488M51.3096 26.1419C49.1433 26.1419 46.0745 26.1419 44.8109 26.1419M36.6875 26.1419C37.7706 26.1419 39.4856 26.458 40.0271 25.5099C40.4604 24.7515 39.9068 24.281 39.5758 24.1405C37.9512 23.4032 37.8609 23.1925 36.9583 22.2445C36.0557 21.2964 36.2362 16.3456 36.2362 15.3976C36.2362 14.6391 36.7176 14.2389 36.9583 14.1335H45.533C46.3272 14.3021 46.5258 15.3976 46.5258 15.9242V22.1391C45.7736 22.736 44.2152 24.1405 43.9986 24.9832C43.7819 25.8259 44.4498 26.1068 44.8109 26.1419H51.3096M36.6875 26.1419C35.821 26.1419 31.9339 26.1419 30.0986 26.1419M67.4117 14.5837C67.4121 14.3304 67.6395 14.1971 67.7531 14.1622C68.5486 13.847 70.4794 13.7452 72.2943 14.8041C74.1092 15.863 73.3113 17.4447 74.6738 17.5529C75.7638 17.6394 75.9619 16.9572 75.9248 16.6053L75.9384 9.4281C75.6004 8.05534 74.351 8.15851 73.894 9.63531C73.5283 10.8167 72.2253 11.2505 71.6196 11.3197C70.1654 11.6547 68.1368 11.4538 67.3043 11.3115C66.8609 5.65332 67.2803 4.02867 67.5455 3.92363C72.4525 3.25747 74.5863 3.86667 74.9264 4.14878C76.4011 4.99597 75.9441 6.47277 77.76 7.00397C79.5759 7.53517 79.354 4.7905 78.9034 2.88978C78.5429 1.3692 77.5442 1.05769 77.0899 1.09201C71.7907 0.941188 60.6245 0.680687 58.353 0.845239C56.0815 1.00979 56.042 1.89632 56.3062 2.31901C56.3634 2.95241 58.4618 3.3786 59.8229 4.22557C60.9118 4.90315 61.1825 5.84656 61.1818 6.23357M67.4117 14.5837C67.4112 14.837 67.4034 18.9112 67.3996 20.9166M61.1544 20.588C60.7263 22.8326 59.5938 23.5656 58.8953 23.5727C58.3335 23.5784 57.7585 23.8632 57.7534 23.8671C57.1723 24.2972 55.628 25.4405 57.878 26.0725C59.694 26.5826 61.9392 25.9373 62.2806 25.5509C65.8005 25.8039 73.2718 26.2685 74.9982 26.1029C77.1562 25.8959 78.8614 24.9492 79.8851 24.1068C80.9087 23.2644 80.9139 20.5201 80.9155 19.6757C80.9171 18.8313 79.8959 18.4072 79.6674 19.1456C79.4389 19.884 76.8224 22.3066 75.3451 22.8316C73.8678 23.3565 70.2341 23.244 68.7581 23.1357C67.5772 23.049 67.3604 21.6202 67.3996 20.9166L67.4117 14.5837M58.8953 23.5727L57.7534 23.8671M61.1544 20.588C61.4547 19.0142 61.1739 10.3499 61.1818 6.23357M61.1544 20.588L61.1818 6.23357M137.263 15.3901C136.311 15.3901 135.214 15.3901 134.785 15.3901C134.359 15.4616 133.694 15.3686 134.041 14.424C134.474 13.2433 135.951 9.27181 136.342 9.16447C136.732 9.05714 138.885 14.2094 138.914 14.746C138.942 15.2827 138.452 15.3901 137.263 15.3901ZM134.785 15.3901H137.263M168.959 26.2274C168.009 26.2274 166.123 25.9954 166.175 25.0671C166.24 23.9068 168.347 23.8013 168.841 22.852C169.336 21.9026 169.532 12.4091 169.392 8.40074C169.252 4.39237 169.445 3.86495 168.688 3.33753C167.93 2.81012 165.707 2.59915 165.994 1.75528C166.281 0.911414 167.438 0.80593 168.599 0.80593M168.959 26.2274C171.035 26.2274 175.546 26.2274 176.981 26.2274M168.959 26.2274H176.981M176.981 26.2274C178.775 26.2274 178.596 24.1178 176.678 23.5904C175.143 23.1684 174.953 22.5707 175.05 22.3246C174.91 20.3204 174.663 16.0799 174.8 15.1517C174.97 13.9914 176.23 13.7804 177.296 14.0968C178.363 14.4133 180.869 19.6875 181.561 21.3752C182.253 23.0629 184.573 26.0165 186.586 26.2274C188.599 26.4384 190.349 25.1726 190.854 24.5397C191.36 23.9068 191.123 23.1684 190.803 23.0629C190.482 22.9575 189.121 23.2739 188.907 23.1684C188.735 23.084 188.252 22.5707 188.033 22.3246C186.008 19.9617 183.734 15.0814 182.85 12.9365C186.762 11.3332 187.567 7.97881 187.48 6.50204C187.062 1.77638 182.74 0.735608 180.632 0.80593C177.008 0.80593 169.528 0.80593 168.599 0.80593M168.599 0.80593H180.632M205.857 26.2274C204.274 26.2145 196.884 26.1239 193.223 26.1239C193.034 26.159 192.716 25.6084 192.987 24.933C193.324 24.0888 195.196 23.35 195.32 22.0836C195.445 20.8172 195.639 9.73622 195.416 7.52002C195.3 6.35915 195.272 5.44453 195.311 5.51489C195.194 5.09275 193.971 3.91078 192.875 3.40422C191.505 2.77102 191.807 1.25924 193.223 0.942635C194.356 0.689355 203.375 0.837098 207.582 0.942631C209.82 1.11852 213.881 2.69535 215.417 6.49455C216.094 7.86649 217.287 11.7647 216.008 17.7568C214.516 24.7429 207.84 26.2437 205.857 26.2274ZM193.223 26.1239L205.857 26.2274M155.009 0.80593C154.166 0.80593 151.32 0.80593 151.248 1.772C151.177 2.73808 152.554 2.95276 153.838 3.48947C154.864 3.91884 155.154 4.95647 155.17 5.42162C155.16 10.1804 155.153 20.0415 155.201 21.4155C155.261 23.133 154.331 23.6697 153.191 24.2064C152.05 24.7431 152.261 24.7431 152.186 25.6018C152.125 26.2888 153.37 26.3174 154 26.2459C156.672 26.3174 162.226 26.4176 163.063 26.2459C164.109 26.0312 164.625 25.7092 164.482 24.6358C164.339 23.5623 162.431 23.2403 161.468 22.8109C160.697 22.4675 160.607 21.3082 160.659 20.7715L160.767 5.74364C160.899 4.71316 161.547 3.95462 161.855 3.70415C162.973 2.52339 163.703 2.30871 163.466 1.55732C163.276 0.956209 162.526 0.80593 162.175 0.80593M155.009 0.80593C155.683 0.80593 160.067 0.80593 162.175 0.80593M155.009 0.80593H162.175M8.27163 26.4564C7.84944 26.2805 7.15283 25.7598 7.74389 25.0843C8.48273 24.2399 10.277 23.6066 10.5937 23.1844C10.847 22.8466 10.3474 10.7298 10.0659 4.71354C10.0308 4.50244 9.85485 4.05914 9.43266 3.97471C8.90492 3.86916 4.8941 3.86916 4.47191 4.1858C4.04972 4.50244 2.78315 4.71354 2.4665 6.6134C2.14986 8.51326 0.988834 8.40771 0.566643 7.98552C0.144452 7.56333 0.144452 3.02478 0.566643 2.07485C0.988834 1.12492 1.51657 0.597177 4.47191 0.597177C6.83618 0.597177 18.9671 0.737907 24.7371 0.808272C25.1593 0.808272 26.0037 1.14602 26.0037 2.49704C26.0037 4.1858 26.1092 5.76902 26.2148 6.29676C26.3203 6.82449 24.6315 7.66888 24.1038 6.82449C23.5761 5.98011 23.2594 4.1858 21.9928 3.86916C20.7263 3.55251 16.7155 3.44697 16.2933 4.71354C15.8711 5.98011 16.5044 21.0734 17.0321 22.5511C17.5598 24.0288 19.6708 24.451 20.8318 24.7676C21.9928 25.0843 21.6762 26.2453 20.8318 26.2453C20.1563 26.2453 12.1769 26.386 8.27163 26.4564ZM2.04431 4.92464C2.11468 4.36171 2.6776 3.17254 4.36636 2.91923C4.50709 2.91923 4.74634 3.02478 4.57746 3.44697C4.22563 3.41178 3.22645 3.65806 2.04431 4.92464ZM21.9928 2.91923C22.415 2.7785 23.3861 2.60258 23.8927 3.02478C24.3993 3.44697 24.4556 4.11544 24.4204 4.3969C24.1038 3.93952 23.175 3.00367 21.9928 2.91923ZM10.5937 3.86916C10.5937 3.69324 10.6992 3.40475 11.1214 3.65806C11.6492 3.97471 12.2824 5.13573 12.2824 6.82449C12.2824 8.17551 12.5639 15.972 12.7046 19.7013C12.7426 21.5308 12.4792 25.0632 11.1214 24.5565C10.9807 24.4862 10.9314 24.1132 11.8603 23.1844C11.7547 18.0126 11.5225 7.2678 11.4381 5.66347C11.4029 5.2061 11.1847 4.20691 10.5937 3.86916ZM31.1817 3.07313C31.5728 3.07313 32.3731 3.43127 32.4453 4.86386C32.5356 6.65459 33.4382 18.8737 33.2577 21.2964C33.0772 23.7192 32.2648 24.0352 31.7233 24.1405C31.5728 24.1054 31.4164 23.8245 31.994 22.9818C32.7161 21.9285 32.7161 19.295 32.4453 14.4495C32.1746 9.60402 32.0843 6.02256 31.9038 5.07453C31.7594 4.3161 31.3622 3.42425 31.1817 3.07313ZM45.894 3.17846C45.9488 3.17846 47.7894 3.59981 47.8797 6.33858C47.9519 8.52959 48.0903 17.3165 48.0602 21.3896C48.0602 22.0918 47.7894 23.6016 46.7063 24.023C46.586 23.9879 46.237 23.7613 46.5258 23.5085C46.8868 23.1925 47.4284 22.5605 47.4284 21.7178C47.4284 20.8751 47.4284 9.49869 47.2479 7.39195C47.0674 5.2852 46.7063 3.59981 45.894 3.17846ZM61.3004 3.5951C61.1114 3.41883 60.8244 3.06645 61.1878 3.06714C61.642 3.06801 62.6621 4.12543 63.0007 5.18155C63.2717 6.02645 63.3965 16.0186 63.425 20.909C63.4614 21.6831 63.1477 23.4205 61.6018 24.1775C61.261 24.2472 60.7388 24.1759 61.3763 23.3327C62.1733 22.2787 62.6279 22.0685 62.7451 20.1689C62.8623 18.2692 62.657 6.76412 62.3188 5.4969C62.0482 4.48312 61.5271 3.80663 61.3004 3.5951ZM71.6176 12.3752C72.3372 12.1303 73.7405 11.5909 74.1185 11.0079C74.4602 10.4808 74.5713 11.7476 74.1162 12.1689C73.6612 12.5902 72.4107 13.3021 71.6176 12.3752ZM74.3613 2.77558C74.3615 2.67003 74.43 2.43796 74.7027 2.35404C75.0436 2.24914 76.9735 2.56946 77.1988 3.51982C77.4241 4.47018 77.1964 4.78639 76.7428 4.46888C76.2892 4.15137 76.0636 3.30656 75.4962 3.09439C74.9289 2.88221 74.2976 2.98656 74.3613 2.77558ZM75.9115 23.5715C75.9116 23.5011 75.9801 23.3394 76.2528 23.2555C76.5937 23.1506 78.6399 21.9935 78.8681 21.4662C79.0962 20.9388 79.7769 21.2568 79.435 21.8894C79.0932 22.5221 78.2954 23.9982 76.4787 23.8892C76.2894 23.8888 75.911 23.8248 75.9115 23.5715ZM100.765 2.93642C100.031 2.79239 98.685 2.30989 99.1744 1.53212C99.7862 0.559906 101.132 0.775953 103.334 0.775953C105.537 0.775953 113.123 0.66793 113.49 0.992C113.857 1.31607 114.347 2.07224 113.001 2.93642C111.655 3.80061 110.431 4.34073 110.431 5.63701C110.431 6.67403 110.268 16.5834 110.186 21.4084C110.186 21.5885 110.235 22.0134 110.431 22.2726C110.676 22.5967 110.553 23.3529 113.001 23.2448C115.448 23.1368 117.283 23.3529 119.485 21.9485C121.688 20.5442 121.81 19.1399 122.789 19.0319C123.768 18.9239 123.768 20.1122 123.768 21.4084C123.768 22.7047 123.279 23.893 122.055 24.9732C120.831 26.0534 119.485 26.2695 111.41 26.2695C103.334 26.2695 101.132 26.4855 100.52 25.7294C99.9085 24.9732 101.254 24.6491 102.478 23.4609C103.702 22.2726 103.702 21.8405 103.702 20.7603C103.702 19.8961 103.865 9.7419 103.946 4.77282C103.783 4.1967 102.918 3.02284 100.765 2.93642ZM104.436 3.58456C104.15 3.33251 103.653 2.80679 103.946 2.72038C104.313 2.61235 105.292 3.26049 105.659 3.90863C106.026 4.55677 106.271 4.98887 106.271 6.5012C106.271 7.71106 106.108 16.6554 106.026 20.9763C105.986 21.8045 105.684 23.5473 104.803 23.893C103.702 24.3251 103.09 24.3251 103.946 23.4609C104.803 22.5967 104.925 22.8127 105.047 21.9485C105.145 21.2572 105.17 10.7141 105.17 5.52899C105.17 4.98887 105.023 3.84382 104.436 3.58456ZM125.123 25.8019C125.123 25.8019 124.818 24.9002 125.341 24.2991C125.996 23.5478 127.372 23.3331 128.279 21.723C129.004 20.435 133.04 10.4525 134.967 5.62232C135.413 4.04803 136.481 0.856512 137.186 0.684771C138.066 0.470095 139.153 2.29484 140.07 4.65628C140.803 6.54542 145.711 17.7515 148.074 23.1184C148.244 23.2257 148.811 23.5692 149.71 24.0845C150.834 24.7285 150.791 25.8019 150.015 26.1239H140.204C139.974 26.1597 139.545 26.038 139.663 25.2652C139.811 24.2991 141.572 23.8698 141.918 22.9037C142.264 21.9377 140.934 19.2542 139.782 18.0735H133.142C132.806 18.6102 132.007 20.2417 131.489 22.4744C131.374 22.7964 131.326 23.5263 132.058 23.8698C132.972 24.2991 134.64 23.9771 134.807 25.2652C134.857 25.5872 134.72 26.2527 133.773 26.3385C132.826 26.4244 128.093 26.3743 125.845 26.3385C125.651 26.3385 125.332 26.0165 125.123 25.8019ZM127.148 24.7285C126.913 24.6569 126.5 24.4709 126.729 24.2991C127.015 24.0845 127.714 24.1918 128.17 23.4404C128.627 22.6891 128.791 22.045 129.088 22.045C129.386 22.045 129.756 23.4404 128.799 24.0845C128.033 24.5997 127.379 24.7285 127.148 24.7285ZM137.497 8.52044C137.339 8.01953 136.896 6.88891 137.186 6.37368C137.549 5.72966 138.876 10.2379 139.747 11.7406C140.619 13.2433 143.465 19.3739 143.748 20.0056C144.085 20.757 144.521 21.5083 144.373 22.4744C144.225 23.4404 143.775 24.2991 143.07 24.0845C142.365 23.8698 143.35 23.7624 143.504 22.9037C143.657 22.045 143.484 20.6496 142.834 19.5763C142.183 18.5029 137.694 9.37915 137.497 8.52044ZM170.247 23.8013C169.866 23.9771 169.162 24.1811 169.395 23.5904C169.686 22.852 170.388 21.7971 170.355 20.8478C170.322 19.8984 170.502 6.92397 170.323 4.8143C170.143 2.70463 169.182 2.38818 169.499 2.38818C169.816 2.38818 170.675 2.81012 170.915 3.65398C171.246 4.8143 171.315 21.152 171.137 22.1014C170.995 22.8608 170.55 23.4146 170.247 23.8013ZM174.653 10.9323L174.919 3.44302C176.037 3.23205 178.576 2.97889 179.781 3.65398C181.288 4.49785 182.083 6.0801 182.156 8.18977C182.23 10.2994 179.432 11.7762 177.634 11.6707C176.195 11.5863 175.047 11.1433 174.653 10.9323ZM181.666 3.23205C181.558 3.16173 181.324 3.08437 181.248 3.33753C181.153 3.65398 181.477 3.86495 182.031 4.60334C182.584 5.34172 183.466 6.39655 183.317 8.18977C183.198 9.62435 182.07 10.7565 181.52 11.1433C181.419 11.2488 181.279 11.4809 181.535 11.5652C181.856 11.6707 184.461 10.7229 184.336 7.13494C184.27 5.23624 182.55 3.33753 181.666 3.23205ZM178.665 13.9914C178.552 13.7804 178.431 13.3585 178.854 13.3585C179.276 13.3585 180.275 14.7649 180.722 15.4681C181.712 17.6481 183.976 22.2191 185.103 23.0629C186.512 24.1178 187.244 23.9068 187.681 24.3287C188.117 24.7507 187.393 25.1726 186.76 25.1726C186.127 25.1726 183.222 23.5904 181.367 18.8436C180.754 17.402 179.355 14.4133 178.665 13.9914ZM195.807 4.03742C195.598 3.68564 195.255 2.98209 195.561 2.98209C195.943 2.98209 196.56 3.82635 196.891 4.67062C197.221 5.51489 197.715 13.1133 197.621 18.601C197.526 24.0888 196.105 24.2998 195.627 24.2998C195.15 24.2998 196.468 22.7118 196.551 21.8726C196.675 20.6062 196.946 5.72595 195.807 4.03742ZM200.467 7.30895C200.445 6.2888 200.504 4.37513 200.868 4.03742C201.324 3.61529 204.627 2.87655 207.856 4.35402C211.085 5.83149 211.949 9.55124 211.948 14.6106C211.947 19.518 207.049 23.5611 204.47 23.5611C201.892 23.5611 200.532 23.139 200.488 22.2947C200.453 21.6193 200.456 11.9524 200.467 7.30895ZM211.203 6.25362C210.836 5.93702 210.157 5.2405 210.373 4.98722C210.642 4.67062 212.343 6.14809 212.893 7.52002C213.442 8.89195 214.16 10.4999 213.897 15.5592C213.653 20.2741 209.785 22.9279 209.673 22.6113C209.561 22.2947 211.668 20.1985 212.174 18.9321C212.681 17.6657 214.671 10.475 211.203 6.25362ZM235.274 9.26621C234.832 9.37091 233.833 9.39185 233.377 8.63802C232.806 7.69574 231.88 5.70646 229.905 4.45008C227.931 3.19369 224.695 2.7749 222.968 4.45008C221.24 6.12526 223.709 8.63802 225.226 8.95212C226.744 9.26622 234.153 11.2555 235.839 13.873C237.526 16.4904 237.789 21.4113 234.37 24.1334C233.465 24.7965 230.795 26.1436 227.348 26.2274C223.038 26.3321 222.743 23.924 219.775 24.7616C219.366 24.8314 218.529 24.8035 218.446 24.1334C218.364 23.4634 218.015 19.3871 217.851 17.4327C217.792 17.2582 217.964 16.8673 219.126 16.6998C220.579 16.4904 220.583 18.375 221.585 20.0502C222.586 21.7254 224.271 23.4005 228.151 23.5052C232.031 23.6099 233.353 21.4113 232.78 19.5267C232.208 17.6421 226.933 15.4434 223.582 14.0824C220.23 12.7213 218.052 10.732 218.347 6.64875C218.642 2.5655 223.792 0.0527344 226.207 0.262132C228.621 0.471529 230.696 1.62321 232.061 1.62321C232.743 1.62321 233.606 0.869383 234.232 0.785624C235.016 0.680926 235.537 2.14671 236.055 8.21923C236.059 8.55703 235.907 9.23934 235.274 9.26621ZM230.434 3.19369C231.447 4.34538 233.494 6.62781 233.575 6.54405C233.676 6.43935 233.704 5.02232 232.355 4.01914C231.228 3.18155 230.816 2.9145 230.434 3.19369ZM220 23.8193C220.114 23.8193 220.605 23.1911 220.262 22.2488C219.988 21.495 219.765 20.0502 219.424 20.0502C219.196 20.0502 219.115 21.2437 219.239 22.2488C219.393 23.5052 219.204 23.8193 220 23.8193ZM220.171 8.53332C219.953 9.23131 220.039 10.6168 221.567 11.5696C223.414 12.7213 227.406 14.8152 230.777 16.1763C231.295 16.3857 232.57 17.0767 233.523 18.1656C233.835 18.2354 234.429 18.3419 233.627 17.0018C232.625 15.3266 230.087 15.9548 221.95 10.8245C221.528 10.4756 220.445 9.28715 220.171 8.53332ZM155.11 24.838C154.721 24.7664 154.2 24.7431 154.775 24.3137C155.494 23.777 156.101 23.0256 156.176 22.1669C156.236 21.4799 156.253 11.2896 156.254 6.28035C156.309 5.85098 156.267 4.84197 155.655 4.24086C154.892 3.48947 154.651 2.63074 155.283 2.63074C155.915 2.63074 156.476 3.59681 156.935 4.67023C157.302 5.52896 157.116 16.8947 157.034 22.5838C157.02 23.1921 156.7 24.4945 155.11 24.838Z" stroke="black" stroke-width="0.5"/>
</svg>
